<svg width="597" height="111" viewBox="0 0 597 111" fill="none" xmlns="http://www.w3.org/2000/svg">
<path d="M53.9195 4.01764H42.5284V15.4087H53.9195V4.01764Z" fill="#A285BC"/>
<path d="M36.3905 19.8354H29.4294V26.7979H36.3905V19.8354Z" fill="#5086CD"/>
<path d="M73.1621 24.1403H82.2682V10.4753H59.486V33.251H73.1621V24.1403Z" fill="url(#paint0_linear)"/>
<path d="M76.2001 27.1789V50.8457H88.5311V61.9808H111V27.1789H76.2001Z" fill="url(#paint1_linear)"/>
<path d="M25.3798 50.8457H42.5284V31.8629H0V74.3874H25.3798V50.8457Z" fill="url(#paint2_linear)"/>
<path d="M81.5146 57.8635H32.3983V106.982H81.5146V57.8635Z" fill="url(#paint3_linear)"/>
<path d="M141.487 38.16H123.855V29.8H168.999V38.16H151.367V83H141.487V38.16ZM174.537 42.416H184.037V83H174.537V42.416ZM179.325 35.728C177.602 35.728 176.158 35.196 174.993 34.132C173.827 33.0173 173.245 31.6493 173.245 30.028C173.245 28.4067 173.827 27.064 174.993 26C176.158 24.8853 177.602 24.328 179.325 24.328C181.047 24.328 182.491 24.86 183.657 25.924C184.822 26.9373 185.405 28.2293 185.405 29.8C185.405 31.472 184.822 32.8907 183.657 34.056C182.542 35.1707 181.098 35.728 179.325 35.728ZM215.125 83.532C210.92 83.532 207.145 82.6453 203.801 80.872C200.457 79.0987 197.848 76.6413 195.973 73.5C194.099 70.308 193.161 66.7107 193.161 62.708C193.161 58.7053 194.099 55.1333 195.973 51.992C197.848 48.8507 200.432 46.3933 203.725 44.62C207.069 42.8467 210.869 41.96 215.125 41.96C219.128 41.96 222.624 42.7707 225.613 44.392C228.653 46.0133 230.933 48.344 232.453 51.384L225.157 55.64C223.992 53.7653 222.523 52.372 220.749 51.46C219.027 50.4973 217.127 50.016 215.049 50.016C211.503 50.016 208.564 51.1813 206.233 53.512C203.903 55.792 202.737 58.8573 202.737 62.708C202.737 66.5587 203.877 69.6493 206.157 71.98C208.488 74.26 211.452 75.4 215.049 75.4C217.127 75.4 219.027 74.944 220.749 74.032C222.523 73.0693 223.992 71.6507 225.157 69.776L232.453 74.032C230.883 77.072 228.577 79.428 225.537 81.1C222.548 82.7213 219.077 83.532 215.125 83.532ZM256.863 65.596L249.795 72.284V83H240.295V26.608H249.795V60.656L269.479 42.416H280.879L263.931 59.44L282.475 83H270.923L256.863 65.596ZM325.056 62.936C325.056 63.5947 325.005 64.532 324.904 65.748H293.06C293.617 68.7373 295.061 71.1187 297.392 72.892C299.773 74.6147 302.712 75.476 306.208 75.476C310.667 75.476 314.34 74.0067 317.228 71.068L322.32 76.92C320.496 79.0987 318.191 80.7453 315.404 81.86C312.617 82.9747 309.476 83.532 305.98 83.532C301.521 83.532 297.595 82.6453 294.2 80.872C290.805 79.0987 288.171 76.6413 286.296 73.5C284.472 70.308 283.56 66.7107 283.56 62.708C283.56 58.756 284.447 55.2093 286.22 52.068C288.044 48.876 290.552 46.3933 293.744 44.62C296.936 42.8467 300.533 41.96 304.536 41.96C308.488 41.96 312.009 42.8467 315.1 44.62C318.241 46.3427 320.673 48.8 322.396 51.992C324.169 55.1333 325.056 58.7813 325.056 62.936ZM304.536 49.56C301.496 49.56 298.912 50.472 296.784 52.296C294.707 54.0693 293.44 56.4507 292.984 59.44H316.012C315.607 56.5013 314.365 54.12 312.288 52.296C310.211 50.472 307.627 49.56 304.536 49.56ZM358.577 80.796C357.463 81.708 356.095 82.392 354.473 82.848C352.903 83.304 351.231 83.532 349.457 83.532C344.999 83.532 341.553 82.3667 339.121 80.036C336.689 77.7053 335.473 74.3107 335.473 69.852V50.32H328.785V42.72H335.473V33.448H344.973V42.72H355.841V50.32H344.973V69.624C344.973 71.6 345.455 73.12 346.417 74.184C347.38 75.1973 348.773 75.704 350.597 75.704C352.725 75.704 354.499 75.1467 355.917 74.032L358.577 80.796ZM383.796 83.76C379.692 83.76 375.715 83.1773 371.864 82.012C368.064 80.8467 365.049 79.3013 362.82 77.376L366.24 69.7C368.419 71.4227 371.079 72.8413 374.22 73.956C377.412 75.02 380.604 75.552 383.796 75.552C387.748 75.552 390.687 74.9187 392.612 73.652C394.588 72.3853 395.576 70.7133 395.576 68.636C395.576 67.116 395.019 65.8747 393.904 64.912C392.84 63.8987 391.472 63.1133 389.8 62.556C388.128 61.9987 385.848 61.3653 382.96 60.656C378.907 59.6933 375.613 58.7307 373.08 57.768C370.597 56.8053 368.444 55.3107 366.62 53.284C364.847 51.2067 363.96 48.42 363.96 44.924C363.96 41.9853 364.745 39.3253 366.316 36.944C367.937 34.512 370.344 32.5867 373.536 31.168C376.779 29.7493 380.731 29.04 385.392 29.04C388.635 29.04 391.827 29.4453 394.968 30.256C398.109 31.0667 400.82 32.232 403.1 33.752L399.984 41.428C397.653 40.06 395.221 39.0213 392.688 38.312C390.155 37.6027 387.697 37.248 385.316 37.248C381.415 37.248 378.501 37.9067 376.576 39.224C374.701 40.5413 373.764 42.2893 373.764 44.468C373.764 45.988 374.296 47.2293 375.36 48.192C376.475 49.1547 377.868 49.9147 379.54 50.472C381.212 51.0293 383.492 51.6627 386.38 52.372C390.332 53.284 393.575 54.2467 396.108 55.26C398.641 56.2227 400.795 57.7173 402.568 59.744C404.392 61.7707 405.304 64.5067 405.304 67.952C405.304 70.8907 404.493 73.5507 402.872 75.932C401.301 78.3133 398.895 80.2133 395.652 81.632C392.409 83.0507 388.457 83.76 383.796 83.76ZM432.809 83.532C428.604 83.532 424.829 82.6453 421.485 80.872C418.141 79.0987 415.532 76.6413 413.657 73.5C411.782 70.308 410.845 66.7107 410.845 62.708C410.845 58.7053 411.782 55.1333 413.657 51.992C415.532 48.8507 418.116 46.3933 421.409 44.62C424.753 42.8467 428.553 41.96 432.809 41.96C436.812 41.96 440.308 42.7707 443.297 44.392C446.337 46.0133 448.617 48.344 450.137 51.384L442.841 55.64C441.676 53.7653 440.206 52.372 438.433 51.46C436.71 50.4973 434.81 50.016 432.733 50.016C429.186 50.016 426.248 51.1813 423.917 53.512C421.586 55.792 420.421 58.8573 420.421 62.708C420.421 66.5587 421.561 69.6493 423.841 71.98C426.172 74.26 429.136 75.4 432.733 75.4C434.81 75.4 436.71 74.944 438.433 74.032C440.206 73.0693 441.676 71.6507 442.841 69.776L450.137 74.032C448.566 77.072 446.261 79.428 443.221 81.1C440.232 82.7213 436.761 83.532 432.809 83.532ZM475.995 83.532C471.891 83.532 468.193 82.6453 464.899 80.872C461.606 79.0987 459.022 76.6413 457.147 73.5C455.323 70.308 454.411 66.7107 454.411 62.708C454.411 58.7053 455.323 55.1333 457.147 51.992C459.022 48.8507 461.606 46.3933 464.899 44.62C468.193 42.8467 471.891 41.96 475.995 41.96C480.15 41.96 483.874 42.8467 487.167 44.62C490.461 46.3933 493.019 48.8507 494.843 51.992C496.718 55.1333 497.655 58.7053 497.655 62.708C497.655 66.7107 496.718 70.308 494.843 73.5C493.019 76.6413 490.461 79.0987 487.167 80.872C483.874 82.6453 480.15 83.532 475.995 83.532ZM475.995 75.4C479.491 75.4 482.379 74.2347 484.659 71.904C486.939 69.5733 488.079 66.508 488.079 62.708C488.079 58.908 486.939 55.8427 484.659 53.512C482.379 51.1813 479.491 50.016 475.995 50.016C472.499 50.016 469.611 51.1813 467.331 53.512C465.102 55.8427 463.987 58.908 463.987 62.708C463.987 66.508 465.102 69.5733 467.331 71.904C469.611 74.2347 472.499 75.4 475.995 75.4ZM546.032 42.416V83H536.988V77.832C535.468 79.656 533.568 81.0747 531.288 82.088C529.008 83.0507 526.55 83.532 523.916 83.532C518.494 83.532 514.213 82.0373 511.072 79.048C507.981 76.008 506.436 71.524 506.436 65.596V42.416H515.936V64.304C515.936 67.952 516.746 70.688 518.368 72.512C520.04 74.2853 522.396 75.172 525.436 75.172C528.83 75.172 531.516 74.1333 533.492 72.056C535.518 69.928 536.532 66.888 536.532 62.936V42.416H546.032ZM582.866 80.796C581.752 81.708 580.384 82.392 578.762 82.848C577.192 83.304 575.52 83.532 573.746 83.532C569.288 83.532 565.842 82.3667 563.41 80.036C560.978 77.7053 559.762 74.3107 559.762 69.852V50.32H553.074V42.72H559.762V33.448H569.262V42.72H580.13V50.32H569.262V69.624C569.262 71.6 569.744 73.12 570.706 74.184C571.669 75.1973 573.062 75.704 574.886 75.704C577.014 75.704 578.788 75.1467 580.206 74.032L582.866 80.796Z" fill="white"/>
<defs>
<linearGradient id="paint0_linear" x1="70.8771" y1="10.4753" x2="70.8771" y2="33.251" gradientUnits="userSpaceOnUse">
<stop stop-color="#CCE0F7"/>
<stop offset="1" stop-color="#639EE2"/>
</linearGradient>
<linearGradient id="paint1_linear" x1="93.6001" y1="27.1789" x2="93.6001" y2="61.9808" gradientUnits="userSpaceOnUse">
<stop stop-color="#63E1BC" stop-opacity="0"/>
<stop offset="0.0001" stop-color="#E987B4"/>
<stop offset="1" stop-color="#639EE2"/>
</linearGradient>
<linearGradient id="paint2_linear" x1="21.2642" y1="31.8629" x2="21.2642" y2="74.3874" gradientUnits="userSpaceOnUse">
<stop stop-color="#8400FF" stop-opacity="0.38"/>
<stop offset="0.9999" stop-color="#5086CD"/>
<stop offset="1" stop-color="#0000FF"/>
</linearGradient>
<linearGradient id="paint3_linear" x1="56.9565" y1="57.8635" x2="56.9565" y2="106.982" gradientUnits="userSpaceOnUse">
<stop stop-color="#A285BC"/>
<stop offset="1" stop-color="#8400FF"/>
</linearGradient>
</defs>
</svg>
