<svg xmlns="http://www.w3.org/2000/svg" viewBox="0 0 808 376.52"><defs><style>.cls-1{fill:#7f7fc6;}.cls-2{fill:#a5a3df;}.cls-3{fill:#e7bbb3;}.cls-4{fill:#4c4b5a;}.cls-5{fill:#c4d0e5;}.cls-6{fill:#aad4c8;}</style></defs><g id="Object"><path class="cls-1" d="M776.83,372.9C880.75,372.9,965,457.15,965,561.07S880.75,749.25,776.83,749.25a187.6,187.6,0,0,1-133-55H478.19a187.67,187.67,0,0,1-133,55.06C241.25,749.26,157,665,157,561.08S241.25,372.9,345.17,372.9a187.56,187.56,0,0,1,131.71,53.88h16.49c0-29.85,30.26-54,67.63-54s67.62,24.19,67.62,54h16.49A187.6,187.6,0,0,1,776.83,372.9ZM940,561.07A163.14,163.14,0,1,0,776.83,724.2,163.15,163.15,0,0,0,940,561.07Zm-431.65,0A163.15,163.15,0,1,0,345.17,724.22,163.15,163.15,0,0,0,508.31,561.08Z" transform="translate(-157 -372.74)"/><path class="cls-2" d="M776.83,397.93A163.14,163.14,0,1,1,613.68,561.07,163.15,163.15,0,0,1,776.83,397.93ZM926.6,561.07a149.79,149.79,0,1,0-149.77,149.8A149.78,149.78,0,0,0,926.6,561.07Z" transform="translate(-157 -372.74)"/><path class="cls-3" d="M776.83,411.28A149.8,149.8,0,1,1,627,561.07,149.78,149.78,0,0,1,776.83,411.28Zm93.91,149.79A93.93,93.93,0,1,0,776.83,655,93.92,93.92,0,0,0,870.74,561.07Z" transform="translate(-157 -372.74)"/><path class="cls-4" d="M776.83,467.15a93.93,93.93,0,1,1-94,93.92A93.92,93.92,0,0,1,776.83,467.15ZM811,561.07a34.17,34.17,0,1,0-34.16,34.16A34.16,34.16,0,0,0,811,561.07Zm-20-72.9a3.8,3.8,0,0,0-.54-3.48,3.86,3.86,0,0,0-3.11-1.6,104.6,104.6,0,0,0-83.94,43.34l-.53,1a3.84,3.84,0,0,0,2.38,4.85l13.33,4.52a3.77,3.77,0,0,0,4.12-1.21,83.47,83.47,0,0,1,60.36-31.35,3.77,3.77,0,0,0,3.34-2.54Z" transform="translate(-157 -372.74)"/><path class="cls-5" d="M776.83,526.93a34.15,34.15,0,1,1-34.18,34.14A34.16,34.16,0,0,1,776.83,526.93Z" transform="translate(-157 -372.74)"/><path class="cls-3" d="M790.45,484.69a3.8,3.8,0,0,1,.54,3.48L786.4,501.7a3.77,3.77,0,0,1-3.34,2.54,83.47,83.47,0,0,0-60.36,31.35,3.77,3.77,0,0,1-4.12,1.21l-13.33-4.52a3.84,3.84,0,0,1-2.38-4.85l.53-1a104.6,104.6,0,0,1,83.94-43.34A3.86,3.86,0,0,1,790.45,484.69Z" transform="translate(-157 -372.74)"/><path class="cls-2" d="M345.17,397.94A163.14,163.14,0,1,1,182,561.08,163.15,163.15,0,0,1,345.17,397.94ZM495,561.08a149.8,149.8,0,1,0-149.79,149.8A149.79,149.79,0,0,0,495,561.08Z" transform="translate(-157 -372.74)"/><path class="cls-3" d="M345.17,411.29a149.8,149.8,0,1,1-149.8,149.79A149.79,149.79,0,0,1,345.17,411.29ZM439.1,561.08A93.94,93.94,0,1,0,345.17,655,93.94,93.94,0,0,0,439.1,561.08Z" transform="translate(-157 -372.74)"/><path class="cls-4" d="M345.17,467.16a93.92,93.92,0,1,1-93.94,93.92A93.94,93.94,0,0,1,345.17,467.16Zm34.14,93.92A34.12,34.12,0,0,0,346.58,527l-.61,0-1.15,0a34.15,34.15,0,0,0-1.41,68.27l.62,0,1.14,0A34.14,34.14,0,0,0,379.31,561.08Zm-20-72.91a3.86,3.86,0,0,0-3.65-5.06,104.6,104.6,0,0,0-84,43.33l-.52,1a3.85,3.85,0,0,0,2.39,4.87l13.31,4.51a3.75,3.75,0,0,0,4.13-1.22,83.61,83.61,0,0,1,60.37-31.35,3.74,3.74,0,0,0,3.33-2.53Z" transform="translate(-157 -372.74)"/><path class="cls-5" d="M346.58,527a34.15,34.15,0,0,1-1.76,68.26H344l-.62,0a34.15,34.15,0,0,1,1.76-68.26h.8Z" transform="translate(-157 -372.74)"/><path class="cls-3" d="M358.8,484.7a3.81,3.81,0,0,1,.55,3.47l-4.6,13.54a3.74,3.74,0,0,1-3.33,2.53,83.61,83.61,0,0,0-60.37,31.35,3.75,3.75,0,0,1-4.13,1.22l-13.31-4.51a3.85,3.85,0,0,1-2.39-4.87l.52-1a104.6,104.6,0,0,1,84-43.33A3.8,3.8,0,0,1,358.8,484.7Z" transform="translate(-157 -372.74)"/><path class="cls-6" d="M346,527h-.8a34.15,34.15,0,0,0-1.76,68.26,34.15,34.15,0,0,1,1.41-68.27Z" transform="translate(-157 -372.74)"/></g><g id="Layer_4" data-name="Layer 4"><path class="cls-3" d="M604.35,443.85v4.74l-2.41-.53c0-.61,0-1.22,0-1.84s0-1.23,0-1.84Z" transform="translate(-157 -372.74)"/><path class="cls-3" d="M601.94,444.38c0,.61,0,1.22,0,1.84s0,1.23,0,1.84l-8.31-1.84Z" transform="translate(-157 -372.74)"/><path class="cls-3" d="M561,398.25a48,48,0,1,1-48,48A48,48,0,0,1,561,398.25Zm43.32,50.34v-4.74l-2.41.53a40.93,40.93,0,0,0-39.07-39.07l.53-2.41h-4.74l.53,2.41a41,41,0,0,0-39.07,39.07l-2.41-.53v4.74l2.41-.53a41,41,0,0,0,39.07,39.07l-.53,2.41h4.74l-.53-2.41a41,41,0,0,0,39.07-39.07Z" transform="translate(-157 -372.74)"/><path class="cls-3" d="M575.63,431.62l-8.45,20.74-20.75,8.46,8.46-20.75Zm-26.12,26.12,16.37-6.67L561,446.22l-4.85-4.85Z" transform="translate(-157 -372.74)"/><path class="cls-3" d="M563.4,402.9l-.53,2.41c-.61,0-1.22,0-1.84,0s-1.23,0-1.84,0l-.53-2.41Z" transform="translate(-157 -372.74)"/><path class="cls-3" d="M562.87,487.13l.53,2.41h-4.74l.53-2.41c.61,0,1.22,0,1.84,0S562.26,487.16,562.87,487.13Z" transform="translate(-157 -372.74)"/><path class="cls-3" d="M561,478.82l1.84,8.31c-.61,0-1.22,0-1.84,0s-1.23,0-1.84,0Z" transform="translate(-157 -372.74)"/><path class="cls-3" d="M562.87,405.31,561,413.62l-1.84-8.31c.61,0,1.22,0,1.84,0S562.26,405.28,562.87,405.31Z" transform="translate(-157 -372.74)"/><path class="cls-3" d="M528.43,446.22l-8.31,1.84c0-.61,0-1.22,0-1.84s0-1.23,0-1.84Z" transform="translate(-157 -372.74)"/><path class="cls-3" d="M517.71,443.85l2.41.53c0,.61,0,1.22,0,1.84s0,1.23,0,1.84l-2.41.53Z" transform="translate(-157 -372.74)"/></g></svg>