<svg width="113" height="278" viewBox="0 0 113 278" fill="none" xmlns="http://www.w3.org/2000/svg">
<path d="M-44.4969 74.1059C-45.492 75.0689 -47.0938 75.0232 -48.127 73.9491C-49.1603 72.8751 -49.1536 71.2636 -48.1566 70.2987L-37.9305 60.376C-36.9334 59.4074 -35.328 59.4569 -34.2966 60.5365C-33.2653 61.6162 -33.2795 63.2313 -34.2765 64.1999L-44.4969 74.1059ZM-63.666 92.6868C-64.6555 93.6443 -66.2573 93.6022 -67.2925 92.5337C-68.3295 91.4671 -68.3266 89.8668 -67.3371 88.9056L-57.1599 79.031C-56.1648 78.0679 -54.563 78.1136 -53.5279 79.1859C-52.4928 80.2581 -52.5013 81.864 -53.4945 82.8252L-63.666 92.6868ZM-82.7429 111.177C-83.7305 112.133 -85.3287 112.091 -86.3676 111.033C-87.4066 109.972 -87.4094 108.381 -86.4236 107.424L-76.2953 97.5972C-75.3077 96.6378 -73.704 96.6817 -72.667 97.7446C-71.6299 98.8113 -71.6328 100.408 -72.6185 101.365L-82.7429 111.177ZM-101.73 129.582C-102.712 130.532 -104.31 130.494 -105.351 129.442C-106.395 128.391 -106.402 126.807 -105.422 125.855L-95.3405 116.075C-94.3566 115.119 -92.7567 115.163 -91.7158 116.218C-90.6768 117.276 -90.6721 118.861 -91.6559 119.817L-101.73 129.582ZM105.448 177.906L-17.6188 48.0535L-25.2375 55.4363C-26.2364 56.4068 -27.8419 56.3572 -28.8713 55.2757C-29.9026 54.1924 -29.8865 52.5717 -28.8876 51.6012L-21.265 44.2072L-57.6855 5.77672C-60.295 3.02322 -64.6657 3.30198 -67.166 5.75144L-158.549 95.3544C-160.991 97.7465 -160.595 101.318 -157.949 103.969L-121.005 140.976L-114.297 134.465C-113.315 133.515 -111.717 133.553 -110.674 134.603C-109.632 135.653 -109.623 137.231 -110.599 138.18L-117.309 144.681L7.5892 269.793C10.0058 272.215 13.5081 272.693 15.889 270.461L104.964 186.913C107.399 184.631 107.828 180.419 105.448 177.906" fill="url(#paint0_linear)" fill-opacity="0.4"/>
<path d="M58.6448 152.962C56.5947 154.906 53.2723 154.746 51.2245 152.602L4.61925 103.836C2.51407 101.638 2.4842 98.239 4.55146 96.252L4.87874 95.9378C6.94976 93.9471 10.3335 94.1279 12.4349 96.3341L58.9866 145.241C61.0326 147.391 61.024 150.709 58.9702 152.653L58.6448 152.962Z" fill="url(#paint1_linear)" fill-opacity="0.4"/>
<path d="M89.8058 185.333C87.6825 187.331 84.2668 187.174 82.1728 184.983L66.8564 168.959C64.742 166.747 64.7534 163.319 66.8862 161.304L66.9125 161.278C69.0453 159.264 72.4888 159.427 74.5994 161.646L89.8949 177.716C91.987 179.913 91.9572 183.311 89.8302 185.309L89.8058 185.333" fill="url(#paint2_linear)" fill-opacity="0.4"/>
<path d="M30.0091 231.022C28.7452 232.212 26.6906 232.127 25.4168 230.831L-47.5422 156.604C-48.8696 155.253 -48.9091 153.166 -47.6319 151.941C-46.3547 150.711 -44.2423 150.814 -42.9169 152.167L29.9926 226.52C31.2663 227.82 31.2729 229.836 30.0091 231.022" fill="url(#paint3_linear)" fill-opacity="0.4"/>
<path d="M21.6305 238.907C20.3704 240.094 18.3157 240.008 17.0419 238.716L-29.7543 191.318C-31.0651 189.992 -31.0974 187.934 -29.8278 186.723C-28.5563 185.511 -26.4644 185.608 -25.1555 186.936L21.6083 234.417C22.8821 235.71 22.8924 237.723 21.6305 238.907Z" fill="url(#paint4_linear)" fill-opacity="0.4"/>
<path d="M12.8906 247.133C11.6343 248.316 9.58146 248.232 8.30203 246.945L-38.5552 199.704C-39.8642 198.383 -39.9022 196.331 -38.6344 195.122C-37.3667 193.913 -35.2767 194.008 -33.9659 195.331L12.8608 242.654C14.1365 243.945 14.1506 245.95 12.8906 247.133" fill="url(#paint5_linear)" fill-opacity="0.4"/>
<defs>
<linearGradient id="paint0_linear" x1="-79.7916" y1="183.51" x2="20.3087" y2="85.1486" gradientUnits="userSpaceOnUse">
<stop stop-color="#384E83"/>
<stop offset="1" stop-color="#463B67"/>
</linearGradient>
<linearGradient id="paint1_linear" x1="26.0698" y1="127.003" x2="34.4655" y2="118.753" gradientUnits="userSpaceOnUse">
<stop stop-color="#384E83"/>
<stop offset="1" stop-color="#463B67"/>
</linearGradient>
<linearGradient id="paint2_linear" x1="73.8172" y1="176.48" x2="81.6316" y2="168.802" gradientUnits="userSpaceOnUse">
<stop stop-color="#384E83"/>
<stop offset="1" stop-color="#463B67"/>
</linearGradient>
<linearGradient id="paint3_linear" x1="-13.2306" y1="191.523" x2="-8.65884" y2="187.03" gradientUnits="userSpaceOnUse">
<stop stop-color="#384E83"/>
<stop offset="1" stop-color="#463B67"/>
</linearGradient>
<linearGradient id="paint4_linear" x1="-7.82623" y1="213.634" x2="-3.24126" y2="209.129" gradientUnits="userSpaceOnUse">
<stop stop-color="#384E83"/>
<stop offset="1" stop-color="#463B67"/>
</linearGradient>
<linearGradient id="paint5_linear" x1="-16.6488" y1="221.997" x2="-11.9622" y2="217.392" gradientUnits="userSpaceOnUse">
<stop stop-color="#384E83"/>
<stop offset="1" stop-color="#463B67"/>
</linearGradient>
</defs>
</svg>
