<svg width="238" height="262" viewBox="0 0 238 262" fill="none" xmlns="http://www.w3.org/2000/svg">
<circle cx="26.1243" cy="247" r="57" fill="url(#paint0_linear)" fill-opacity="0.85"/>
<path d="M171.045 108.423C169.866 107.697 169.513 106.134 170.298 104.867C171.083 103.6 172.646 103.207 173.827 103.934L185.973 111.385C187.159 112.111 187.508 113.678 186.718 114.945C185.927 116.212 184.359 116.598 183.173 115.872L171.045 108.423ZM148.296 94.452C147.123 93.7305 146.767 92.1682 147.546 90.9007C148.323 89.6318 149.874 89.2383 151.05 89.9589L163.138 97.3738C164.317 98.0994 164.669 99.6627 163.887 100.931C163.104 102.199 161.546 102.589 160.369 101.865L148.296 94.452ZM125.657 80.5483C124.487 79.8281 124.132 78.2693 124.899 77.0009C125.67 75.7315 127.21 75.3348 128.382 76.0527L140.411 83.4321C141.585 84.1514 141.94 85.716 141.167 86.984C140.39 88.2529 138.842 88.6455 137.671 87.9276L125.657 80.5483ZM103.123 66.7108C101.96 65.9948 101.601 64.4369 102.362 63.168C103.123 61.8955 104.655 61.4969 105.82 62.2107L117.793 69.556C118.962 70.2725 119.316 71.8335 118.551 73.1033C117.784 74.3717 116.249 74.769 115.079 74.0524L103.123 66.7108ZM107.61 279.402L202.942 128.012L193.903 122.459C192.715 121.731 192.365 120.164 193.158 118.899C193.952 117.631 195.527 117.245 196.714 117.973L205.766 123.527L233.98 78.724C236.001 75.5139 234.649 71.3484 231.657 69.5325L122.215 3.18496C119.292 1.41143 115.93 2.67939 114.016 5.89938L87.3115 50.8568L95.2804 55.744C96.4441 56.4601 96.8028 58.0179 96.0438 59.2882C95.2848 60.5584 93.7581 60.9575 92.5975 60.2464L84.6373 55.3552L-5.64866 207.346C-7.39647 210.287 -6.99258 213.799 -4.24022 215.553L98.7642 281.164C101.578 282.958 105.765 282.33 107.61 279.402" fill="url(#paint1_linear)" fill-opacity="0.4"/>
<path d="M120.188 227.88C117.796 226.375 117.128 223.116 118.698 220.601L154.404 163.371C156.013 160.787 159.298 159.917 161.735 161.428L162.121 161.667C164.562 163.18 165.225 166.503 163.608 169.086L127.752 226.299C126.176 228.813 122.959 229.627 120.567 228.118L120.188 227.88Z" fill="url(#paint2_linear)" fill-opacity="0.4"/>
<path d="M96.541 266.086C94.0798 264.524 93.3858 261.176 94.9903 258.604L106.722 239.797C108.342 237.201 111.666 236.363 114.145 237.93L114.177 237.949C116.657 239.517 117.352 242.893 115.724 245.488L103.942 264.287C102.332 266.858 99.0325 267.67 96.5704 266.104L96.541 266.086" fill="url(#paint3_linear)" fill-opacity="0.4"/>
<path d="M37.4668 219.467C36.0008 218.537 35.5745 216.525 36.515 214.97L90.3621 125.902C91.3422 124.282 93.3548 123.726 94.8584 124.66C96.3655 125.593 96.7894 127.665 95.8071 129.284L41.8252 218.336C40.8811 219.892 38.9292 220.397 37.4668 219.467" fill="url(#paint4_linear)" fill-opacity="0.4"/>
<path d="M27.7527 213.302C26.2912 212.375 25.8649 210.363 26.8017 208.809L61.1347 151.732C62.0953 150.134 64.0807 149.593 65.568 150.523C67.0575 151.455 67.4819 153.506 66.5191 155.103L32.097 212.168C31.1602 213.723 29.2128 214.231 27.7527 213.302Z" fill="url(#paint5_linear)" fill-opacity="0.4"/>
<path d="M17.6187 206.871C16.1617 205.947 15.7341 203.937 16.6641 202.379L50.8308 145.282C51.7863 143.687 53.765 143.142 55.25 144.071C56.735 145 57.1608 147.048 56.2039 148.646L21.9504 205.733C21.0158 207.289 19.0766 207.799 17.6187 206.871" fill="url(#paint6_linear)" fill-opacity="0.4"/>
<path d="M119.807 18.3993C119.041 17.9329 118.828 16.8732 119.33 16.0272C119.833 15.1849 120.863 14.8795 121.632 15.345L141.594 27.4725C142.364 27.9416 142.578 29.0049 142.068 29.849C141.559 30.6909 140.523 30.9958 139.753 30.5267L119.807 18.3993" fill="url(#paint7_linear)" fill-opacity="0.4"/>
<path d="M116.079 25.1362C115.298 24.658 115.202 23.3698 115.875 22.2417C116.548 21.1136 117.721 20.5962 118.505 21.0734L138.403 33.1781C139.189 33.6567 139.284 34.9472 138.602 36.0757C137.923 37.2033 136.741 37.7153 135.957 37.238L116.079 25.1362Z" fill="url(#paint8_linear)" fill-opacity="0.4"/>
<path d="M112.237 31.0862C111.473 30.6212 111.26 29.5615 111.758 28.7223C112.259 27.8844 113.287 27.5813 114.051 28.0463L133.941 40.1681C134.71 40.6358 134.923 41.6956 134.417 42.5365C133.911 43.3739 132.878 43.6743 132.111 43.2043L112.237 31.0862Z" fill="url(#paint9_linear)" fill-opacity="0.4"/>
<path d="M103.505 45.7125C102.744 45.2489 102.53 44.195 103.028 43.3617C103.526 42.5284 104.545 42.2293 105.308 42.6966L125.117 54.8095C125.883 55.2759 126.096 56.332 125.592 57.1648C125.09 57.999 124.062 58.2926 123.3 57.8254L103.505 45.7125Z" fill="url(#paint10_linear)" fill-opacity="0.4"/>
<path d="M108.918 36.6438C108.155 36.1788 107.943 35.1227 108.44 34.2857C108.939 33.4501 109.963 33.1479 110.727 33.6129L130.588 45.7324C131.356 46.2001 131.567 47.2585 131.062 48.0936C130.558 48.9323 129.528 49.2281 128.762 48.7618L108.918 36.6438" fill="url(#paint11_linear)" fill-opacity="0.4"/>
<path d="M106.122 39.7549C105.739 39.5206 105.633 38.9936 105.881 38.577C106.132 38.1581 106.642 38.0074 107.024 38.2417L128.239 51.2015C128.622 51.4358 128.727 51.965 128.478 52.3816C128.226 52.7992 127.711 52.9471 127.327 52.7151L106.122 39.7549Z" fill="url(#paint12_linear)" fill-opacity="0.4"/>
<defs>
<linearGradient id="paint0_linear" x1="22.9682" y1="190" x2="22.9682" y2="304" gradientUnits="userSpaceOnUse">
<stop stop-color="#384E83"/>
<stop offset="1" stop-color="#463B67"/>
</linearGradient>
<linearGradient id="paint1_linear" x1="56.3086" y1="101.32" x2="176.395" y2="173.944" gradientUnits="userSpaceOnUse">
<stop stop-color="#384E83"/>
<stop offset="1" stop-color="#463B67"/>
</linearGradient>
<linearGradient id="paint2_linear" x1="137.271" y1="189.891" x2="147.343" y2="195.982" gradientUnits="userSpaceOnUse">
<stop stop-color="#384E83"/>
<stop offset="1" stop-color="#463B67"/>
</linearGradient>
<linearGradient id="paint3_linear" x1="101.159" y1="248.404" x2="110.533" y2="254.073" gradientUnits="userSpaceOnUse">
<stop stop-color="#384E83"/>
<stop offset="1" stop-color="#463B67"/>
</linearGradient>
<linearGradient id="paint4_linear" x1="65.0282" y1="167.792" x2="70.5128" y2="171.109" gradientUnits="userSpaceOnUse">
<stop stop-color="#384E83"/>
<stop offset="1" stop-color="#463B67"/>
</linearGradient>
<linearGradient id="paint5_linear" x1="44.9442" y1="178.504" x2="50.4446" y2="181.83" gradientUnits="userSpaceOnUse">
<stop stop-color="#384E83"/>
<stop offset="1" stop-color="#463B67"/>
</linearGradient>
<linearGradient id="paint6_linear" x1="34.6562" y1="172.027" x2="40.2785" y2="175.427" gradientUnits="userSpaceOnUse">
<stop stop-color="#384E83"/>
<stop offset="1" stop-color="#463B67"/>
</linearGradient>
<linearGradient id="paint7_linear" x1="119.366" y1="15.9687" x2="142.134" y2="29.7386" gradientUnits="userSpaceOnUse">
<stop stop-color="#384E83"/>
<stop offset="1" stop-color="#463B67"/>
</linearGradient>
<linearGradient id="paint8_linear" x1="115.923" y1="22.1618" x2="138.69" y2="35.9304" gradientUnits="userSpaceOnUse">
<stop stop-color="#384E83"/>
<stop offset="1" stop-color="#463B67"/>
</linearGradient>
<linearGradient id="paint9_linear" x1="111.786" y1="28.677" x2="134.494" y2="42.4101" gradientUnits="userSpaceOnUse">
<stop stop-color="#384E83"/>
<stop offset="1" stop-color="#463B67"/>
</linearGradient>
<linearGradient id="paint10_linear" x1="103.045" y1="43.3343" x2="125.678" y2="57.0223" gradientUnits="userSpaceOnUse">
<stop stop-color="#384E83"/>
<stop offset="1" stop-color="#463B67"/>
</linearGradient>
<linearGradient id="paint11_linear" x1="108.463" y1="34.2471" x2="131.141" y2="47.9624" gradientUnits="userSpaceOnUse">
<stop stop-color="#384E83"/>
<stop offset="1" stop-color="#463B67"/>
</linearGradient>
<linearGradient id="paint12_linear" x1="105.877" y1="38.5844" x2="128.535" y2="52.2875" gradientUnits="userSpaceOnUse">
<stop stop-color="#384E83"/>
<stop offset="1" stop-color="#463B67"/>
</linearGradient>
</defs>
</svg>
