<svg width="759" height="1018" viewBox="0 0 759 1018" fill="none" xmlns="http://www.w3.org/2000/svg">
<path d="M162.551 -48.2501H725.551H758.551L725.551 975.75H162.551V-48.2501Z" fill="url(#paint0_linear)"/>
<circle cx="188.675" cy="960.75" r="57" fill="url(#paint1_linear)" fill-opacity="0.85"/>
<path d="M601.284 -21.8199C600.289 -20.8568 598.687 -20.9026 597.654 -21.9766C596.621 -23.0507 596.627 -24.6622 597.624 -25.6271L607.851 -35.5498C608.848 -36.5184 610.453 -36.4689 611.484 -35.3893C612.516 -34.3096 612.502 -32.6945 611.505 -31.7258L601.284 -21.8199ZM582.115 -3.23902C581.125 -2.28152 579.524 -2.32354 578.489 -3.39204C577.452 -4.45868 577.454 -6.05897 578.444 -7.0202L588.621 -16.8948C589.616 -17.8579 591.218 -17.8121 592.253 -16.7399C593.288 -15.6677 593.28 -14.0618 592.286 -13.1006L582.115 -3.23902ZM563.038 15.2513C562.05 16.207 560.452 16.1649 559.413 15.1076C558.374 14.0465 558.372 12.4555 559.357 11.498L569.486 1.67141C570.473 0.712034 572.077 0.755935 573.114 1.81885C574.151 2.8855 574.148 4.48207 573.162 5.4396L563.038 15.2513ZM544.051 33.6566C543.069 34.6067 541.471 34.5684 540.43 33.5167C539.386 32.4649 539.379 30.8812 540.359 29.9293L550.441 20.1489C551.424 19.1932 553.024 19.2371 554.065 20.2926C555.104 21.3499 555.109 22.9354 554.125 23.891L544.051 33.6566ZM751.229 81.9806L628.162 -47.8722L620.544 -40.4895C619.545 -39.519 617.939 -39.5685 616.91 -40.65C615.878 -41.7334 615.894 -43.3541 616.893 -44.3246L624.516 -51.7185L588.096 -90.1491C585.486 -92.9026 581.115 -92.6238 578.615 -90.1743L487.232 -0.571417C484.79 1.82073 485.186 5.39232 487.832 8.04355L524.776 45.0499L531.484 38.5395C532.466 37.5894 534.064 37.6277 535.107 38.6776C536.149 39.7275 536.158 41.3055 535.182 42.2538L528.472 48.7549L653.37 173.868C655.787 176.289 659.289 176.768 661.67 174.535L750.745 90.987C753.18 88.7049 753.609 84.4934 751.229 81.9806" fill="url(#paint2_linear)" fill-opacity="0.4"/>
<path d="M704.426 57.0357C702.376 58.9799 699.053 58.8203 697.005 56.676L650.4 7.91065C648.295 5.71179 648.265 2.31318 650.332 0.326223L650.66 0.0119913C652.731 -1.97867 656.114 -1.79793 658.216 0.408358L704.768 49.315C706.814 51.4648 706.805 54.7829 704.751 56.7271L704.426 57.0357Z" fill="url(#paint3_linear)" fill-opacity="0.4"/>
<path d="M735.587 89.4072C733.463 91.4049 730.048 91.2481 727.954 89.0568L712.637 73.033C710.523 70.821 710.534 67.3929 712.667 65.3786L712.694 65.3527C714.826 63.3383 718.27 63.5009 720.38 65.7204L735.676 81.7906C737.768 83.9875 737.738 87.3856 735.611 89.3832L735.587 89.4072" fill="url(#paint4_linear)" fill-opacity="0.4"/>
<path d="M675.79 135.096C674.526 136.287 672.472 136.201 671.198 134.905L598.239 60.6785C596.911 59.3277 596.872 57.2402 598.149 56.0148C599.426 54.7856 601.539 54.8881 602.864 56.2408L675.774 130.594C677.047 131.894 677.054 133.91 675.79 135.096" fill="url(#paint5_linear)" fill-opacity="0.4"/>
<path d="M667.412 142.981C666.151 144.168 664.097 144.083 662.823 142.79L616.027 95.3922C614.716 94.0657 614.684 92.0082 615.953 90.7976C617.225 89.5852 619.317 89.6818 620.626 91.0101L667.389 138.492C668.663 139.784 668.673 141.797 667.412 142.981Z" fill="url(#paint6_linear)" fill-opacity="0.4"/>
<path d="M658.672 151.207C657.415 152.39 655.362 152.307 654.083 151.02L607.226 103.778C605.917 102.457 605.879 100.405 607.147 99.1962C608.414 97.9875 610.504 98.0823 611.815 99.405L658.642 146.729C659.917 148.019 659.932 150.024 658.672 151.207" fill="url(#paint7_linear)" fill-opacity="0.4"/>
<path d="M501.376 5.52906C500.735 6.15574 499.655 6.09963 498.96 5.40342C498.268 4.70724 498.227 3.6344 498.869 3.004L515.562 -13.3324C516.207 -13.9628 517.29 -13.9066 517.982 -13.203C518.671 -12.5012 518.71 -11.4228 518.065 -10.7924L501.376 5.52906" fill="url(#paint8_linear)" fill-opacity="0.4"/>
<path d="M506.98 10.8092C506.323 11.447 505.051 11.2213 504.125 10.2899C503.199 9.35856 502.988 8.09397 503.645 7.45251L520.3 -8.82818C520.958 -9.47149 522.232 -9.24397 523.156 -8.30327C524.081 -7.3663 524.284 -6.09432 523.627 -5.45285L506.98 10.8092Z" fill="url(#paint9_linear)" fill-opacity="0.4"/>
<path d="M511.793 16.005C511.154 16.6298 510.074 16.5737 509.384 15.8832C508.697 15.1907 508.658 14.1198 509.297 13.4949L525.967 -2.77443C526.611 -3.40295 527.69 -3.34686 528.38 -2.64883C529.065 -1.95084 529.101 -0.876167 528.456 -0.249525L511.793 16.005Z" fill="url(#paint10_linear)" fill-opacity="0.4"/>
<path d="M523.802 28.0867C523.164 28.7097 522.09 28.6555 521.406 27.9669C520.722 27.2782 520.684 26.2166 521.326 25.5936L537.967 9.40048C538.609 8.77381 539.685 8.82984 540.367 9.52407C541.051 10.2165 541.081 11.2855 540.439 11.9084L523.802 28.0867Z" fill="url(#paint11_linear)" fill-opacity="0.4"/>
<path d="M516.356 20.5963C515.716 21.2211 514.641 21.1651 513.953 20.4764C513.267 19.7858 513.228 18.7186 513.867 18.0938L530.528 1.85229C531.171 1.22377 532.249 1.28172 532.933 1.97784C533.62 2.67399 533.652 3.74488 533.011 4.37155L516.356 20.5963" fill="url(#paint12_linear)" fill-opacity="0.4"/>
<path d="M518.677 24.0765C518.356 24.3889 517.819 24.3619 517.477 24.0175C517.133 23.6713 517.113 23.1396 517.435 22.8272L535.245 5.48219C535.567 5.16979 536.105 5.19874 536.447 5.54307C536.789 5.89113 536.805 6.42658 536.485 6.74086L518.677 24.0765Z" fill="url(#paint13_linear)" fill-opacity="0.4"/>
<path d="M333.596 822.173C332.417 821.447 332.064 819.884 332.849 818.617C333.634 817.35 335.197 816.957 336.378 817.684L348.524 825.134C349.71 825.861 350.059 827.428 349.269 828.695C348.478 829.961 346.91 830.348 345.724 829.622L333.596 822.173ZM310.847 808.202C309.674 807.48 309.318 805.918 310.097 804.651C310.874 803.382 312.425 802.988 313.601 803.709L325.689 811.124C326.868 811.849 327.22 813.413 326.438 814.681C325.655 815.949 324.097 816.339 322.92 815.615L310.847 808.202ZM288.208 794.298C287.038 793.578 286.683 792.019 287.45 790.751C288.221 789.481 289.761 789.085 290.933 789.803L302.962 797.182C304.136 797.901 304.491 799.466 303.718 800.734C302.941 802.003 301.393 802.395 300.222 801.677L288.208 794.298ZM265.675 780.461C264.511 779.745 264.152 778.187 264.913 776.918C265.674 775.645 267.206 775.247 268.371 775.961L280.344 783.306C281.513 784.022 281.867 785.583 281.102 786.853C280.335 788.122 278.8 788.519 277.63 787.802L265.675 780.461ZM270.161 993.152L365.493 841.762L356.454 836.209C355.266 835.481 354.916 833.914 355.709 832.648C356.503 831.381 358.078 830.995 359.265 831.723L368.317 837.277L396.531 792.474C398.552 789.264 397.2 785.098 394.208 783.282L284.766 716.935C281.843 715.161 278.481 716.429 276.568 719.649L249.863 764.607L257.831 769.494C258.995 770.21 259.354 771.768 258.595 773.038C257.836 774.308 256.309 774.707 255.149 773.996L247.188 769.105L156.902 921.096C155.155 924.037 155.558 927.549 158.311 929.303L261.315 994.914C264.129 996.708 268.316 996.08 270.161 993.152" fill="url(#paint14_linear)" fill-opacity="0.4"/>
<path d="M282.739 941.629C280.347 940.125 279.679 936.866 281.249 934.351L316.955 877.121C318.564 874.537 321.849 873.667 324.286 875.177L324.672 875.417C327.113 876.93 327.776 880.253 326.159 882.836L290.303 940.049C288.727 942.563 285.51 943.377 283.118 941.868L282.739 941.629Z" fill="url(#paint15_linear)" fill-opacity="0.4"/>
<path d="M259.092 979.836C256.631 978.274 255.937 974.926 257.541 972.354L269.273 953.547C270.893 950.951 274.217 950.113 276.696 951.68L276.728 951.699C279.208 953.267 279.903 956.643 278.275 959.238L266.494 978.036C264.883 980.607 261.584 981.42 259.121 979.854L259.092 979.836" fill="url(#paint16_linear)" fill-opacity="0.4"/>
<path d="M200.018 933.217C198.552 932.287 198.126 930.275 199.066 928.72L252.913 839.652C253.893 838.031 255.906 837.476 257.409 838.41C258.917 839.343 259.34 841.415 258.358 843.034L204.376 932.086C203.432 933.642 201.48 934.147 200.018 933.217" fill="url(#paint17_linear)" fill-opacity="0.4"/>
<path d="M190.304 927.052C188.842 926.125 188.416 924.113 189.353 922.559L223.686 865.482C224.646 863.884 226.632 863.343 228.119 864.273C229.609 865.205 230.033 867.256 229.07 868.853L194.648 925.918C193.711 927.472 191.764 927.981 190.304 927.052Z" fill="url(#paint18_linear)" fill-opacity="0.4"/>
<path d="M180.17 920.621C178.713 919.697 178.285 917.687 179.215 916.129L213.382 859.032C214.337 857.437 216.316 856.892 217.801 857.821C219.286 858.75 219.712 860.798 218.755 862.396L184.501 919.483C183.567 921.039 181.628 921.549 180.17 920.621" fill="url(#paint19_linear)" fill-opacity="0.4"/>
<path d="M282.358 732.149C281.592 731.683 281.379 730.623 281.881 729.777C282.384 728.935 283.414 728.629 284.183 729.095L304.145 741.222C304.915 741.691 305.129 742.755 304.619 743.599C304.11 744.441 303.074 744.746 302.304 744.277L282.358 732.149" fill="url(#paint20_linear)" fill-opacity="0.4"/>
<path d="M278.63 738.886C277.849 738.408 277.753 737.12 278.426 735.992C279.099 734.864 280.272 734.346 281.056 734.823L300.954 746.928C301.74 747.407 301.835 748.697 301.153 749.826C300.474 750.953 299.292 751.465 298.508 750.988L278.63 738.886Z" fill="url(#paint21_linear)" fill-opacity="0.4"/>
<path d="M274.788 744.836C274.024 744.371 273.811 743.311 274.309 742.472C274.81 741.634 275.838 741.331 276.602 741.796L296.492 753.918C297.261 754.386 297.474 755.445 296.968 756.286C296.462 757.124 295.429 757.424 294.662 756.954L274.788 744.836Z" fill="url(#paint22_linear)" fill-opacity="0.4"/>
<path d="M266.056 759.462C265.295 758.999 265.081 757.945 265.579 757.112C266.077 756.278 267.096 755.979 267.859 756.446L287.668 768.559C288.434 769.026 288.647 770.082 288.143 770.915C287.641 771.749 286.613 772.042 285.851 771.575L266.056 759.462Z" fill="url(#paint23_linear)" fill-opacity="0.4"/>
<path d="M271.47 750.394C270.706 749.929 270.494 748.873 270.991 748.036C271.49 747.2 272.514 746.898 273.278 747.363L293.139 759.482C293.907 759.95 294.118 761.008 293.613 761.843C293.109 762.682 292.079 762.978 291.313 762.512L271.47 750.394" fill="url(#paint24_linear)" fill-opacity="0.4"/>
<path d="M268.673 753.505C268.29 753.27 268.184 752.744 268.432 752.327C268.683 751.908 269.193 751.757 269.575 751.992L290.79 764.951C291.173 765.186 291.278 765.715 291.029 766.131C290.777 766.549 290.262 766.697 289.878 766.465L268.673 753.505Z" fill="url(#paint25_linear)" fill-opacity="0.4"/>
<path d="M118.054 265.856C117.059 266.819 115.457 266.773 114.424 265.699C113.391 264.625 113.397 263.014 114.394 262.049L124.621 252.126C125.618 251.157 127.223 251.207 128.254 252.286C129.286 253.366 129.272 254.981 128.275 255.95L118.054 265.856ZM98.885 284.437C97.8955 285.394 96.2937 285.352 95.2585 284.284C94.2215 283.217 94.2244 281.617 95.2139 280.655L105.391 270.781C106.386 269.818 107.988 269.864 109.023 270.936C110.058 272.008 110.05 273.614 109.057 274.575L98.885 284.437ZM79.8081 302.927C78.8205 303.883 77.2224 303.841 76.1834 302.783C75.1445 301.722 75.1416 300.131 76.1274 299.174L86.2557 289.347C87.2433 288.388 88.847 288.432 89.8841 289.495C90.9211 290.561 90.9183 292.158 89.9325 293.115L79.8081 302.927ZM60.8214 321.332C59.8395 322.282 58.2413 322.244 57.2004 321.192C56.1558 320.141 56.1492 318.557 57.1293 317.605L67.2106 307.825C68.1944 306.869 69.7944 306.913 70.8352 307.968C71.8742 309.026 71.879 310.611 70.8951 311.567L60.8214 321.332ZM267.999 369.656L144.932 239.803L137.314 247.186C136.315 248.157 134.709 248.107 133.68 247.026C132.648 245.942 132.665 244.322 133.663 243.351L141.286 235.957L104.866 197.527C102.256 194.773 97.8854 195.052 95.3851 197.501L4.00193 287.104C1.55995 289.496 1.95577 293.068 4.60162 295.719L41.5456 332.726L48.2539 326.215C49.2358 325.265 50.834 325.303 51.8767 326.353C52.9195 327.403 52.9281 328.981 51.9517 329.93L45.2416 336.431L170.14 461.543C172.557 463.965 176.059 464.443 178.44 462.211L267.515 378.663C269.951 376.381 270.379 372.169 267.999 369.656" fill="url(#paint26_linear)" fill-opacity="0.4"/>
<path d="M221.196 344.711C219.146 346.656 215.823 346.496 213.776 344.352L167.17 295.586C165.065 293.387 165.035 289.989 167.102 288.002L167.43 287.688C169.501 285.697 172.885 285.878 174.986 288.084L221.538 336.991C223.584 339.141 223.575 342.459 221.521 344.403L221.196 344.711Z" fill="url(#paint27_linear)" fill-opacity="0.4"/>
<path d="M252.357 377.083C250.233 379.081 246.818 378.924 244.724 376.732L229.407 360.709C227.293 358.497 227.304 355.069 229.437 353.054L229.464 353.028C231.596 351.014 235.04 351.177 237.15 353.396L252.446 369.466C254.538 371.663 254.508 375.061 252.381 377.059L252.357 377.083" fill="url(#paint28_linear)" fill-opacity="0.4"/>
<path d="M192.56 422.772C191.296 423.962 189.242 423.877 187.968 422.581L115.009 348.354C113.681 347.003 113.642 344.916 114.919 343.69C116.196 342.461 118.309 342.564 119.634 343.916L192.544 418.269C193.817 419.569 193.824 421.586 192.56 422.772" fill="url(#paint29_linear)" fill-opacity="0.4"/>
<path d="M184.182 430.657C182.921 431.843 180.867 431.758 179.593 430.466L132.797 383.068C131.486 381.741 131.454 379.684 132.723 378.473C133.995 377.261 136.087 377.357 137.396 378.686L184.159 426.167C185.433 427.46 185.443 429.473 184.182 430.657Z" fill="url(#paint30_linear)" fill-opacity="0.4"/>
<path d="M175.442 438.883C174.185 440.066 172.132 439.982 170.853 438.695L123.996 391.454C122.687 390.133 122.649 388.081 123.917 386.872C125.184 385.663 127.274 385.758 128.585 387.081L175.412 434.404C176.688 435.695 176.702 437.7 175.442 438.883" fill="url(#paint31_linear)" fill-opacity="0.4"/>
<path d="M18.1461 293.205C17.5046 293.831 16.4251 293.775 15.7299 293.079C15.0384 292.383 14.9974 291.31 15.639 290.68L32.332 274.343C32.9773 273.713 34.0605 273.769 34.7519 274.473C35.4414 275.174 35.4805 276.253 34.8352 276.883L18.1461 293.205" fill="url(#paint32_linear)" fill-opacity="0.4"/>
<path d="M23.75 298.485C23.0934 299.123 21.8215 298.897 20.8952 297.966C19.9689 297.034 19.758 295.77 20.4146 295.128L37.0697 278.848C37.7282 278.204 39.002 278.432 39.9263 279.372C40.8507 280.309 41.054 281.581 40.3975 282.223L23.75 298.485Z" fill="url(#paint33_linear)" fill-opacity="0.4"/>
<path d="M28.5632 303.681C27.9235 304.306 26.8441 304.249 26.1544 303.559C25.4666 302.866 25.4275 301.795 26.0672 301.171L42.7371 284.901C43.3805 284.273 44.46 284.329 45.1496 285.027C45.8355 285.725 45.8708 286.8 45.2256 287.426L28.5632 303.681Z" fill="url(#paint34_linear)" fill-opacity="0.4"/>
<path d="M40.5716 315.762C39.9339 316.385 38.86 316.331 38.1759 315.643C37.4918 314.954 37.4545 313.892 38.096 313.269L54.7373 297.076C55.3789 296.45 56.4546 296.506 57.1367 297.2C57.8208 297.892 57.8506 298.961 57.2091 299.584L40.5716 315.762Z" fill="url(#paint35_linear)" fill-opacity="0.4"/>
<path d="M33.1259 308.272C32.4863 308.897 31.4105 308.841 30.7227 308.152C30.0368 307.462 29.9976 306.394 30.6373 305.769L47.2977 289.528C47.9411 288.899 49.0187 288.957 49.7027 289.654C50.3904 290.35 50.4221 291.421 49.7806 292.047L33.1259 308.272" fill="url(#paint36_linear)" fill-opacity="0.4"/>
<path d="M35.4475 311.752C35.1258 312.065 34.5889 312.038 34.2468 311.693C33.9029 311.347 33.8834 310.815 34.2051 310.503L52.0148 293.158C52.3365 292.845 52.8753 292.874 53.2173 293.219C53.5594 293.567 53.5752 294.102 53.2554 294.417L35.4475 311.752Z" fill="url(#paint37_linear)" fill-opacity="0.4"/>
<defs>
<linearGradient id="paint0_linear" x1="444.051" y1="-48.2501" x2="444.051" y2="975.75" gradientUnits="userSpaceOnUse">
<stop stop-color="#384E83"/>
<stop offset="1" stop-color="#463B67"/>
</linearGradient>
<linearGradient id="paint1_linear" x1="185.519" y1="903.75" x2="185.519" y2="1017.75" gradientUnits="userSpaceOnUse">
<stop stop-color="#384E83"/>
<stop offset="1" stop-color="#463B67"/>
</linearGradient>
<linearGradient id="paint2_linear" x1="565.989" y1="87.5838" x2="666.09" y2="-10.7772" gradientUnits="userSpaceOnUse">
<stop stop-color="#384E83"/>
<stop offset="1" stop-color="#463B67"/>
</linearGradient>
<linearGradient id="paint3_linear" x1="671.851" y1="31.0773" x2="680.246" y2="22.8275" gradientUnits="userSpaceOnUse">
<stop stop-color="#384E83"/>
<stop offset="1" stop-color="#463B67"/>
</linearGradient>
<linearGradient id="paint4_linear" x1="719.598" y1="80.5543" x2="727.413" y2="72.8758" gradientUnits="userSpaceOnUse">
<stop stop-color="#384E83"/>
<stop offset="1" stop-color="#463B67"/>
</linearGradient>
<linearGradient id="paint5_linear" x1="632.55" y1="95.5969" x2="637.122" y2="91.1046" gradientUnits="userSpaceOnUse">
<stop stop-color="#384E83"/>
<stop offset="1" stop-color="#463B67"/>
</linearGradient>
<linearGradient id="paint6_linear" x1="637.955" y1="117.708" x2="642.54" y2="113.203" gradientUnits="userSpaceOnUse">
<stop stop-color="#384E83"/>
<stop offset="1" stop-color="#463B67"/>
</linearGradient>
<linearGradient id="paint7_linear" x1="629.132" y1="126.072" x2="633.819" y2="121.467" gradientUnits="userSpaceOnUse">
<stop stop-color="#384E83"/>
<stop offset="1" stop-color="#463B67"/>
</linearGradient>
<linearGradient id="paint8_linear" x1="498.912" y1="5.35467" x2="517.891" y2="-13.295" gradientUnits="userSpaceOnUse">
<stop stop-color="#384E83"/>
<stop offset="1" stop-color="#463B67"/>
</linearGradient>
<linearGradient id="paint9_linear" x1="504.06" y1="10.2234" x2="523.037" y2="-8.4244" gradientUnits="userSpaceOnUse">
<stop stop-color="#384E83"/>
<stop offset="1" stop-color="#463B67"/>
</linearGradient>
<linearGradient id="paint10_linear" x1="509.347" y1="15.8455" x2="528.276" y2="-2.75426" gradientUnits="userSpaceOnUse">
<stop stop-color="#384E83"/>
<stop offset="1" stop-color="#463B67"/>
</linearGradient>
<linearGradient id="paint11_linear" x1="521.383" y1="27.944" x2="540.25" y2="9.40526" gradientUnits="userSpaceOnUse">
<stop stop-color="#384E83"/>
<stop offset="1" stop-color="#463B67"/>
</linearGradient>
<linearGradient id="paint12_linear" x1="513.921" y1="20.4442" x2="532.825" y2="1.86853" gradientUnits="userSpaceOnUse">
<stop stop-color="#384E83"/>
<stop offset="1" stop-color="#463B67"/>
</linearGradient>
<linearGradient id="paint13_linear" x1="517.483" y1="24.0237" x2="536.37" y2="5.4646" gradientUnits="userSpaceOnUse">
<stop stop-color="#384E83"/>
<stop offset="1" stop-color="#463B67"/>
</linearGradient>
<linearGradient id="paint14_linear" x1="218.86" y1="815.07" x2="338.946" y2="887.694" gradientUnits="userSpaceOnUse">
<stop stop-color="#384E83"/>
<stop offset="1" stop-color="#463B67"/>
</linearGradient>
<linearGradient id="paint15_linear" x1="299.822" y1="903.641" x2="309.894" y2="909.732" gradientUnits="userSpaceOnUse">
<stop stop-color="#384E83"/>
<stop offset="1" stop-color="#463B67"/>
</linearGradient>
<linearGradient id="paint16_linear" x1="263.71" y1="962.153" x2="273.084" y2="967.823" gradientUnits="userSpaceOnUse">
<stop stop-color="#384E83"/>
<stop offset="1" stop-color="#463B67"/>
</linearGradient>
<linearGradient id="paint17_linear" x1="227.579" y1="881.542" x2="233.064" y2="884.859" gradientUnits="userSpaceOnUse">
<stop stop-color="#384E83"/>
<stop offset="1" stop-color="#463B67"/>
</linearGradient>
<linearGradient id="paint18_linear" x1="207.495" y1="892.254" x2="212.996" y2="895.58" gradientUnits="userSpaceOnUse">
<stop stop-color="#384E83"/>
<stop offset="1" stop-color="#463B67"/>
</linearGradient>
<linearGradient id="paint19_linear" x1="197.207" y1="885.777" x2="202.83" y2="889.177" gradientUnits="userSpaceOnUse">
<stop stop-color="#384E83"/>
<stop offset="1" stop-color="#463B67"/>
</linearGradient>
<linearGradient id="paint20_linear" x1="281.917" y1="729.719" x2="304.685" y2="743.489" gradientUnits="userSpaceOnUse">
<stop stop-color="#384E83"/>
<stop offset="1" stop-color="#463B67"/>
</linearGradient>
<linearGradient id="paint21_linear" x1="278.474" y1="735.912" x2="301.241" y2="749.68" gradientUnits="userSpaceOnUse">
<stop stop-color="#384E83"/>
<stop offset="1" stop-color="#463B67"/>
</linearGradient>
<linearGradient id="paint22_linear" x1="274.337" y1="742.427" x2="297.045" y2="756.16" gradientUnits="userSpaceOnUse">
<stop stop-color="#384E83"/>
<stop offset="1" stop-color="#463B67"/>
</linearGradient>
<linearGradient id="paint23_linear" x1="265.596" y1="757.084" x2="288.229" y2="770.772" gradientUnits="userSpaceOnUse">
<stop stop-color="#384E83"/>
<stop offset="1" stop-color="#463B67"/>
</linearGradient>
<linearGradient id="paint24_linear" x1="271.014" y1="747.997" x2="293.692" y2="761.712" gradientUnits="userSpaceOnUse">
<stop stop-color="#384E83"/>
<stop offset="1" stop-color="#463B67"/>
</linearGradient>
<linearGradient id="paint25_linear" x1="268.428" y1="752.334" x2="291.086" y2="766.037" gradientUnits="userSpaceOnUse">
<stop stop-color="#384E83"/>
<stop offset="1" stop-color="#463B67"/>
</linearGradient>
<linearGradient id="paint26_linear" x1="82.7594" y1="375.26" x2="182.86" y2="276.899" gradientUnits="userSpaceOnUse">
<stop stop-color="#384E83"/>
<stop offset="1" stop-color="#463B67"/>
</linearGradient>
<linearGradient id="paint27_linear" x1="188.621" y1="318.753" x2="197.016" y2="310.503" gradientUnits="userSpaceOnUse">
<stop stop-color="#384E83"/>
<stop offset="1" stop-color="#463B67"/>
</linearGradient>
<linearGradient id="paint28_linear" x1="236.368" y1="368.23" x2="244.183" y2="360.551" gradientUnits="userSpaceOnUse">
<stop stop-color="#384E83"/>
<stop offset="1" stop-color="#463B67"/>
</linearGradient>
<linearGradient id="paint29_linear" x1="149.32" y1="383.273" x2="153.892" y2="378.78" gradientUnits="userSpaceOnUse">
<stop stop-color="#384E83"/>
<stop offset="1" stop-color="#463B67"/>
</linearGradient>
<linearGradient id="paint30_linear" x1="154.725" y1="405.384" x2="159.31" y2="400.878" gradientUnits="userSpaceOnUse">
<stop stop-color="#384E83"/>
<stop offset="1" stop-color="#463B67"/>
</linearGradient>
<linearGradient id="paint31_linear" x1="145.902" y1="413.747" x2="150.589" y2="409.142" gradientUnits="userSpaceOnUse">
<stop stop-color="#384E83"/>
<stop offset="1" stop-color="#463B67"/>
</linearGradient>
<linearGradient id="paint32_linear" x1="15.6819" y1="293.03" x2="34.6614" y2="274.381" gradientUnits="userSpaceOnUse">
<stop stop-color="#384E83"/>
<stop offset="1" stop-color="#463B67"/>
</linearGradient>
<linearGradient id="paint33_linear" x1="20.8297" y1="297.899" x2="39.8073" y2="279.251" gradientUnits="userSpaceOnUse">
<stop stop-color="#384E83"/>
<stop offset="1" stop-color="#463B67"/>
</linearGradient>
<linearGradient id="paint34_linear" x1="26.1174" y1="303.521" x2="45.046" y2="284.921" gradientUnits="userSpaceOnUse">
<stop stop-color="#384E83"/>
<stop offset="1" stop-color="#463B67"/>
</linearGradient>
<linearGradient id="paint35_linear" x1="38.1534" y1="315.62" x2="57.02" y2="297.081" gradientUnits="userSpaceOnUse">
<stop stop-color="#384E83"/>
<stop offset="1" stop-color="#463B67"/>
</linearGradient>
<linearGradient id="paint36_linear" x1="30.6911" y1="308.12" x2="49.5953" y2="289.544" gradientUnits="userSpaceOnUse">
<stop stop-color="#384E83"/>
<stop offset="1" stop-color="#463B67"/>
</linearGradient>
<linearGradient id="paint37_linear" x1="34.2529" y1="311.699" x2="53.1402" y2="293.14" gradientUnits="userSpaceOnUse">
<stop stop-color="#384E83"/>
<stop offset="1" stop-color="#463B67"/>
</linearGradient>
</defs>
</svg>
