<svg id="Capa_1" enable-background="new 0 0 512 512" height="512" viewBox="0 0 512 512" width="512" xmlns="http://www.w3.org/2000/svg"><g><g><path d="m256 121c-74.399 0-135 60.601-135 135s60.601 135 135 135 135-60.601 135-135-60.601-135-135-135z" fill="#57d9ad"/></g><path d="m391 256c0 74.399-60.601 135-135 135v-270c74.399 0 135 60.601 135 135z" fill="#26bfa6"/><path d="m451 256c0 107.401-87.599 195-195 195s-195-87.599-195-195 87.599-195 195-195c43.801 0 84.3 14.399 116.7 39l-22.8 22.8 105.899 21-20.998-105.901-19.2 19.2c-43.801-35.099-99.301-57.099-159.601-57.099-140.7 0-256 115.3-256 256s115.3 256 256 256 256-115.3 256-256z" fill="#ffea80"/><path d="m372.7 100-22.8 22.8 105.899 21-20.998-105.901-19.2 19.2c-43.801-35.099-99.301-57.099-159.601-57.099v61c43.801 0 84.3 14.399 116.7 39z" fill="#fc6"/><path d="m512 256h-61c0 107.401-87.599 195-195 195v61c140.7 0 256-115.3 256-256z" fill="#fc6"/><path d="m305.395 215.395-49.395 49.394-15 15-34.395-34.394-21.21 21.21 55.605 55.606 15-15 70.605-70.606z" fill="#f9f5f3"/><path d="m326.605 236.605-21.21-21.21-49.395 49.394v42.422z" fill="#f0dbd8"/></g></svg>