<svg width="6192" height="3827" viewBox="0 0 6192 3827" fill="none" xmlns="http://www.w3.org/2000/svg">
<g id="4332826 1" clip-path="url(#clip0)">
<g id="g10">
<g id="g12">
<path id="path14" d="M6192 3827H0V0H6192V3827Z" fill="#7470FB" fill-opacity="0.8"/>
<path id="path16" d="M5969.76 -3164.36C6014.82 -2433.23 5419.13 -2100.17 4921.74 -1790.54C4565.86 -1568.96 4285.54 -1212.91 4125.23 -800.585C3949.3 -348.113 4036.31 147.058 3863.36 593.492C3667.28 1099.6 3111.37 1205.44 2678.15 1325.76C2226.09 1451.31 1795.42 1617.25 1523.48 2062.16C1189.8 2608.07 1118.84 3439.02 1481.19 3990L6517.34 3985.86V-3164.36H5969.76Z" fill="#7470FB"/>
<path id="path18" d="M5969.76 -3164.36C6014.82 -2433.23 5419.13 -2100.17 4921.74 -1790.54C4565.86 -1568.96 4285.54 -1212.91 4125.23 -800.585C3949.3 -348.113 4036.31 147.058 3863.36 593.492C3667.28 1099.6 3111.37 1205.44 2678.15 1325.76C2226.09 1451.31 1795.42 1617.25 1523.48 2062.16C1189.8 2608.07 1118.84 3439.02 1481.19 3990L6517.34 3985.86V-3164.36H5969.76Z" fill="#7470FB"/>
<path id="path20" d="M6286.52 927.428C6157.56 1032.38 6075.96 1162.27 6056.87 1333.96C6037.07 1511.94 6100.41 1672.22 5991.4 1830.98C5915.55 1941.4 5795.23 1978.24 5684.06 2031.21C5513.75 2112.35 5350.76 2250.98 5297.93 2451.72C5259.56 2597.59 5282.49 2753.03 5231.92 2895.23C5138.94 3156.71 4930.9 3212.11 4693.96 3194.98C4447.4 3177.15 4221.14 3210.33 4020.67 3379.55C3893.03 3487.29 3803.66 3641.14 3686.14 3761.02C3499.83 3951.09 3247.22 4060.41 2993.2 4060.91C2787.41 4061.3 2583.91 3993.37 2378.57 4008.29C2173.22 4023.2 1949.85 4746.3 1928.55 4971.56L7133.7 5194.8L6931.81 813.192C6716.8 735.352 6468.54 779.302 6286.52 927.428Z" fill="#200E17" fill-opacity="0.2"/>
<path id="path22" d="M6286.52 927.428C6157.56 1032.38 6075.96 1162.27 6056.87 1333.96C6037.07 1511.94 6100.41 1672.22 5991.4 1830.98C5915.55 1941.4 5795.23 1978.24 5684.06 2031.21C5513.75 2112.35 5350.76 2250.98 5297.93 2451.72C5259.56 2597.59 5282.49 2753.03 5231.92 2895.23C5138.94 3156.71 4930.9 3212.11 4693.96 3194.98C4447.4 3177.15 4221.14 3210.33 4020.67 3379.55C3893.03 3487.29 3803.66 3641.14 3686.14 3761.02C3499.83 3951.09 3247.22 4060.41 2993.2 4060.91C2787.41 4061.3 2583.91 3993.37 2378.57 4008.29C2173.22 4023.2 1949.85 4746.3 1928.55 4971.56L7133.7 5194.8L6931.81 813.192C6716.8 735.352 6468.54 779.302 6286.52 927.428Z" fill="#200E17" fill-opacity="0.2"/>
<path id="path24" d="M2770.86 3832.81C2681.65 3675.59 2594.29 3515.75 2470.61 3391.37C2292.37 3212.08 2040.81 3180.91 1809.35 3196.98C1598.73 3211.6 1380.55 3241.45 1181.86 3163.31C1006.66 3094.41 862.91 2944.23 773.723 2764.77C619.297 2454.05 669.33 2118.87 627.305 1782.61C571.377 1335.14 196.386 980.5 -224.392 1026.86C-369.372 1042.84 -510.43 1103.19 -655.984 1095.83C-892.841 1083.86 -1096.82 860.817 -1137.63 608.547L-1145.15 4381.46H3288.4C3288.4 4381.46 3288.4 4265.16 3288.4 4264.87C3288.4 4286.24 3099.15 4235.36 3081.07 4226.21C3016.17 4193.4 2965.62 4139.22 2922.09 4078.06C2867.21 4000.99 2818.77 3917.29 2770.86 3832.81Z" fill="#200E17" fill-opacity="0.4"/>
<path id="path26" d="M2770.86 3832.81C2681.65 3675.59 2594.29 3515.75 2470.61 3391.37C2292.37 3212.08 2040.81 3180.91 1809.35 3196.98C1598.73 3211.6 1380.55 3241.45 1181.86 3163.31C1006.66 3094.41 862.91 2944.23 773.723 2764.77C619.297 2454.05 669.33 2118.87 627.305 1782.61C571.377 1335.14 196.386 980.5 -224.392 1026.86C-369.372 1042.84 -510.43 1103.19 -655.984 1095.83C-892.841 1083.86 -1096.82 860.817 -1137.63 608.547L-1145.15 4381.46H3288.4C3288.4 4381.46 3288.4 4265.16 3288.4 4264.87C3288.4 4286.24 3099.15 4235.36 3081.07 4226.21C3016.17 4193.4 2965.62 4139.22 2922.09 4078.06C2867.21 4000.99 2818.77 3917.29 2770.86 3832.81Z" fill="#200E17" fill-opacity="0.4"/>
<path id="path528" d="M2876.7 3894.33C2876.7 3894.33 2731.57 3295.47 2367.15 3153.73C2002.72 3011.99 1372.3 3116.01 1057.8 2848.99C632.1 2487.55 1177.13 1112.67 -87.075 875.25" stroke="#200E17" stroke-opacity="0.4" stroke-width="2.66667" stroke-miterlimit="10"/>
<path id="path530" d="M3673.18 4768.3C3354.32 4768.3 3094.89 4483.26 3094.89 4132.88C3094.89 3782.49 3354.32 3497.45 3673.18 3497.45C3992.07 3497.45 4251.52 3782.49 4251.52 4132.88C4251.52 4483.26 3992.07 4768.3 3673.18 4768.3Z" fill="#200E17" fill-opacity="0.4"/>
<path id="path532" d="M5020.74 518.053L5284.19 344.229C5215.21 217.927 5252.56 53.4372 5367.5 -22.394C5482.47 -98.2608 5632.2 -57.2268 5701.25 69.0287L5964.64 -104.781C5808.35 -390.636 5469.54 -483.512 5209.31 -311.793C4949.12 -140.11 4864.53 232.172 5020.74 518.053V518.053Z" stroke="#EDF5FC" stroke-width="2.66667" stroke-miterlimit="10"/>
<path id="path534" d="M5872.73 2345.81V4436.49" stroke="#200E17" stroke-opacity="0.4" stroke-width="4" stroke-miterlimit="10"/>
<path id="path536" d="M5796.94 2728.51V4819.19" stroke="#EDF5FC" stroke-width="4" stroke-miterlimit="10"/>
<path id="path538" d="M2504.21 953.207V-1137.47" stroke="#200E17" stroke-opacity="0.4" stroke-width="5.33333" stroke-miterlimit="10"/>
<path id="path540" d="M2641.27 570.507V-1520.17" stroke="#EDF5FC" stroke-width="5.33333" stroke-miterlimit="10"/>
<path id="path542" d="M1685.93 2504.57H1678.28V2531.17H1654.07V2539.57H1678.28V2566.17H1685.93V2539.57H1710.14V2531.17H1685.93V2504.57Z" fill="#EDF5FC"/>
<path id="path544" d="M1834.15 2504.57H1826.51V2531.17H1802.3V2539.57H1826.51V2566.17H1834.15V2539.57H1858.37V2531.17H1834.15V2504.57Z" fill="#EDF5FC"/>
<path id="path546" d="M1982.38 2504.57H1974.74V2531.17H1950.53V2539.57H1974.74V2566.17H1982.38V2539.57H2006.6V2531.17H1982.38V2504.57Z" fill="#EDF5FC"/>
<path id="path548" d="M2130.61 2531.17V2504.57H2122.96V2531.17H2098.75V2539.57H2122.96V2566.17H2130.61V2539.57H2154.82V2531.17H2130.61Z" fill="#EDF5FC"/>
<path id="path550" d="M1685.93 2661.49H1678.28V2688.09H1654.07V2696.49H1678.28V2723.1H1685.93V2696.49H1710.14V2688.09H1685.93V2661.49Z" fill="#EDF5FC"/>
<path id="path552" d="M1834.15 2661.49H1826.51V2688.09H1802.3V2696.49H1826.51V2723.1H1834.15V2696.49H1858.37V2688.09H1834.15V2661.49Z" fill="#EDF5FC"/>
<path id="path554" d="M1982.38 2661.49H1974.74V2688.09H1950.53V2696.49H1974.74V2723.1H1982.38V2696.49H2006.6V2688.09H1982.38V2661.49Z" fill="#EDF5FC"/>
<path id="path556" d="M2130.61 2661.49H2122.96V2688.09H2098.75V2696.49H2122.96V2723.1H2130.61V2696.49H2154.82V2688.09H2130.61V2661.49Z" fill="#EDF5FC"/>
<path id="path558" d="M1685.93 2818.41H1678.28V2845.02H1654.07V2853.42H1678.28V2880.02H1685.93V2853.42H1710.14V2845.02H1685.93V2818.41Z" fill="#EDF5FC"/>
<path id="path560" d="M1834.15 2818.41H1826.51V2845.02H1802.3V2853.42H1826.51V2880.02H1834.15V2853.42H1858.37V2845.02H1834.15V2818.41Z" fill="#EDF5FC"/>
<path id="path562" d="M1982.38 2818.41H1974.74V2845.02H1950.53V2853.42H1974.74V2880.02H1982.38V2853.42H2006.6V2845.02H1982.38V2818.41Z" fill="#EDF5FC"/>
<path id="path564" d="M2130.61 2818.41H2122.96V2845.02H2098.75V2853.42H2122.96V2880.02H2130.61V2853.42H2154.82V2845.02H2130.61V2818.41Z" fill="#EDF5FC"/>
<path id="path566" d="M3873.13 871.707C3735.13 871.707 3622.84 995.082 3622.84 1146.73C3622.84 1298.39 3735.13 1421.77 3873.13 1421.77C4011.16 1421.77 4123.45 1298.39 4123.45 1146.73C4123.45 995.082 4011.16 871.707 3873.13 871.707ZM3873.13 1603.94C3643.7 1603.94 3457.04 1398.84 3457.04 1146.74C3457.04 894.64 3643.7 689.542 3873.13 689.542C4102.59 689.542 4289.25 894.64 4289.25 1146.74C4289.25 1398.84 4102.59 1603.94 3873.13 1603.94Z" fill="#EDF5FC"/>
<path id="path568" d="M5604.99 1466.11C5535.84 1466.11 5479.63 1527.91 5479.63 1603.85C5479.63 1679.8 5535.84 1741.59 5604.99 1741.59C5674.1 1741.59 5730.34 1679.8 5730.34 1603.85C5730.34 1527.91 5674.1 1466.11 5604.99 1466.11ZM5604.99 1832.82C5490.08 1832.82 5396.59 1730.11 5396.59 1603.85C5396.59 1477.6 5490.08 1374.89 5604.99 1374.89C5719.89 1374.89 5813.35 1477.6 5813.35 1603.85C5813.35 1730.11 5719.89 1832.82 5604.99 1832.82Z" fill="#200E17" fill-opacity="0.2"/>
<path id="path570" d="M4360.52 2027.9L4481.85 2245.52C4568.28 2187.39 4681.67 2217.33 4734.59 2312.26C4787.55 2407.24 4760.33 2531.86 4673.93 2590.05L4795.25 2807.64C4990.85 2675.95 5052.48 2393.93 4932.64 2178.97C4812.8 1964.05 4556.15 1896.27 4360.52 2027.9Z" fill="#200E17" fill-opacity="0.2"/>
<path id="path572" d="M3176.4 1889.14L2968.77 2003.53C3014.16 2103.07 2977.4 2224.68 2886.82 2274.58C2796.21 2324.5 2685.51 2284.13 2640.06 2184.62L2432.46 2298.99C2535.31 2524.29 2785.82 2615.67 2990.91 2502.68C3195.97 2389.71 3279.18 2114.47 3176.4 1889.14Z" fill="#200E17" fill-opacity="0.7"/>
<path id="path574" d="M3283.6 325.387C3256.22 325.387 3233.96 349.852 3233.96 379.929C3233.96 409.999 3256.22 434.467 3283.6 434.467C3310.95 434.467 3333.23 409.999 3333.23 379.929C3333.23 349.852 3310.95 325.387 3283.6 325.387ZM3283.6 503.36C3221.65 503.36 3171.25 447.989 3171.25 379.929C3171.25 311.869 3221.65 256.48 3283.6 256.48C3345.52 256.48 3395.92 311.869 3395.92 379.929C3395.92 447.989 3345.52 503.36 3283.6 503.36Z" fill="#200E17" fill-opacity="0.2"/>
<path id="path576" d="M5272 780.018C5272 788.42 5265.81 795.23 5258.14 795.23C5250.49 795.23 5244.3 788.42 5244.3 780.018C5244.3 771.62 5250.49 764.809 5258.14 764.809C5265.81 764.809 5272 771.62 5272 780.018Z" fill="#200E17" fill-opacity="0.4"/>
<path id="path578" d="M5365.98 780.018C5365.98 788.42 5359.79 795.23 5352.15 795.23C5344.5 795.23 5338.31 788.42 5338.31 780.018C5338.31 771.62 5344.5 764.809 5352.15 764.809C5359.79 764.809 5365.98 771.62 5365.98 780.018Z" fill="#200E17" fill-opacity="0.4"/>
<path id="path580" d="M5459.99 780.018C5459.99 788.42 5453.8 795.23 5446.15 795.23C5438.51 795.23 5432.29 788.42 5432.29 780.018C5432.29 771.62 5438.51 764.809 5446.15 764.809C5453.8 764.809 5459.99 771.62 5459.99 780.018Z" fill="#200E17" fill-opacity="0.4"/>
<path id="path582" d="M5553.97 780.018C5553.97 788.42 5547.77 795.23 5540.13 795.23C5532.49 795.23 5526.3 788.42 5526.3 780.018C5526.3 771.62 5532.49 764.809 5540.13 764.809C5547.77 764.809 5553.97 771.62 5553.97 780.018Z" fill="#200E17" fill-opacity="0.4"/>
<path id="path584" d="M5647.97 780.018C5647.97 788.42 5641.78 795.23 5634.14 795.23C5626.5 795.23 5620.27 788.42 5620.27 780.018C5620.27 771.62 5626.5 764.809 5634.14 764.809C5641.78 764.809 5647.97 771.62 5647.97 780.018Z" fill="#200E17" fill-opacity="0.4"/>
<path id="path586" d="M5741.98 780.018C5741.98 788.42 5735.76 795.23 5728.12 795.23C5720.47 795.23 5714.28 788.42 5714.28 780.018C5714.28 771.62 5720.47 764.809 5728.12 764.809C5735.76 764.809 5741.98 771.62 5741.98 780.018Z" fill="#200E17" fill-opacity="0.4"/>
<path id="path588" d="M5835.96 780.018C5835.96 788.42 5829.77 795.23 5822.12 795.23C5814.48 795.23 5808.26 788.42 5808.26 780.018C5808.26 771.62 5814.48 764.809 5822.12 764.809C5829.77 764.809 5835.96 771.62 5835.96 780.018Z" fill="#200E17" fill-opacity="0.4"/>
<path id="path590" d="M5272 883.296C5272 891.698 5265.81 898.505 5258.14 898.505C5250.49 898.505 5244.3 891.698 5244.3 883.296C5244.3 874.894 5250.49 868.087 5258.14 868.087C5265.81 868.087 5272 874.894 5272 883.296Z" fill="#200E17" fill-opacity="0.4"/>
<path id="path592" d="M5365.98 883.296C5365.98 891.698 5359.79 898.505 5352.15 898.505C5344.5 898.505 5338.31 891.698 5338.31 883.296C5338.31 874.894 5344.5 868.087 5352.15 868.087C5359.79 868.087 5365.98 874.894 5365.98 883.296Z" fill="#200E17" fill-opacity="0.4"/>
<path id="path594" d="M5459.99 883.296C5459.99 891.698 5453.8 898.505 5446.15 898.505C5438.51 898.505 5432.29 891.698 5432.29 883.296C5432.29 874.894 5438.51 868.087 5446.15 868.087C5453.8 868.087 5459.99 874.894 5459.99 883.296Z" fill="#200E17" fill-opacity="0.4"/>
<path id="path596" d="M5553.97 883.296C5553.97 891.698 5547.77 898.505 5540.13 898.505C5532.49 898.505 5526.3 891.698 5526.3 883.296C5526.3 874.894 5532.49 868.087 5540.13 868.087C5547.77 868.087 5553.97 874.894 5553.97 883.296Z" fill="#200E17" fill-opacity="0.4"/>
<path id="path598" d="M5647.97 883.296C5647.97 891.698 5641.78 898.505 5634.14 898.505C5626.5 898.505 5620.27 891.698 5620.27 883.296C5620.27 874.894 5626.5 868.087 5634.14 868.087C5641.78 868.087 5647.97 874.894 5647.97 883.296Z" fill="#200E17" fill-opacity="0.4"/>
<path id="path600" d="M5741.98 883.296C5741.98 891.698 5735.76 898.505 5728.12 898.505C5720.47 898.505 5714.28 891.698 5714.28 883.296C5714.28 874.894 5720.47 868.087 5728.12 868.087C5735.76 868.087 5741.98 874.894 5741.98 883.296Z" fill="#200E17" fill-opacity="0.4"/>
<path id="path602" d="M5835.96 883.296C5835.96 891.698 5829.77 898.505 5822.12 898.505C5814.48 898.505 5808.26 891.698 5808.26 883.296C5808.26 874.894 5814.48 868.087 5822.12 868.087C5829.77 868.087 5835.96 874.894 5835.96 883.296Z" fill="#200E17" fill-opacity="0.4"/>
<path id="path604" d="M5272 986.572C5272 994.974 5265.81 1001.78 5258.14 1001.78C5250.49 1001.78 5244.3 994.974 5244.3 986.572C5244.3 978.174 5250.49 971.363 5258.14 971.363C5265.81 971.363 5272 978.174 5272 986.572Z" fill="#200E17" fill-opacity="0.4"/>
<path id="path606" d="M5365.98 986.572C5365.98 994.974 5359.79 1001.78 5352.15 1001.78C5344.5 1001.78 5338.31 994.974 5338.31 986.572C5338.31 978.174 5344.5 971.363 5352.15 971.363C5359.79 971.363 5365.98 978.174 5365.98 986.572Z" fill="#200E17" fill-opacity="0.4"/>
<path id="path608" d="M5459.99 986.572C5459.99 994.974 5453.8 1001.78 5446.15 1001.78C5438.51 1001.78 5432.29 994.974 5432.29 986.572C5432.29 978.174 5438.51 971.363 5446.15 971.363C5453.8 971.363 5459.99 978.174 5459.99 986.572Z" fill="#200E17" fill-opacity="0.4"/>
<path id="path610" d="M5553.97 986.572C5553.97 994.974 5547.77 1001.78 5540.13 1001.78C5532.49 1001.78 5526.3 994.974 5526.3 986.572C5526.3 978.174 5532.49 971.363 5540.13 971.363C5547.77 971.363 5553.97 978.174 5553.97 986.572Z" fill="#200E17" fill-opacity="0.4"/>
<path id="path612" d="M5647.97 986.572C5647.97 994.974 5641.78 1001.78 5634.14 1001.78C5626.5 1001.78 5620.27 994.974 5620.27 986.572C5620.27 978.174 5626.5 971.363 5634.14 971.363C5641.78 971.363 5647.97 978.174 5647.97 986.572Z" fill="#200E17" fill-opacity="0.4"/>
<path id="path614" d="M5741.98 986.572C5741.98 994.974 5735.76 1001.78 5728.12 1001.78C5720.47 1001.78 5714.28 994.974 5714.28 986.572C5714.28 978.174 5720.47 971.363 5728.12 971.363C5735.76 971.363 5741.98 978.174 5741.98 986.572Z" fill="#200E17" fill-opacity="0.4"/>
<path id="path616" d="M5835.96 986.572C5835.96 994.974 5829.77 1001.78 5822.12 1001.78C5814.48 1001.78 5808.26 994.974 5808.26 986.572C5808.26 978.174 5814.48 971.363 5822.12 971.363C5829.77 971.363 5835.96 978.174 5835.96 986.572Z" fill="#200E17" fill-opacity="0.4"/>
<path id="path618" d="M5272 1089.85C5272 1098.25 5265.81 1105.06 5258.14 1105.06C5250.49 1105.06 5244.3 1098.25 5244.3 1089.85C5244.3 1081.45 5250.49 1074.64 5258.14 1074.64C5265.81 1074.64 5272 1081.45 5272 1089.85Z" fill="#200E17" fill-opacity="0.4"/>
<path id="path620" d="M5365.98 1089.85C5365.98 1098.25 5359.79 1105.06 5352.15 1105.06C5344.5 1105.06 5338.31 1098.25 5338.31 1089.85C5338.31 1081.45 5344.5 1074.64 5352.15 1074.64C5359.79 1074.64 5365.98 1081.45 5365.98 1089.85Z" fill="#200E17" fill-opacity="0.4"/>
<path id="path622" d="M5459.99 1089.85C5459.99 1098.25 5453.8 1105.06 5446.15 1105.06C5438.51 1105.06 5432.29 1098.25 5432.29 1089.85C5432.29 1081.45 5438.51 1074.64 5446.15 1074.64C5453.8 1074.64 5459.99 1081.45 5459.99 1089.85Z" fill="#200E17" fill-opacity="0.4"/>
<path id="path624" d="M5553.97 1089.85C5553.97 1098.25 5547.77 1105.06 5540.13 1105.06C5532.49 1105.06 5526.3 1098.25 5526.3 1089.85C5526.3 1081.45 5532.49 1074.64 5540.13 1074.64C5547.77 1074.64 5553.97 1081.45 5553.97 1089.85Z" fill="#200E17" fill-opacity="0.4"/>
<path id="path626" d="M5647.97 1089.85C5647.97 1098.25 5641.78 1105.06 5634.14 1105.06C5626.5 1105.06 5620.27 1098.25 5620.27 1089.85C5620.27 1081.45 5626.5 1074.64 5634.14 1074.64C5641.78 1074.64 5647.97 1081.45 5647.97 1089.85Z" fill="#200E17" fill-opacity="0.4"/>
<path id="path628" d="M5741.98 1089.85C5741.98 1098.25 5735.76 1105.06 5728.12 1105.06C5720.47 1105.06 5714.28 1098.25 5714.28 1089.85C5714.28 1081.45 5720.47 1074.64 5728.12 1074.64C5735.76 1074.64 5741.98 1081.45 5741.98 1089.85Z" fill="#200E17" fill-opacity="0.4"/>
<path id="path630" d="M5835.96 1089.85C5835.96 1098.25 5829.77 1105.06 5822.12 1105.06C5814.48 1105.06 5808.26 1098.25 5808.26 1089.85C5808.26 1081.45 5814.48 1074.64 5822.12 1074.64C5829.77 1074.64 5835.96 1081.45 5835.96 1089.85Z" fill="#200E17" fill-opacity="0.4"/>
<path id="path632" d="M5272 1193.13C5272 1201.53 5265.81 1208.34 5258.14 1208.34C5250.49 1208.34 5244.3 1201.53 5244.3 1193.13C5244.3 1184.73 5250.49 1177.92 5258.14 1177.92C5265.81 1177.92 5272 1184.73 5272 1193.13Z" fill="#200E17" fill-opacity="0.4"/>
<path id="path634" d="M5365.98 1193.13C5365.98 1201.53 5359.79 1208.34 5352.15 1208.34C5344.5 1208.34 5338.31 1201.53 5338.31 1193.13C5338.31 1184.73 5344.5 1177.92 5352.15 1177.92C5359.79 1177.92 5365.98 1184.73 5365.98 1193.13Z" fill="#200E17" fill-opacity="0.4"/>
<path id="path636" d="M5459.99 1193.13C5459.99 1201.53 5453.8 1208.34 5446.15 1208.34C5438.51 1208.34 5432.29 1201.53 5432.29 1193.13C5432.29 1184.73 5438.51 1177.92 5446.15 1177.92C5453.8 1177.92 5459.99 1184.73 5459.99 1193.13Z" fill="#200E17" fill-opacity="0.4"/>
<path id="path638" d="M5553.97 1193.13C5553.97 1201.53 5547.77 1208.34 5540.13 1208.34C5532.49 1208.34 5526.3 1201.53 5526.3 1193.13C5526.3 1184.73 5532.49 1177.92 5540.13 1177.92C5547.77 1177.92 5553.97 1184.73 5553.97 1193.13Z" fill="#200E17" fill-opacity="0.4"/>
<path id="path640" d="M5647.97 1193.13C5647.97 1201.53 5641.78 1208.34 5634.14 1208.34C5626.5 1208.34 5620.27 1201.53 5620.27 1193.13C5620.27 1184.73 5626.5 1177.92 5634.14 1177.92C5641.78 1177.92 5647.97 1184.73 5647.97 1193.13Z" fill="#200E17" fill-opacity="0.4"/>
<path id="path642" d="M5741.98 1193.13C5741.98 1201.53 5735.76 1208.34 5728.12 1208.34C5720.47 1208.34 5714.28 1201.53 5714.28 1193.13C5714.28 1184.73 5720.47 1177.92 5728.12 1177.92C5735.76 1177.92 5741.98 1184.73 5741.98 1193.13Z" fill="#200E17" fill-opacity="0.4"/>
<path id="path644" d="M5835.96 1193.13C5835.96 1201.53 5829.77 1208.34 5822.12 1208.34C5814.48 1208.34 5808.26 1201.53 5808.26 1193.13C5808.26 1184.73 5814.48 1177.92 5822.12 1177.92C5829.77 1177.92 5835.96 1184.73 5835.96 1193.13Z" fill="#200E17" fill-opacity="0.4"/>
<path id="path646" d="M3160.5 1378.43C3160.5 1417.57 3131.62 1449.3 3096 1449.3C3060.38 1449.3 3031.5 1417.57 3031.5 1378.43C3031.5 1339.29 3060.38 1307.56 3096 1307.56C3131.62 1307.56 3160.5 1339.29 3160.5 1378.43Z" fill="#200E17" fill-opacity="0.2"/>
<path id="path648" d="M3821.62 3022.62C3821.62 3042.19 3807.18 3058.06 3789.37 3058.06C3771.57 3058.06 3757.12 3042.19 3757.12 3022.62C3757.12 3003.05 3771.57 2987.19 3789.37 2987.19C3807.18 2987.19 3821.62 3003.05 3821.62 3022.62Z" fill="#200E17" fill-opacity="0.4"/>
<path id="path650" d="M4805.25 3251.18C4805.25 3328.48 4748.23 3391.15 4677.86 3391.15C4607.49 3391.15 4550.48 3328.48 4550.48 3251.18C4550.48 3173.88 4607.49 3111.21 4677.86 3111.21C4748.23 3111.21 4805.25 3173.88 4805.25 3251.18Z" fill="#200E17" fill-opacity="0.4"/>
<path id="path652" d="M2918.09 697.904C2911.81 697.904 2906.7 703.525 2906.7 710.427C2906.7 717.334 2911.81 722.95 2918.09 722.95C2924.37 722.95 2929.49 717.334 2929.49 710.427C2929.49 703.525 2924.37 697.904 2918.09 697.904ZM2918.09 729.158C2908.69 729.158 2901.05 720.757 2901.05 710.427C2901.05 700.094 2908.69 691.693 2918.09 691.693C2927.49 691.693 2935.14 700.094 2935.14 710.427C2935.14 720.757 2927.49 729.158 2918.09 729.158Z" fill="#EDF5FC"/>
<path id="path654" d="M3014.65 697.904C3008.37 697.904 3003.26 703.525 3003.26 710.427C3003.26 717.334 3008.37 722.95 3014.65 722.95C3020.93 722.95 3026.04 717.334 3026.04 710.427C3026.04 703.525 3020.93 697.904 3014.65 697.904ZM3014.65 729.158C3005.25 729.158 2997.6 720.757 2997.6 710.427C2997.6 700.094 3005.25 691.693 3014.65 691.693C3024.05 691.693 3031.7 700.094 3031.7 710.427C3031.7 720.757 3024.05 729.158 3014.65 729.158Z" fill="#EDF5FC"/>
<path id="path656" d="M3111.21 697.904C3104.92 697.904 3099.81 703.525 3099.81 710.427C3099.81 717.334 3104.92 722.95 3111.21 722.95C3117.49 722.95 3122.6 717.334 3122.6 710.427C3122.6 703.525 3117.49 697.904 3111.21 697.904ZM3111.21 729.158C3101.81 729.158 3094.16 720.757 3094.16 710.427C3094.16 700.094 3101.81 691.693 3111.21 691.693C3120.6 691.693 3128.25 700.094 3128.25 710.427C3128.25 720.757 3120.6 729.158 3111.21 729.158Z" fill="#EDF5FC"/>
<path id="path658" d="M2918.09 803.997C2911.81 803.997 2906.7 809.614 2906.7 816.516C2906.7 823.419 2911.81 829.039 2918.09 829.039C2924.37 829.039 2929.49 823.419 2929.49 816.516C2929.49 809.614 2924.37 803.997 2918.09 803.997ZM2918.09 835.251C2908.69 835.251 2901.05 826.849 2901.05 816.516C2901.05 806.187 2908.69 797.785 2918.09 797.785C2927.49 797.785 2935.14 806.187 2935.14 816.516C2935.14 826.849 2927.49 835.251 2918.09 835.251Z" fill="#EDF5FC"/>
<path id="path660" d="M3014.65 803.997C3008.37 803.997 3003.26 809.614 3003.26 816.516C3003.26 823.419 3008.37 829.039 3014.65 829.039C3020.93 829.039 3026.04 823.419 3026.04 816.516C3026.04 809.614 3020.93 803.997 3014.65 803.997ZM3014.65 835.251C3005.25 835.251 2997.6 826.849 2997.6 816.516C2997.6 806.187 3005.25 797.785 3014.65 797.785C3024.05 797.785 3031.7 806.187 3031.7 816.516C3031.7 826.849 3024.05 835.251 3014.65 835.251Z" fill="#EDF5FC"/>
<path id="path662" d="M3111.21 803.997C3104.92 803.997 3099.81 809.614 3099.81 816.516C3099.81 823.419 3104.92 829.039 3111.21 829.039C3117.49 829.039 3122.6 823.419 3122.6 816.516C3122.6 809.614 3117.49 803.997 3111.21 803.997ZM3111.21 835.251C3101.81 835.251 3094.16 826.849 3094.16 816.516C3094.16 806.187 3101.81 797.785 3111.21 797.785C3120.6 797.785 3128.25 806.187 3128.25 816.516C3128.25 826.849 3120.6 835.251 3111.21 835.251Z" fill="#EDF5FC"/>
<path id="path664" d="M5430.35 3398.06C5424.1 3398.06 5418.97 3403.68 5418.97 3410.59C5418.97 3417.49 5424.1 3423.11 5430.35 3423.11C5436.64 3423.11 5441.77 3417.49 5441.77 3410.59C5441.77 3403.68 5436.64 3398.06 5430.35 3398.06ZM5430.35 3429.32C5420.97 3429.32 5413.32 3420.92 5413.32 3410.59C5413.32 3400.25 5420.97 3391.85 5430.35 3391.85C5439.77 3391.85 5447.41 3400.25 5447.41 3410.59C5447.41 3420.92 5439.77 3429.32 5430.35 3429.32Z" fill="#EDF5FC"/>
<path id="path666" d="M5526.94 3398.06C5520.65 3398.06 5515.52 3403.68 5515.52 3410.59C5515.52 3417.49 5520.65 3423.11 5526.94 3423.11C5533.2 3423.11 5538.32 3417.49 5538.32 3410.59C5538.32 3403.68 5533.2 3398.06 5526.94 3398.06ZM5526.94 3429.32C5517.52 3429.32 5509.88 3420.92 5509.88 3410.59C5509.88 3400.25 5517.52 3391.85 5526.94 3391.85C5536.32 3391.85 5543.97 3400.25 5543.97 3410.59C5543.97 3420.92 5536.32 3429.32 5526.94 3429.32Z" fill="#EDF5FC"/>
<path id="path668" d="M5623.46 3398.06C5617.21 3398.06 5612.08 3403.68 5612.08 3410.59C5612.08 3417.49 5617.21 3423.11 5623.46 3423.11C5629.75 3423.11 5634.88 3417.49 5634.88 3410.59C5634.88 3403.68 5629.75 3398.06 5623.46 3398.06ZM5623.46 3429.32C5614.08 3429.32 5606.44 3420.92 5606.44 3410.59C5606.44 3400.25 5614.08 3391.85 5623.46 3391.85C5632.88 3391.85 5640.52 3400.25 5640.52 3410.59C5640.52 3420.92 5632.88 3429.32 5623.46 3429.32Z" fill="#EDF5FC"/>
<path id="path670" d="M5430.35 3504.16C5424.1 3504.16 5418.97 3509.77 5418.97 3516.68C5418.97 3523.58 5424.1 3529.2 5430.35 3529.2C5436.64 3529.2 5441.77 3523.58 5441.77 3516.68C5441.77 3509.77 5436.64 3504.16 5430.35 3504.16ZM5430.35 3535.41C5420.97 3535.41 5413.32 3527.01 5413.32 3516.68C5413.32 3506.35 5420.97 3497.95 5430.35 3497.95C5439.77 3497.95 5447.41 3506.35 5447.41 3516.68C5447.41 3527.01 5439.77 3535.41 5430.35 3535.41Z" fill="#EDF5FC"/>
<path id="path672" d="M5526.94 3504.16C5520.65 3504.16 5515.52 3509.77 5515.52 3516.68C5515.52 3523.58 5520.65 3529.2 5526.94 3529.2C5533.2 3529.2 5538.32 3523.58 5538.32 3516.68C5538.32 3509.77 5533.2 3504.16 5526.94 3504.16ZM5526.94 3535.41C5517.52 3535.41 5509.88 3527.01 5509.88 3516.68C5509.88 3506.35 5517.52 3497.95 5526.94 3497.95C5536.32 3497.95 5543.97 3506.35 5543.97 3516.68C5543.97 3527.01 5536.32 3535.41 5526.94 3535.41Z" fill="#EDF5FC"/>
<path id="path674" d="M5623.46 3504.16C5617.21 3504.16 5612.08 3509.77 5612.08 3516.68C5612.08 3523.58 5617.21 3529.2 5623.46 3529.2C5629.75 3529.2 5634.88 3523.58 5634.88 3516.68C5634.88 3509.77 5629.75 3504.16 5623.46 3504.16ZM5623.46 3535.41C5614.08 3535.41 5606.44 3527.01 5606.44 3516.68C5606.44 3506.35 5614.08 3497.95 5623.46 3497.95C5632.88 3497.95 5640.52 3506.35 5640.52 3516.68C5640.52 3527.01 5632.88 3535.41 5623.46 3535.41Z" fill="#EDF5FC"/>
<path id="path676" d="M1464.15 1800.11L1431.9 1835.54L1399.65 1800.11L1431.9 1764.67L1464.15 1800.11Z" fill="#EDF5FC"/>
<path id="path678" d="M4392.45 864.619L4360.2 900.055L4327.95 864.619L4360.2 829.184L4392.45 864.619Z" fill="#200E17" fill-opacity="0.4"/>
<path id="path680" d="M1609.27 2072.96L1522.2 2168.63L1435.12 2072.96L1522.2 1977.28L1609.27 2072.96Z" fill="#200E17" fill-opacity="0.4"/>
</g>
</g>
</g>
<defs>
<clipPath id="clip0">
<rect width="6192" height="3827" fill="white"/>
</clipPath>
</defs>
</svg>
