<svg width="276" height="230" viewBox="0 0 276 230" fill="none" xmlns="http://www.w3.org/2000/svg">
<path d="M118.733 26.4302C117.738 27.3933 116.136 27.3476 115.103 26.2735C114.07 25.1994 114.076 23.5879 115.073 22.623L125.3 12.7003C126.297 11.7317 127.902 11.7812 128.933 12.8609C129.965 13.9405 129.951 15.5557 128.954 16.5243L118.733 26.4302ZM99.564 45.0111C98.5745 45.9686 96.9727 45.9266 95.9375 44.8581C94.9005 43.7914 94.9034 42.1912 95.8929 41.2299L106.07 31.3553C107.065 30.3923 108.667 30.438 109.702 31.5102C110.737 32.5824 110.729 34.1883 109.736 35.1495L99.564 45.0111ZM80.4871 63.5014C79.4995 64.4571 77.9013 64.4151 76.8624 63.3577C75.8234 62.2967 75.8206 60.7056 76.8064 59.7481L86.9347 49.9215C87.9223 48.9622 89.526 49.0061 90.563 50.069C91.6001 51.1356 91.5972 52.7322 90.6115 53.6897L80.4871 63.5014ZM61.5004 81.9067C60.5184 82.8568 58.9203 82.8185 57.8794 81.7668C56.8348 80.715 56.8282 79.1314 57.8083 78.1794L67.8896 68.399C68.8734 67.4434 70.4734 67.4872 71.5142 68.5427C72.5532 69.6 72.5579 71.1855 71.5741 72.1412L61.5004 81.9067ZM268.678 130.231L145.611 0.377876L137.993 7.76064C136.994 8.73111 135.388 8.68159 134.359 7.60009C133.327 6.5167 133.344 4.89601 134.342 3.92554L141.965 -3.46842L105.545 -41.8989C102.935 -44.6524 98.5643 -44.3737 96.064 -41.9242L4.68091 47.6787C2.23893 50.0709 2.63476 53.6424 5.2806 56.2937L42.2246 93.3001L48.9329 86.7896C49.9148 85.8395 51.5129 85.8778 52.5557 86.9277C53.5985 87.9776 53.607 89.5557 52.6307 90.504L45.9206 97.005L170.819 222.118C173.236 224.539 176.738 225.018 179.119 222.785L268.194 139.237C270.629 136.955 271.058 132.743 268.678 130.231" fill="url(#paint0_linear)" fill-opacity="0.4"/>
<path d="M221.875 105.286C219.825 107.23 216.502 107.07 214.454 104.926L167.849 56.1608C165.744 53.9619 165.714 50.5633 167.781 48.5763L168.109 48.2621C170.18 46.2715 173.563 46.4522 175.665 48.6585L222.217 97.5651C224.263 99.715 224.254 103.033 222.2 104.977L221.875 105.286Z" fill="url(#paint1_linear)" fill-opacity="0.4"/>
<path d="M253.036 137.657C250.912 139.655 247.497 139.498 245.403 137.307L230.086 121.283C227.972 119.071 227.983 115.643 230.116 113.629L230.143 113.603C232.275 111.588 235.719 111.751 237.829 113.97L253.125 130.041C255.217 132.238 255.187 135.636 253.06 137.633L253.036 137.657" fill="url(#paint2_linear)" fill-opacity="0.4"/>
<path d="M193.239 183.347C191.975 184.537 189.921 184.452 188.647 183.155L115.688 108.929C114.36 107.578 114.321 105.49 115.598 104.265C116.875 103.036 118.988 103.138 120.313 104.491L193.223 178.844C194.496 180.144 194.503 182.16 193.239 183.347" fill="url(#paint3_linear)" fill-opacity="0.4"/>
<path d="M184.861 191.232C183.6 192.418 181.546 192.333 180.272 191.04L133.476 143.642C132.165 142.316 132.133 140.258 133.402 139.048C134.674 137.835 136.766 137.932 138.075 139.26L184.838 186.742C186.112 188.034 186.122 190.047 184.861 191.232Z" fill="url(#paint4_linear)" fill-opacity="0.4"/>
<path d="M176.121 199.457C174.864 200.64 172.811 200.557 171.532 199.27L124.675 152.028C123.366 150.707 123.328 148.655 124.596 147.446C125.863 146.238 127.953 146.332 129.264 147.655L176.091 194.979C177.366 196.269 177.381 198.275 176.121 199.457" fill="url(#paint5_linear)" fill-opacity="0.4"/>
<path d="M18.8251 53.7792C18.1835 54.4059 17.1041 54.3498 16.4089 53.6535C15.7174 52.9574 15.6764 51.8845 16.318 51.2541L33.011 34.9177C33.6563 34.2874 34.7394 34.3435 35.4309 35.0471C36.1204 35.7489 36.1595 36.8273 35.5142 37.4577L18.8251 53.7792" fill="url(#paint6_linear)" fill-opacity="0.4"/>
<path d="M24.4289 59.0594C23.7724 59.6971 22.5005 59.4715 21.5742 58.5401C20.6479 57.6087 20.437 56.3441 21.0936 55.7026L37.7487 39.4219C38.4072 38.7786 39.6809 39.0062 40.6053 39.9469C41.5297 40.8838 41.733 42.1558 41.0765 42.7973L24.4289 59.0594Z" fill="url(#paint7_linear)" fill-opacity="0.4"/>
<path d="M29.2422 64.2551C28.6025 64.8799 27.5231 64.8239 26.8334 64.1333C26.1456 63.4409 26.1065 62.3699 26.7462 61.7451L43.4161 45.4757C44.0595 44.8472 45.139 44.9033 45.8286 45.6013C46.5144 46.2993 46.5498 47.374 45.9045 48.0006L29.2422 64.2551Z" fill="url(#paint8_linear)" fill-opacity="0.4"/>
<path d="M41.2506 76.3368C40.6129 76.9598 39.539 76.9056 38.8549 76.217C38.1708 75.5283 38.1335 74.4667 38.775 73.8437L55.4163 57.6506C56.0578 57.0239 57.1335 57.08 57.8157 57.7742C58.4998 58.4666 58.5296 59.5356 57.8881 60.1585L41.2506 76.3368Z" fill="url(#paint9_linear)" fill-opacity="0.4"/>
<path d="M33.8049 68.8464C33.1653 69.4712 32.0895 69.4152 31.4017 68.7265C30.7158 68.036 30.6766 66.9687 31.3162 66.3439L47.9767 50.1024C48.6201 49.4739 49.6977 49.5318 50.3817 50.228C51.0694 50.9241 51.1011 51.995 50.4596 52.6217L33.8049 68.8464" fill="url(#paint10_linear)" fill-opacity="0.4"/>
<path d="M36.1265 72.3267C35.8048 72.6391 35.2679 72.612 34.9258 72.2677C34.5819 71.9214 34.5624 71.3897 34.8841 71.0773L52.6938 53.7323C53.0155 53.4199 53.5543 53.4489 53.8963 53.7932C54.2383 54.1412 54.2542 54.6767 53.9343 54.991L36.1265 72.3267Z" fill="url(#paint11_linear)" fill-opacity="0.4"/>
<defs>
<linearGradient id="paint0_linear" x1="83.4384" y1="135.834" x2="183.539" y2="37.473" gradientUnits="userSpaceOnUse">
<stop stop-color="#384E83"/>
<stop offset="1" stop-color="#463B67"/>
</linearGradient>
<linearGradient id="paint1_linear" x1="189.3" y1="79.3275" x2="197.695" y2="71.0776" gradientUnits="userSpaceOnUse">
<stop stop-color="#384E83"/>
<stop offset="1" stop-color="#463B67"/>
</linearGradient>
<linearGradient id="paint2_linear" x1="237.047" y1="128.804" x2="244.862" y2="121.126" gradientUnits="userSpaceOnUse">
<stop stop-color="#384E83"/>
<stop offset="1" stop-color="#463B67"/>
</linearGradient>
<linearGradient id="paint3_linear" x1="149.999" y1="143.847" x2="154.571" y2="139.355" gradientUnits="userSpaceOnUse">
<stop stop-color="#384E83"/>
<stop offset="1" stop-color="#463B67"/>
</linearGradient>
<linearGradient id="paint4_linear" x1="155.404" y1="165.958" x2="159.989" y2="161.453" gradientUnits="userSpaceOnUse">
<stop stop-color="#384E83"/>
<stop offset="1" stop-color="#463B67"/>
</linearGradient>
<linearGradient id="paint5_linear" x1="146.581" y1="174.322" x2="151.268" y2="169.717" gradientUnits="userSpaceOnUse">
<stop stop-color="#384E83"/>
<stop offset="1" stop-color="#463B67"/>
</linearGradient>
<linearGradient id="paint6_linear" x1="16.3609" y1="53.6048" x2="35.3404" y2="34.9551" gradientUnits="userSpaceOnUse">
<stop stop-color="#384E83"/>
<stop offset="1" stop-color="#463B67"/>
</linearGradient>
<linearGradient id="paint7_linear" x1="21.5087" y1="58.4735" x2="40.4863" y2="39.8257" gradientUnits="userSpaceOnUse">
<stop stop-color="#384E83"/>
<stop offset="1" stop-color="#463B67"/>
</linearGradient>
<linearGradient id="paint8_linear" x1="26.7963" y1="64.0956" x2="45.725" y2="45.4959" gradientUnits="userSpaceOnUse">
<stop stop-color="#384E83"/>
<stop offset="1" stop-color="#463B67"/>
</linearGradient>
<linearGradient id="paint9_linear" x1="38.8324" y1="76.1941" x2="57.699" y2="57.6554" gradientUnits="userSpaceOnUse">
<stop stop-color="#384E83"/>
<stop offset="1" stop-color="#463B67"/>
</linearGradient>
<linearGradient id="paint10_linear" x1="31.3701" y1="68.6944" x2="50.2743" y2="50.1186" gradientUnits="userSpaceOnUse">
<stop stop-color="#384E83"/>
<stop offset="1" stop-color="#463B67"/>
</linearGradient>
<linearGradient id="paint11_linear" x1="34.9319" y1="72.2739" x2="53.8192" y2="53.7147" gradientUnits="userSpaceOnUse">
<stop stop-color="#384E83"/>
<stop offset="1" stop-color="#463B67"/>
</linearGradient>
</defs>
</svg>
