<svg width="605" height="1034" viewBox="0 0 605 1034" fill="none" xmlns="http://www.w3.org/2000/svg">
<g filter="url(#filter0_d)">
<path d="M4.55103 0.749878H567.551H600.551L567.551 1024.75H4.55103V0.749878Z" fill="url(#paint0_linear)"/>
<ellipse cx="46.5" cy="989" rx="41.5" ry="36" fill="url(#paint1_linear)" fill-opacity="0.85"/>
<path d="M429.054 74.1801C428.059 75.1432 426.457 75.0974 425.424 74.0234C424.391 72.9493 424.397 71.3378 425.394 70.3729L435.621 60.4502C436.618 59.4816 438.223 59.5311 439.254 60.6107C440.286 61.6904 440.272 63.3055 439.275 64.2742L429.054 74.1801ZM409.885 92.761C408.896 93.7185 407.294 93.6765 406.259 92.608C405.222 91.5413 405.224 89.941 406.214 88.9798L416.391 79.1052C417.386 78.1421 418.988 78.1879 420.023 79.2601C421.058 80.3323 421.05 81.9382 420.057 82.8994L409.885 92.761ZM390.808 111.251C389.82 112.207 388.222 112.165 387.183 111.108C386.144 110.047 386.142 108.456 387.127 107.498L397.256 97.6714C398.243 96.712 399.847 96.7559 400.884 97.8189C401.921 98.8855 401.918 100.482 400.933 101.44L390.808 111.251ZM371.821 129.657C370.839 130.607 369.241 130.568 368.2 129.517C367.156 128.465 367.149 126.881 368.129 125.929L378.211 116.149C379.194 115.193 380.794 115.237 381.835 116.293C382.874 117.35 382.879 118.935 381.895 119.891L371.821 129.657ZM578.999 177.981L455.932 48.1278L448.314 55.5105C447.315 56.481 445.709 56.4315 444.68 55.35C443.648 54.2666 443.665 52.6459 444.663 51.6754L452.286 44.2815L415.866 5.85094C413.256 3.09744 408.885 3.37619 406.385 5.82566L315.002 95.4286C312.56 97.8207 312.956 101.392 315.602 104.044L352.546 141.05L359.254 134.54C360.236 133.589 361.834 133.628 362.877 134.678C363.919 135.728 363.928 137.306 362.952 138.254L356.242 144.755L481.14 269.868C483.557 272.289 487.059 272.768 489.44 270.535L578.515 186.987C580.951 184.705 581.379 180.493 578.999 177.981" fill="url(#paint2_linear)" fill-opacity="0.4"/>
<path d="M532.196 153.036C530.146 154.98 526.823 154.82 524.775 152.676L478.17 103.911C476.065 101.712 476.035 98.3132 478.102 96.3262L478.43 96.012C480.501 94.0213 483.884 94.2021 485.986 96.4084L532.538 145.315C534.584 147.465 534.575 150.783 532.521 152.727L532.196 153.036Z" fill="url(#paint3_linear)" fill-opacity="0.4"/>
<path d="M563.357 185.407C561.233 187.405 557.818 187.248 555.724 185.057L540.407 169.033C538.293 166.821 538.304 163.393 540.437 161.379L540.464 161.353C542.596 159.338 546.04 159.501 548.15 161.72L563.446 177.791C565.538 179.987 565.508 183.386 563.381 185.383L563.357 185.407" fill="url(#paint4_linear)" fill-opacity="0.4"/>
<path d="M503.56 231.096C502.296 232.287 500.242 232.201 498.968 230.905L426.009 156.679C424.681 155.328 424.642 153.24 425.919 152.015C427.196 150.786 429.309 150.888 430.634 152.241L503.544 226.594C504.817 227.894 504.824 229.91 503.56 231.096" fill="url(#paint5_linear)" fill-opacity="0.4"/>
<path d="M495.182 238.981C493.921 240.168 491.867 240.083 490.593 238.79L443.797 191.392C442.486 190.066 442.454 188.008 443.723 186.798C444.995 185.585 447.087 185.682 448.396 187.01L495.159 234.492C496.433 235.784 496.443 237.797 495.182 238.981Z" fill="url(#paint6_linear)" fill-opacity="0.4"/>
<path d="M486.442 247.207C485.185 248.39 483.132 248.307 481.853 247.02L434.996 199.778C433.687 198.457 433.649 196.405 434.917 195.196C436.184 193.988 438.274 194.082 439.585 195.405L486.412 242.729C487.688 244.019 487.702 246.024 486.442 247.207" fill="url(#paint7_linear)" fill-opacity="0.4"/>
<path d="M329.146 101.529C328.505 102.156 327.425 102.1 326.73 101.403C326.038 100.707 325.997 99.6344 326.639 99.004L343.332 82.6676C343.977 82.0372 345.06 82.0934 345.752 82.797C346.441 83.4988 346.48 84.5772 345.835 85.2076L329.146 101.529" fill="url(#paint8_linear)" fill-opacity="0.4"/>
<path d="M334.75 106.809C334.093 107.447 332.821 107.221 331.895 106.29C330.969 105.359 330.758 104.094 331.415 103.453L348.07 87.1718C348.728 86.5285 350.002 86.756 350.926 87.6967C351.851 88.6337 352.054 89.9057 351.397 90.5471L334.75 106.809Z" fill="url(#paint9_linear)" fill-opacity="0.4"/>
<path d="M339.563 112.005C338.924 112.63 337.844 112.574 337.154 111.883C336.467 111.191 336.428 110.12 337.067 109.495L353.737 93.2256C354.381 92.597 355.46 92.6531 356.15 93.3512C356.835 94.0492 356.871 95.1238 356.226 95.7505L339.563 112.005Z" fill="url(#paint10_linear)" fill-opacity="0.4"/>
<path d="M351.572 124.087C350.934 124.71 349.86 124.656 349.176 123.967C348.492 123.278 348.455 122.217 349.096 121.594L365.737 105.4C366.379 104.774 367.455 104.83 368.137 105.524C368.821 106.216 368.851 107.285 368.209 107.908L351.572 124.087Z" fill="url(#paint11_linear)" fill-opacity="0.4"/>
<path d="M344.126 116.596C343.486 117.221 342.411 117.165 341.723 116.476C341.037 115.786 340.998 114.719 341.637 114.094L358.298 97.8523C358.941 97.2238 360.019 97.2817 360.703 97.9778C361.39 98.674 361.422 99.7449 360.781 100.372L344.126 116.596" fill="url(#paint12_linear)" fill-opacity="0.4"/>
<path d="M346.448 120.077C346.126 120.389 345.589 120.362 345.247 120.018C344.903 119.671 344.883 119.14 345.205 118.827L363.015 101.482C363.337 101.17 363.875 101.199 364.217 101.543C364.559 101.891 364.575 102.427 364.255 102.741L346.448 120.077Z" fill="url(#paint13_linear)" fill-opacity="0.4"/>
<path d="M187.005 847.141C185.825 846.416 185.473 844.852 186.258 843.585C187.042 842.318 188.605 841.926 189.787 842.653L201.933 850.103C203.119 850.829 203.468 852.397 202.678 853.663C201.887 854.93 200.319 855.316 199.133 854.59L187.005 847.141ZM164.256 833.171C163.083 832.449 162.727 830.887 163.506 829.619C164.282 828.35 165.834 827.957 167.01 828.677L179.097 836.092C180.277 836.818 180.629 838.381 179.847 839.65C179.064 840.918 177.506 841.307 176.329 840.583L164.256 833.171ZM141.617 819.267C140.447 818.547 140.092 816.988 140.859 815.719C141.629 814.45 143.17 814.053 144.342 814.771L156.371 822.151C157.545 822.87 157.899 824.435 157.126 825.703C156.35 826.971 154.802 827.364 153.63 826.646L141.617 819.267ZM119.083 805.429C117.92 804.713 117.561 803.155 118.322 801.887C119.082 800.614 120.615 800.215 121.78 800.929L133.752 808.274C134.922 808.991 135.276 810.552 134.511 811.822C133.744 813.09 132.209 813.487 131.039 812.771L119.083 805.429ZM123.57 1018.12L218.902 866.731L209.862 861.177C208.675 860.45 208.325 858.882 209.118 857.617C209.912 856.35 211.486 855.964 212.674 856.691L221.725 862.245L249.94 817.443C251.961 814.232 250.609 810.067 247.616 808.251L138.174 741.903C135.252 740.13 131.89 741.398 129.976 744.618L103.271 789.575L111.24 794.462C112.404 795.179 112.763 796.736 112.004 798.007C111.245 799.277 109.718 799.676 108.557 798.965L100.597 794.074L10.3111 946.065C8.56329 949.006 8.96719 952.518 11.7195 954.272L114.724 1019.88C117.538 1021.68 121.725 1021.05 123.57 1018.12" fill="url(#paint14_linear)" fill-opacity="0.4"/>
<path d="M136.147 966.598C133.756 965.093 133.088 961.835 134.658 959.32L170.363 902.09C171.972 899.506 175.258 898.635 177.695 900.146L178.08 900.385C180.522 901.899 181.185 905.222 179.567 907.804L143.712 965.017C142.136 967.532 138.919 968.345 136.527 966.837L136.147 966.598Z" fill="url(#paint15_linear)" fill-opacity="0.4"/>
<path d="M112.501 1004.8C110.04 1003.24 109.346 999.894 110.95 997.323L122.682 978.515C124.301 975.919 127.625 975.081 130.105 976.649L130.137 976.668C132.617 978.235 133.312 981.612 131.684 984.206L119.902 1003.01C118.292 1005.58 114.992 1006.39 112.53 1004.82L112.501 1004.8" fill="url(#paint16_linear)" fill-opacity="0.4"/>
<path d="M53.4266 958.185C51.9606 957.255 51.5343 955.244 52.4747 953.689L106.322 864.621C107.302 863 109.315 862.445 110.818 863.379C112.325 864.312 112.749 866.384 111.767 868.003L57.7849 957.054C56.8409 958.61 54.889 959.116 53.4266 958.185" fill="url(#paint17_linear)" fill-opacity="0.4"/>
<path d="M43.7124 952.02C42.2509 951.093 41.8246 949.081 42.7615 947.527L77.0945 890.451C78.055 888.852 80.0405 888.312 81.5277 889.242C83.0173 890.174 83.4417 892.224 82.4789 893.821L48.0568 950.887C47.1199 952.441 45.1725 952.949 43.7124 952.02Z" fill="url(#paint18_linear)" fill-opacity="0.4"/>
<path d="M33.5785 945.59C32.1215 944.665 31.6938 942.656 32.6239 941.097L66.7905 884.001C67.7461 882.405 69.7248 881.861 71.2098 882.789C72.6948 883.718 73.1206 885.767 72.1636 887.364L37.9102 944.452C36.9756 946.007 35.0364 946.517 33.5785 945.59" fill="url(#paint19_linear)" fill-opacity="0.4"/>
<path d="M135.767 757.118C135.001 756.651 134.788 755.592 135.29 754.746C135.793 753.903 136.822 753.598 137.592 754.063L157.554 766.191C158.324 766.66 158.538 767.723 158.027 768.568C157.518 769.409 156.483 769.714 155.713 769.245L135.767 757.118" fill="url(#paint20_linear)" fill-opacity="0.4"/>
<path d="M132.039 763.855C131.258 763.377 131.162 762.088 131.835 760.96C132.508 759.832 133.681 759.315 134.465 759.792L154.363 771.897C155.149 772.375 155.244 773.666 154.562 774.794C153.883 775.922 152.701 776.434 151.917 775.957L132.039 763.855Z" fill="url(#paint21_linear)" fill-opacity="0.4"/>
<path d="M128.197 769.805C127.433 769.34 127.22 768.28 127.718 767.441C128.219 766.603 129.247 766.3 130.01 766.765L149.901 778.887C150.669 779.354 150.882 780.414 150.377 781.255C149.87 782.092 148.838 782.393 148.071 781.923L128.197 769.805Z" fill="url(#paint22_linear)" fill-opacity="0.4"/>
<path d="M119.465 784.431C118.703 783.967 118.49 782.914 118.988 782.08C119.486 781.247 120.505 780.948 121.267 781.415L141.077 793.528C141.843 793.994 142.055 795.05 141.552 795.883C141.05 796.717 140.022 797.011 139.259 796.544L119.465 784.431Z" fill="url(#paint23_linear)" fill-opacity="0.4"/>
<path d="M124.878 775.362C124.114 774.897 123.902 773.841 124.399 773.004C124.898 772.169 125.923 771.866 126.687 772.331L146.548 784.451C147.316 784.919 147.527 785.977 147.022 786.812C146.518 787.651 145.488 787.947 144.722 787.48L124.878 775.362" fill="url(#paint24_linear)" fill-opacity="0.4"/>
<path d="M122.081 778.473C121.699 778.239 121.592 777.712 121.841 777.296C122.091 776.877 122.602 776.726 122.984 776.96L144.199 789.92C144.582 790.154 144.687 790.683 144.438 791.1C144.186 791.518 143.671 791.666 143.287 791.434L122.081 778.473Z" fill="url(#paint25_linear)" fill-opacity="0.4"/>
<path d="M113.633 335.391C112.552 336.362 111.199 336.605 110.58 335.898C109.961 335.191 110.358 333.856 111.442 332.883L122.559 322.88C123.643 321.904 124.998 321.663 125.614 322.375C126.23 323.087 125.825 324.426 124.741 325.402L113.633 335.391ZM92.7981 354.126C91.7231 355.092 90.3694 355.338 89.7476 354.636C89.1237 353.935 89.5149 352.611 90.5908 351.642L101.655 341.687C102.736 340.716 104.089 340.473 104.71 341.178C105.33 341.883 104.933 343.213 103.854 344.183L92.7981 354.126ZM72.0639 372.77C70.9909 373.734 69.6404 373.98 69.0126 373.287C68.3857 372.592 68.7698 371.276 69.8417 370.311L80.8522 360.404C81.9262 359.437 83.281 359.192 83.9058 359.89C84.5297 360.59 84.1394 361.911 83.0676 362.876L72.0639 372.77ZM51.4272 391.328C50.3603 392.286 49.0089 392.535 48.3781 391.847C47.7442 391.161 48.1232 389.852 49.1889 388.892L60.1482 379.032C61.218 378.069 62.5697 377.824 63.1995 378.515C63.8273 379.207 63.4462 380.518 62.3764 381.481L51.4272 391.328ZM216.089 394.954L142.846 309.122L134.566 316.566C133.48 317.544 132.125 317.785 131.511 317.071C130.896 316.356 131.303 315.012 132.39 314.034L140.676 306.58L119.001 281.177C117.448 279.357 113.659 280.354 110.935 282.82L11.3626 372.981C8.70233 375.389 8.17181 378.274 9.78061 380.003L32.2474 404.136L39.5406 397.573C40.6074 396.614 41.9588 396.366 42.5917 397.051C43.2245 397.737 42.8485 399.041 41.7869 399.997L34.4945 406.552L110.449 488.141C111.918 489.721 114.784 489.502 117.353 487.237L213.49 402.49C216.118 400.174 217.505 396.615 216.089 394.954" fill="url(#paint26_linear)" fill-opacity="0.4"/>
<path d="M182.298 382.529C180.08 384.498 177.29 384.948 176.068 383.534L148.231 351.368C146.973 349.919 147.773 347.112 150.015 345.106L150.37 344.788C152.617 342.778 155.454 342.334 156.708 343.79L184.465 376.082C185.684 377.502 184.871 380.248 182.65 382.217L182.298 382.529Z" fill="url(#paint27_linear)" fill-opacity="0.4"/>
<path d="M200.967 403.842C198.674 405.868 195.804 406.337 194.553 404.892L185.404 394.323C184.141 392.864 184.983 390.026 187.289 387.985L187.317 387.959C189.623 385.919 192.515 385.449 193.773 386.915L202.893 397.526C204.141 398.976 203.29 401.792 200.994 403.818L200.967 403.842" fill="url(#paint28_linear)" fill-opacity="0.4"/>
<path d="M138.955 452.133C137.59 453.339 135.862 453.629 135.092 452.78L91.001 404.175C90.199 403.29 90.6724 401.57 92.0575 400.332C93.4435 399.091 95.2172 398.806 96.0172 399.692L140.035 448.41C140.804 449.262 140.32 450.929 138.955 452.133" fill="url(#paint29_linear)" fill-opacity="0.4"/>
<path d="M129.906 460.126C128.545 461.328 126.816 461.618 126.046 460.773L97.7145 429.772C96.9206 428.905 97.3929 427.208 98.7679 425.984C100.145 424.758 101.903 424.471 102.694 425.34L130.978 456.415C131.749 457.261 131.268 458.924 129.906 460.126Z" fill="url(#paint30_linear)" fill-opacity="0.4"/>
<path d="M120.467 468.464C119.11 469.663 117.382 469.954 116.605 469.114L88.1841 438.253C87.3904 437.39 87.8565 435.699 89.2295 434.477C90.6025 433.255 92.359 432.966 93.1539 433.831L121.529 464.764C122.302 465.608 121.827 467.265 120.467 468.464" fill="url(#paint31_linear)" fill-opacity="0.4"/>
<path d="M21.9237 375.546C21.2253 376.177 20.3198 376.32 19.897 375.866C19.4773 375.412 19.703 374.531 20.4024 373.897L38.5837 357.453C39.2862 356.819 40.1949 356.675 40.6126 357.136C41.0293 357.595 40.8006 358.481 40.0981 359.115L21.9237 375.546" fill="url(#paint32_linear)" fill-opacity="0.4"/>
<path d="M25.4126 378.931C24.6987 379.574 23.6705 379.61 23.108 379.002C22.5456 378.394 22.6732 377.385 23.388 376.739L41.5235 360.348C42.2404 359.701 43.2697 359.665 43.8283 360.281C44.3877 360.894 44.2519 361.911 43.5371 362.557L25.4126 378.931Z" fill="url(#paint33_linear)" fill-opacity="0.4"/>
<path d="M28.2487 382.385C27.5523 383.014 26.6468 383.157 26.2274 382.707C25.81 382.255 26.0368 381.376 26.7332 380.746L44.8786 364.362C45.579 363.729 46.4845 363.586 46.9021 364.043C47.3166 364.5 47.0856 365.383 46.384 366.014L28.2487 382.385Z" fill="url(#paint34_linear)" fill-opacity="0.4"/>
<path d="M35.5386 390.273C34.8442 390.9 33.943 391.044 33.5278 390.594C33.1127 390.145 33.3387 389.273 34.0363 388.645L52.1387 372.329C52.8372 371.698 53.7395 371.555 54.1517 372.01C54.5659 372.463 54.3316 373.342 53.6341 373.97L35.5386 390.273Z" fill="url(#paint35_linear)" fill-opacity="0.4"/>
<path d="M31.0184 385.383C30.322 386.012 29.4197 386.154 29.0013 385.705C28.585 385.254 28.8109 384.378 29.5073 383.749L47.6378 367.389C48.3383 366.757 49.2417 366.615 49.655 367.071C50.0715 367.527 49.8383 368.407 49.1399 369.038L31.0184 385.383" fill="url(#paint36_linear)" fill-opacity="0.4"/>
<path d="M32.1497 387.855C31.8 388.169 31.3494 388.241 31.1418 388.016C30.9331 387.79 31.0456 387.354 31.3953 387.039L50.7725 369.565C51.1222 369.25 51.5739 369.179 51.7815 369.404C51.9882 369.632 51.8716 370.072 51.523 370.388L32.1497 387.855Z" fill="url(#paint37_linear)" fill-opacity="0.4"/>
</g>
<defs>
<filter id="filter0_d" x="0" y="0.749878" width="604.551" height="1032.8" filterUnits="userSpaceOnUse" color-interpolation-filters="sRGB">
<feFlood flood-opacity="0" result="BackgroundImageFix"/>
<feColorMatrix in="SourceAlpha" type="matrix" values="0 0 0 0 0 0 0 0 0 0 0 0 0 0 0 0 0 0 127 0" result="hardAlpha"/>
<feOffset dy="4"/>
<feGaussianBlur stdDeviation="2"/>
<feComposite in2="hardAlpha" operator="out"/>
<feColorMatrix type="matrix" values="0 0 0 0 0 0 0 0 0 0 0 0 0 0 0 0 0 0 0.25 0"/>
<feBlend mode="normal" in2="BackgroundImageFix" result="effect1_dropShadow"/>
<feBlend mode="normal" in="SourceGraphic" in2="effect1_dropShadow" result="shape"/>
</filter>
<linearGradient id="paint0_linear" x1="286.051" y1="0.749878" x2="286.051" y2="1024.75" gradientUnits="userSpaceOnUse">
<stop stop-color="#384E83"/>
<stop offset="1" stop-color="#463B67"/>
</linearGradient>
<linearGradient id="paint1_linear" x1="44.2022" y1="953" x2="44.2022" y2="1025" gradientUnits="userSpaceOnUse">
<stop stop-color="#384E83"/>
<stop offset="1" stop-color="#463B67"/>
</linearGradient>
<linearGradient id="paint2_linear" x1="393.759" y1="183.584" x2="493.86" y2="85.2228" gradientUnits="userSpaceOnUse">
<stop stop-color="#384E83"/>
<stop offset="1" stop-color="#463B67"/>
</linearGradient>
<linearGradient id="paint3_linear" x1="499.621" y1="127.077" x2="508.016" y2="118.828" gradientUnits="userSpaceOnUse">
<stop stop-color="#384E83"/>
<stop offset="1" stop-color="#463B67"/>
</linearGradient>
<linearGradient id="paint4_linear" x1="547.368" y1="176.554" x2="555.183" y2="168.876" gradientUnits="userSpaceOnUse">
<stop stop-color="#384E83"/>
<stop offset="1" stop-color="#463B67"/>
</linearGradient>
<linearGradient id="paint5_linear" x1="460.32" y1="191.597" x2="464.892" y2="187.105" gradientUnits="userSpaceOnUse">
<stop stop-color="#384E83"/>
<stop offset="1" stop-color="#463B67"/>
</linearGradient>
<linearGradient id="paint6_linear" x1="465.725" y1="213.708" x2="470.31" y2="209.203" gradientUnits="userSpaceOnUse">
<stop stop-color="#384E83"/>
<stop offset="1" stop-color="#463B67"/>
</linearGradient>
<linearGradient id="paint7_linear" x1="456.902" y1="222.072" x2="461.589" y2="217.467" gradientUnits="userSpaceOnUse">
<stop stop-color="#384E83"/>
<stop offset="1" stop-color="#463B67"/>
</linearGradient>
<linearGradient id="paint8_linear" x1="326.682" y1="101.355" x2="345.661" y2="82.705" gradientUnits="userSpaceOnUse">
<stop stop-color="#384E83"/>
<stop offset="1" stop-color="#463B67"/>
</linearGradient>
<linearGradient id="paint9_linear" x1="331.83" y1="106.223" x2="350.807" y2="87.5756" gradientUnits="userSpaceOnUse">
<stop stop-color="#384E83"/>
<stop offset="1" stop-color="#463B67"/>
</linearGradient>
<linearGradient id="paint10_linear" x1="337.117" y1="111.845" x2="356.046" y2="93.2457" gradientUnits="userSpaceOnUse">
<stop stop-color="#384E83"/>
<stop offset="1" stop-color="#463B67"/>
</linearGradient>
<linearGradient id="paint11_linear" x1="349.153" y1="123.944" x2="368.02" y2="105.405" gradientUnits="userSpaceOnUse">
<stop stop-color="#384E83"/>
<stop offset="1" stop-color="#463B67"/>
</linearGradient>
<linearGradient id="paint12_linear" x1="341.691" y1="116.444" x2="360.595" y2="97.8685" gradientUnits="userSpaceOnUse">
<stop stop-color="#384E83"/>
<stop offset="1" stop-color="#463B67"/>
</linearGradient>
<linearGradient id="paint13_linear" x1="345.253" y1="120.024" x2="364.14" y2="101.465" gradientUnits="userSpaceOnUse">
<stop stop-color="#384E83"/>
<stop offset="1" stop-color="#463B67"/>
</linearGradient>
<linearGradient id="paint14_linear" x1="72.2684" y1="840.039" x2="192.354" y2="912.663" gradientUnits="userSpaceOnUse">
<stop stop-color="#384E83"/>
<stop offset="1" stop-color="#463B67"/>
</linearGradient>
<linearGradient id="paint15_linear" x1="153.23" y1="928.609" x2="163.302" y2="934.701" gradientUnits="userSpaceOnUse">
<stop stop-color="#384E83"/>
<stop offset="1" stop-color="#463B67"/>
</linearGradient>
<linearGradient id="paint16_linear" x1="117.119" y1="987.122" x2="126.493" y2="992.792" gradientUnits="userSpaceOnUse">
<stop stop-color="#384E83"/>
<stop offset="1" stop-color="#463B67"/>
</linearGradient>
<linearGradient id="paint17_linear" x1="80.988" y1="906.511" x2="86.4726" y2="909.828" gradientUnits="userSpaceOnUse">
<stop stop-color="#384E83"/>
<stop offset="1" stop-color="#463B67"/>
</linearGradient>
<linearGradient id="paint18_linear" x1="60.904" y1="917.222" x2="66.4043" y2="920.549" gradientUnits="userSpaceOnUse">
<stop stop-color="#384E83"/>
<stop offset="1" stop-color="#463B67"/>
</linearGradient>
<linearGradient id="paint19_linear" x1="50.616" y1="910.746" x2="56.2382" y2="914.146" gradientUnits="userSpaceOnUse">
<stop stop-color="#384E83"/>
<stop offset="1" stop-color="#463B67"/>
</linearGradient>
<linearGradient id="paint20_linear" x1="135.325" y1="754.687" x2="158.094" y2="768.457" gradientUnits="userSpaceOnUse">
<stop stop-color="#384E83"/>
<stop offset="1" stop-color="#463B67"/>
</linearGradient>
<linearGradient id="paint21_linear" x1="131.883" y1="760.88" x2="154.65" y2="774.649" gradientUnits="userSpaceOnUse">
<stop stop-color="#384E83"/>
<stop offset="1" stop-color="#463B67"/>
</linearGradient>
<linearGradient id="paint22_linear" x1="127.745" y1="767.396" x2="150.453" y2="781.129" gradientUnits="userSpaceOnUse">
<stop stop-color="#384E83"/>
<stop offset="1" stop-color="#463B67"/>
</linearGradient>
<linearGradient id="paint23_linear" x1="119.004" y1="782.053" x2="141.638" y2="795.741" gradientUnits="userSpaceOnUse">
<stop stop-color="#384E83"/>
<stop offset="1" stop-color="#463B67"/>
</linearGradient>
<linearGradient id="paint24_linear" x1="124.423" y1="772.966" x2="147.101" y2="786.681" gradientUnits="userSpaceOnUse">
<stop stop-color="#384E83"/>
<stop offset="1" stop-color="#463B67"/>
</linearGradient>
<linearGradient id="paint25_linear" x1="121.837" y1="777.303" x2="144.495" y2="791.006" gradientUnits="userSpaceOnUse">
<stop stop-color="#384E83"/>
<stop offset="1" stop-color="#463B67"/>
</linearGradient>
<linearGradient id="paint26_linear" x1="57.0072" y1="432.092" x2="166.129" y2="333.155" gradientUnits="userSpaceOnUse">
<stop stop-color="#384E83"/>
<stop offset="1" stop-color="#463B67"/>
</linearGradient>
<linearGradient id="paint27_linear" x1="160.868" y1="366.77" x2="170.02" y2="358.472" gradientUnits="userSpaceOnUse">
<stop stop-color="#384E83"/>
<stop offset="1" stop-color="#463B67"/>
</linearGradient>
<linearGradient id="paint28_linear" x1="189.504" y1="399.324" x2="198.023" y2="391.6" gradientUnits="userSpaceOnUse">
<stop stop-color="#384E83"/>
<stop offset="1" stop-color="#463B67"/>
</linearGradient>
<linearGradient id="paint29_linear" x1="111.734" y1="427.042" x2="116.718" y2="422.523" gradientUnits="userSpaceOnUse">
<stop stop-color="#384E83"/>
<stop offset="1" stop-color="#463B67"/>
</linearGradient>
<linearGradient id="paint30_linear" x1="110.964" y1="444.386" x2="115.963" y2="439.854" gradientUnits="userSpaceOnUse">
<stop stop-color="#384E83"/>
<stop offset="1" stop-color="#463B67"/>
</linearGradient>
<linearGradient id="paint31_linear" x1="101.421" y1="452.853" x2="106.53" y2="448.221" gradientUnits="userSpaceOnUse">
<stop stop-color="#384E83"/>
<stop offset="1" stop-color="#463B67"/>
</linearGradient>
<linearGradient id="paint32_linear" x1="19.868" y1="375.834" x2="40.558" y2="357.076" gradientUnits="userSpaceOnUse">
<stop stop-color="#384E83"/>
<stop offset="1" stop-color="#463B67"/>
</linearGradient>
<linearGradient id="paint33_linear" x1="23.0685" y1="378.959" x2="43.7564" y2="360.202" gradientUnits="userSpaceOnUse">
<stop stop-color="#384E83"/>
<stop offset="1" stop-color="#463B67"/>
</linearGradient>
<linearGradient id="paint34_linear" x1="26.205" y1="382.682" x2="46.8395" y2="363.974" gradientUnits="userSpaceOnUse">
<stop stop-color="#384E83"/>
<stop offset="1" stop-color="#463B67"/>
</linearGradient>
<linearGradient id="paint35_linear" x1="33.5142" y1="390.579" x2="54.0811" y2="371.932" gradientUnits="userSpaceOnUse">
<stop stop-color="#384E83"/>
<stop offset="1" stop-color="#463B67"/>
</linearGradient>
<linearGradient id="paint36_linear" x1="28.9822" y1="385.684" x2="49.5901" y2="367" gradientUnits="userSpaceOnUse">
<stop stop-color="#384E83"/>
<stop offset="1" stop-color="#463B67"/>
</linearGradient>
<linearGradient id="paint37_linear" x1="31.1454" y1="388.021" x2="51.7349" y2="369.353" gradientUnits="userSpaceOnUse">
<stop stop-color="#384E83"/>
<stop offset="1" stop-color="#463B67"/>
</linearGradient>
</defs>
</svg>
