<svg width="483" height="93" viewBox="0 0 483 93" fill="none" xmlns="http://www.w3.org/2000/svg">
<g clip-path="url(#clip0)">
<path d="M387.359 75.8062C386.877 76.3003 386.379 76.7793 385.866 77.2412C385.404 77.7544 384.925 78.252 384.431 78.7339L396.349 90.6514C397.081 91.3838 398.04 91.75 399 91.75C399.4 91.75 399.8 91.6855 400.183 91.5581C400.616 90.2544 400.314 88.7607 399.276 87.7236L387.359 75.8062Z" fill="#4DBBEB"/>
<path d="M384.277 78.5801C384.857 78.124 385.418 77.646 385.964 77.1514C386.458 76.6055 386.937 76.0444 387.393 75.4648L382.243 70.3149C381.737 70.8486 381.208 71.3584 380.656 71.8438C380.171 72.3955 379.661 72.9248 379.127 73.4302L384.277 78.5801Z" fill="#FFF5CD"/>
<path d="M368.25 30.4731C356.686 32.063 347.75 42.0063 347.75 54C347.75 65.9951 356.688 75.9395 368.253 77.5273C372.201 76.9839 375.842 75.4673 378.926 73.2275C380.96 71.7515 382.751 69.96 384.228 67.9263C387.071 64.0112 388.75 59.1973 388.75 54C388.75 42.0063 379.814 32.063 368.25 30.4731V30.4731Z" fill="#4DBBEB"/>
<path d="M365 35.25C375.339 35.25 383.75 43.6611 383.75 54C383.75 64.3389 375.339 72.75 365 72.75C354.661 72.75 346.25 64.3389 346.25 54C346.25 43.6611 354.661 35.25 365 35.25Z" fill="white"/>
<path d="M368.125 35.5117C359.269 37.0039 352.5 44.7261 352.5 54C352.5 63.2739 359.269 70.9961 368.125 72.4883C376.981 70.9961 383.75 63.2739 383.75 54C383.75 44.7261 376.981 37.0039 368.125 35.5117Z" fill="#BEE7F4"/>
<path d="M402.535 84.4648L385.85 67.7798C388.568 63.6855 390 58.9443 390 54C390 40.2148 378.785 29 365 29C351.215 29 340 40.2148 340 54C340 67.7852 351.215 79 365 79C369.944 79 374.686 77.5684 378.78 74.8501L383.392 79.4619C383.393 79.4629 383.393 79.4634 383.394 79.4644L395.465 91.5352C396.41 92.48 397.665 93 399 93C400.335 93 401.59 92.48 402.535 91.5356C403.479 90.5913 404 89.3359 404 88C404 86.6641 403.479 85.4087 402.535 84.4648V84.4648ZM380.814 73.3491C382.108 72.2905 383.291 71.1079 384.349 69.8145L387.896 73.3608C386.817 74.6338 385.634 75.8169 384.361 76.8955L380.814 73.3491ZM342.5 54C342.5 41.5933 352.593 31.5 365 31.5C377.407 31.5 387.5 41.5933 387.5 54C387.5 58.772 386.019 63.3335 383.216 67.1919C381.814 69.1235 380.124 70.814 378.192 72.2158V72.2163C374.333 75.0186 369.772 76.5 365 76.5C352.593 76.5 342.5 66.4067 342.5 54V54ZM400.768 89.7676C400.295 90.2397 399.667 90.5 399 90.5C398.333 90.5 397.705 90.2397 397.232 89.7676L386.133 78.668C387.399 77.5815 388.582 76.3994 389.668 75.1333L400.768 86.2329C401.24 86.7051 401.5 87.332 401.5 88C401.5 88.668 401.24 89.2949 400.768 89.7676Z" fill="black"/>
<path d="M385 54C385 42.9717 376.028 34 365 34C353.972 34 345 42.9717 345 54C345 65.0283 353.972 74 365 74C376.028 74 385 65.0283 385 54ZM365 71.5C355.351 71.5 347.5 63.6494 347.5 54C347.5 44.3506 355.351 36.5 365 36.5C374.649 36.5 382.5 44.3506 382.5 54C382.5 63.6494 374.649 71.5 365 71.5Z" fill="black"/>
<path d="M378.29 50.2495C378.934 50.002 379.256 49.2788 379.008 48.6343C377.932 45.8325 376.058 43.4375 373.588 41.7075C371.06 39.936 368.09 39 365 39C364.31 39 363.75 39.5596 363.75 40.25C363.75 40.9404 364.31 41.5 365 41.5C370.137 41.5 374.829 44.7271 376.674 49.5308C376.866 50.0278 377.339 50.333 377.842 50.333C377.991 50.333 378.142 50.3062 378.29 50.2495Z" fill="black"/>
<path d="M378.75 52.75C378.06 52.75 377.5 53.3101 377.5 54C377.5 54.6899 378.06 55.25 378.75 55.25C379.44 55.25 380 54.6899 380 54C380 53.3101 379.44 52.75 378.75 52.75Z" fill="black"/>
</g>
<path d="M29.6528 29.16H12.0208V20.8H57.1648V29.16H39.5328V74H29.6528V29.16ZM62.7027 33.416H72.2027V74H62.7027V33.416ZM67.4907 26.728C65.768 26.728 64.324 26.196 63.1587 25.132C61.9934 24.0173 61.4107 22.6493 61.4107 21.028C61.4107 19.4067 61.9934 18.064 63.1587 17C64.324 15.8853 65.768 15.328 67.4907 15.328C69.2134 15.328 70.6574 15.86 71.8227 16.924C72.988 17.9373 73.5707 19.2293 73.5707 20.8C73.5707 22.472 72.988 23.8907 71.8227 25.056C70.708 26.1707 69.264 26.728 67.4907 26.728ZM103.291 74.532C99.0861 74.532 95.3115 73.6453 91.9675 71.872C88.6235 70.0987 86.0141 67.6413 84.1395 64.5C82.2648 61.308 81.3275 57.7107 81.3275 53.708C81.3275 49.7053 82.2648 46.1333 84.1395 42.992C86.0141 39.8507 88.5981 37.3933 91.8915 35.62C95.2355 33.8467 99.0355 32.96 103.291 32.96C107.294 32.96 110.79 33.7707 113.779 35.392C116.819 37.0133 119.099 39.344 120.619 42.384L113.323 46.64C112.158 44.7653 110.689 43.372 108.915 42.46C107.193 41.4973 105.293 41.016 103.215 41.016C99.6688 41.016 96.7301 42.1813 94.3995 44.512C92.0688 46.792 90.9035 49.8573 90.9035 53.708C90.9035 57.5587 92.0435 60.6493 94.3235 62.98C96.6541 65.26 99.6181 66.4 103.215 66.4C105.293 66.4 107.193 65.944 108.915 65.032C110.689 64.0693 112.158 62.6507 113.323 60.776L120.619 65.032C119.049 68.072 116.743 70.428 113.703 72.1C110.714 73.7213 107.243 74.532 103.291 74.532ZM145.029 56.596L137.961 63.284V74H128.461V17.608H137.961V51.656L157.645 33.416H169.045L152.097 50.44L170.641 74H159.089L145.029 56.596ZM213.222 53.936C213.222 54.5947 213.171 55.532 213.07 56.748H181.226C181.783 59.7373 183.227 62.1187 185.558 63.892C187.939 65.6147 190.878 66.476 194.374 66.476C198.833 66.476 202.506 65.0067 205.394 62.068L210.486 67.92C208.662 70.0987 206.357 71.7453 203.57 72.86C200.783 73.9747 197.642 74.532 194.146 74.532C189.687 74.532 185.761 73.6453 182.366 71.872C178.971 70.0987 176.337 67.6413 174.462 64.5C172.638 61.308 171.726 57.7107 171.726 53.708C171.726 49.756 172.613 46.2093 174.386 43.068C176.21 39.876 178.718 37.3933 181.91 35.62C185.102 33.8467 188.699 32.96 192.702 32.96C196.654 32.96 200.175 33.8467 203.266 35.62C206.407 37.3427 208.839 39.8 210.562 42.992C212.335 46.1333 213.222 49.7813 213.222 53.936ZM192.702 40.56C189.662 40.56 187.078 41.472 184.95 43.296C182.873 45.0693 181.606 47.4507 181.15 50.44H204.178C203.773 47.5013 202.531 45.12 200.454 43.296C198.377 41.472 195.793 40.56 192.702 40.56ZM246.743 71.796C245.629 72.708 244.261 73.392 242.639 73.848C241.069 74.304 239.397 74.532 237.623 74.532C233.165 74.532 229.719 73.3667 227.287 71.036C224.855 68.7053 223.639 65.3107 223.639 60.852V41.32H216.951V33.72H223.639V24.448H233.139V33.72H244.007V41.32H233.139V60.624C233.139 62.6 233.621 64.12 234.583 65.184C235.546 66.1973 236.939 66.704 238.763 66.704C240.891 66.704 242.665 66.1467 244.083 65.032L246.743 71.796ZM271.962 74.76C267.858 74.76 263.881 74.1773 260.03 73.012C256.23 71.8467 253.216 70.3013 250.986 68.376L254.406 60.7C256.585 62.4227 259.245 63.8413 262.386 64.956C265.578 66.02 268.77 66.552 271.962 66.552C275.914 66.552 278.853 65.9187 280.778 64.652C282.754 63.3853 283.742 61.7133 283.742 59.636C283.742 58.116 283.185 56.8747 282.07 55.912C281.006 54.8987 279.638 54.1133 277.966 53.556C276.294 52.9987 274.014 52.3653 271.126 51.656C267.073 50.6933 263.78 49.7307 261.246 48.768C258.764 47.8053 256.61 46.3107 254.786 44.284C253.013 42.2067 252.126 39.42 252.126 35.924C252.126 32.9853 252.912 30.3253 254.482 27.944C256.104 25.512 258.51 23.5867 261.702 22.168C264.945 20.7493 268.897 20.04 273.558 20.04C276.801 20.04 279.993 20.4453 283.134 21.256C286.276 22.0667 288.986 23.232 291.266 24.752L288.15 32.428C285.82 31.06 283.388 30.0213 280.854 29.312C278.321 28.6027 275.864 28.248 273.482 28.248C269.581 28.248 266.668 28.9067 264.742 30.224C262.868 31.5413 261.93 33.2893 261.93 35.468C261.93 36.988 262.462 38.2293 263.526 39.192C264.641 40.1547 266.034 40.9147 267.706 41.472C269.378 42.0293 271.658 42.6627 274.546 43.372C278.498 44.284 281.741 45.2467 284.274 46.26C286.808 47.2227 288.961 48.7173 290.734 50.744C292.558 52.7707 293.47 55.5067 293.47 58.952C293.47 61.8907 292.66 64.5507 291.038 66.932C289.468 69.3133 287.061 71.2133 283.818 72.632C280.576 74.0507 276.624 74.76 271.962 74.76ZM320.975 74.532C316.77 74.532 312.995 73.6453 309.651 71.872C306.307 70.0987 303.698 67.6413 301.823 64.5C299.948 61.308 299.011 57.7107 299.011 53.708C299.011 49.7053 299.948 46.1333 301.823 42.992C303.698 39.8507 306.282 37.3933 309.575 35.62C312.919 33.8467 316.719 32.96 320.975 32.96C324.978 32.96 328.474 33.7707 331.463 35.392C334.503 37.0133 336.783 39.344 338.303 42.384L331.007 46.64C329.842 44.7653 328.372 43.372 326.599 42.46C324.876 41.4973 322.976 41.016 320.899 41.016C317.352 41.016 314.414 42.1813 312.083 44.512C309.752 46.792 308.587 49.8573 308.587 53.708C308.587 57.5587 309.727 60.6493 312.007 62.98C314.338 65.26 317.302 66.4 320.899 66.4C322.976 66.4 324.876 65.944 326.599 65.032C328.372 64.0693 329.842 62.6507 331.007 60.776L338.303 65.032C336.732 68.072 334.427 70.428 331.387 72.1C328.398 73.7213 324.927 74.532 320.975 74.532Z" fill="black"/>
<path d="M434.053 33.416V74H425.009V68.832C423.489 70.656 421.589 72.0747 419.309 73.088C417.029 74.0507 414.572 74.532 411.937 74.532C406.516 74.532 402.235 73.0373 399.093 70.048C396.003 67.008 394.457 62.524 394.457 56.596V33.416H403.957V55.304C403.957 58.952 404.768 61.688 406.389 63.512C408.061 65.2853 410.417 66.172 413.457 66.172C416.852 66.172 419.537 65.1333 421.513 63.056C423.54 60.928 424.553 57.888 424.553 53.936V33.416H434.053ZM470.888 71.796C469.773 72.708 468.405 73.392 466.784 73.848C465.213 74.304 463.541 74.532 461.768 74.532C457.309 74.532 453.864 73.3667 451.432 71.036C449 68.7053 447.784 65.3107 447.784 60.852V41.32H441.096V33.72H447.784V24.448H457.284V33.72H468.152V41.32H457.284V60.624C457.284 62.6 457.765 64.12 458.728 65.184C459.69 66.1973 461.084 66.704 462.908 66.704C465.036 66.704 466.809 66.1467 468.228 65.032L470.888 71.796Z" fill="black"/>
<defs>
<clipPath id="clip0">
<rect width="64" height="64" fill="white" transform="translate(340 29)"/>
</clipPath>
</defs>
</svg>
