<svg width="105" height="124" viewBox="0 0 105 124" fill="none" xmlns="http://www.w3.org/2000/svg">
<g filter="url(#filter0_di)">
<path d="M20.922 33.58C22.5279 32.7898 24.4704 33.451 25.2606 35.0569L28.1222 40.8724C28.9124 42.4783 28.2511 44.4208 26.6452 45.211C25.0393 46.0012 23.0969 45.3399 22.3067 43.734L19.4451 37.9185C18.6549 36.3126 19.3161 34.3702 20.922 33.58Z" fill="white"/>
</g>
<g filter="url(#filter1_di)">
<path d="M84.0713 33.5801C82.4654 32.7899 80.5229 33.4511 79.7327 35.057L76.8711 40.8726C76.0809 42.4785 76.7422 44.4209 78.3481 45.2111C79.954 46.0013 81.8964 45.3401 82.6866 43.7342L85.5482 37.9186C86.3384 36.3127 85.6772 34.3703 84.0713 33.5801Z" fill="white"/>
</g>
<g filter="url(#filter2_di)">
<path d="M52.2778 37.6839C54.0676 37.6839 55.5185 36.233 55.5185 34.4432V20.4341C55.5185 18.6443 54.0676 17.1934 52.2778 17.1934C50.488 17.1934 49.0371 18.6443 49.0371 20.4341V34.4432C49.0371 36.233 50.488 37.6839 52.2778 37.6839Z" fill="white"/>
</g>
<g filter="url(#filter3_i)">
<path d="M58.5588 75.4476C58.5588 78.797 55.8435 81.5123 52.4941 81.5123C49.1446 81.5123 46.4293 78.797 46.4293 75.4476C46.4293 72.0981 49.1446 69.3828 52.4941 69.3828C55.8435 69.3828 58.5588 72.0981 58.5588 75.4476Z" fill="#172541"/>
</g>
<g filter="url(#filter4_di)">
<path fill-rule="evenodd" clip-rule="evenodd" d="M52.4962 60.58C44.2874 60.58 37.6328 67.2346 37.6328 75.4434C37.6328 83.6523 44.2874 90.3069 52.4962 90.3069C60.7051 90.3069 67.3596 83.6523 67.3596 75.4434C67.3596 67.2346 60.7051 60.58 52.4962 60.58ZM23.6328 75.4434C23.6328 59.5026 36.5554 46.58 52.4962 46.58C68.4371 46.58 81.3596 59.5026 81.3596 75.4434C81.3596 91.3843 68.4371 104.307 52.4962 104.307C36.5554 104.307 23.6328 91.3843 23.6328 75.4434Z" fill="white"/>
</g>
<g filter="url(#filter5_di)">
<path fill-rule="evenodd" clip-rule="evenodd" d="M52.0585 36.2499C58.4647 36.1852 64.8062 37.5344 70.6312 40.2014C76.4562 42.8684 81.6211 46.7875 85.7579 51.6793C87.0061 53.1553 86.8214 55.3637 85.3454 56.6118C83.8694 57.86 81.6611 57.6753 80.4129 56.1993C76.9409 52.0937 72.606 48.8044 67.7171 46.566C62.8283 44.3276 57.5058 43.1952 52.1292 43.2495C46.7525 43.3039 41.4541 44.5435 36.6114 46.8802C31.7688 49.2168 27.5012 52.593 24.1128 56.768C22.8947 58.2688 20.6905 58.4981 19.1896 57.28C17.6887 56.0619 17.4595 53.8577 18.6776 52.3568C22.7147 47.3824 27.7995 43.3598 33.5694 40.5757C39.3393 37.7916 45.6523 36.3146 52.0585 36.2499Z" fill="#5192FB"/>
</g>
<defs>
<filter id="filter0_di" x="0.0142822" y="15.1492" width="47.5387" height="50.4926" filterUnits="userSpaceOnUse" color-interpolation-filters="sRGB">
<feFlood flood-opacity="0" result="BackgroundImageFix"/>
<feColorMatrix in="SourceAlpha" type="matrix" values="0 0 0 0 0 0 0 0 0 0 0 0 0 0 0 0 0 0 127 0" result="hardAlpha"/>
<feOffset dy="1"/>
<feGaussianBlur stdDeviation="9"/>
<feComposite in2="hardAlpha" operator="out"/>
<feColorMatrix type="matrix" values="0 0 0 0 0.0986806 0 0 0 0 0.102496 0 0 0 0 0.116667 0 0 0 0.08 0"/>
<feBlend mode="normal" in2="BackgroundImageFix" result="effect1_dropShadow"/>
<feBlend mode="normal" in="SourceGraphic" in2="effect1_dropShadow" result="shape"/>
<feColorMatrix in="SourceAlpha" type="matrix" values="0 0 0 0 0 0 0 0 0 0 0 0 0 0 0 0 0 0 127 0" result="hardAlpha"/>
<feOffset dy="4"/>
<feGaussianBlur stdDeviation="2"/>
<feComposite in2="hardAlpha" operator="arithmetic" k2="-1" k3="1"/>
<feColorMatrix type="matrix" values="0 0 0 0 0 0 0 0 0 0 0 0 0 0 0 0 0 0 0.12 0"/>
<feBlend mode="normal" in2="shape" result="effect2_innerShadow"/>
</filter>
<filter id="filter1_di" x="57.4403" y="15.1493" width="47.5387" height="50.4926" filterUnits="userSpaceOnUse" color-interpolation-filters="sRGB">
<feFlood flood-opacity="0" result="BackgroundImageFix"/>
<feColorMatrix in="SourceAlpha" type="matrix" values="0 0 0 0 0 0 0 0 0 0 0 0 0 0 0 0 0 0 127 0" result="hardAlpha"/>
<feOffset dy="1"/>
<feGaussianBlur stdDeviation="9"/>
<feComposite in2="hardAlpha" operator="out"/>
<feColorMatrix type="matrix" values="0 0 0 0 0.0986806 0 0 0 0 0.102496 0 0 0 0 0.116667 0 0 0 0.08 0"/>
<feBlend mode="normal" in2="BackgroundImageFix" result="effect1_dropShadow"/>
<feBlend mode="normal" in="SourceGraphic" in2="effect1_dropShadow" result="shape"/>
<feColorMatrix in="SourceAlpha" type="matrix" values="0 0 0 0 0 0 0 0 0 0 0 0 0 0 0 0 0 0 127 0" result="hardAlpha"/>
<feOffset dy="4"/>
<feGaussianBlur stdDeviation="2"/>
<feComposite in2="hardAlpha" operator="arithmetic" k2="-1" k3="1"/>
<feColorMatrix type="matrix" values="0 0 0 0 0 0 0 0 0 0 0 0 0 0 0 0 0 0 0.12 0"/>
<feBlend mode="normal" in2="shape" result="effect2_innerShadow"/>
</filter>
<filter id="filter2_di" x="31.037" y="0.19342" width="42.4814" height="56.4905" filterUnits="userSpaceOnUse" color-interpolation-filters="sRGB">
<feFlood flood-opacity="0" result="BackgroundImageFix"/>
<feColorMatrix in="SourceAlpha" type="matrix" values="0 0 0 0 0 0 0 0 0 0 0 0 0 0 0 0 0 0 127 0" result="hardAlpha"/>
<feOffset dy="1"/>
<feGaussianBlur stdDeviation="9"/>
<feComposite in2="hardAlpha" operator="out"/>
<feColorMatrix type="matrix" values="0 0 0 0 0.0986806 0 0 0 0 0.102496 0 0 0 0 0.116667 0 0 0 0.08 0"/>
<feBlend mode="normal" in2="BackgroundImageFix" result="effect1_dropShadow"/>
<feBlend mode="normal" in="SourceGraphic" in2="effect1_dropShadow" result="shape"/>
<feColorMatrix in="SourceAlpha" type="matrix" values="0 0 0 0 0 0 0 0 0 0 0 0 0 0 0 0 0 0 127 0" result="hardAlpha"/>
<feOffset dy="4"/>
<feGaussianBlur stdDeviation="2"/>
<feComposite in2="hardAlpha" operator="arithmetic" k2="-1" k3="1"/>
<feColorMatrix type="matrix" values="0 0 0 0 0 0 0 0 0 0 0 0 0 0 0 0 0 0 0.12 0"/>
<feBlend mode="normal" in2="shape" result="effect2_innerShadow"/>
</filter>
<filter id="filter3_i" x="46.4293" y="69.3828" width="12.1295" height="16.1295" filterUnits="userSpaceOnUse" color-interpolation-filters="sRGB">
<feFlood flood-opacity="0" result="BackgroundImageFix"/>
<feBlend mode="normal" in="SourceGraphic" in2="BackgroundImageFix" result="shape"/>
<feColorMatrix in="SourceAlpha" type="matrix" values="0 0 0 0 0 0 0 0 0 0 0 0 0 0 0 0 0 0 127 0" result="hardAlpha"/>
<feOffset dy="4"/>
<feGaussianBlur stdDeviation="2"/>
<feComposite in2="hardAlpha" operator="arithmetic" k2="-1" k3="1"/>
<feColorMatrix type="matrix" values="0 0 0 0 0 0 0 0 0 0 0 0 0 0 0 0 0 0 0.46 0"/>
<feBlend mode="normal" in2="shape" result="effect1_innerShadow"/>
</filter>
<filter id="filter4_di" x="5.63281" y="29.58" width="93.7268" height="93.7268" filterUnits="userSpaceOnUse" color-interpolation-filters="sRGB">
<feFlood flood-opacity="0" result="BackgroundImageFix"/>
<feColorMatrix in="SourceAlpha" type="matrix" values="0 0 0 0 0 0 0 0 0 0 0 0 0 0 0 0 0 0 127 0" result="hardAlpha"/>
<feOffset dy="1"/>
<feGaussianBlur stdDeviation="9"/>
<feComposite in2="hardAlpha" operator="out"/>
<feColorMatrix type="matrix" values="0 0 0 0 0.0986806 0 0 0 0 0.102496 0 0 0 0 0.116667 0 0 0 0.08 0"/>
<feBlend mode="normal" in2="BackgroundImageFix" result="effect1_dropShadow"/>
<feBlend mode="normal" in="SourceGraphic" in2="effect1_dropShadow" result="shape"/>
<feColorMatrix in="SourceAlpha" type="matrix" values="0 0 0 0 0 0 0 0 0 0 0 0 0 0 0 0 0 0 127 0" result="hardAlpha"/>
<feOffset dy="4"/>
<feGaussianBlur stdDeviation="3.5"/>
<feComposite in2="hardAlpha" operator="arithmetic" k2="-1" k3="1"/>
<feColorMatrix type="matrix" values="0 0 0 0 0 0 0 0 0 0 0 0 0 0 0 0 0 0 0.12 0"/>
<feBlend mode="normal" in2="shape" result="effect2_innerShadow"/>
</filter>
<filter id="filter5_di" x="13.8643" y="29.9417" width="80.875" height="34.6965" filterUnits="userSpaceOnUse" color-interpolation-filters="sRGB">
<feFlood flood-opacity="0" result="BackgroundImageFix"/>
<feColorMatrix in="SourceAlpha" type="matrix" values="0 0 0 0 0 0 0 0 0 0 0 0 0 0 0 0 0 0 127 0" result="hardAlpha"/>
<feOffset dx="2"/>
<feGaussianBlur stdDeviation="3"/>
<feComposite in2="hardAlpha" operator="out"/>
<feColorMatrix type="matrix" values="0 0 0 0 0 0 0 0 0 0 0 0 0 0 0 0 0 0 0.14 0"/>
<feBlend mode="normal" in2="BackgroundImageFix" result="effect1_dropShadow"/>
<feBlend mode="normal" in="SourceGraphic" in2="effect1_dropShadow" result="shape"/>
<feColorMatrix in="SourceAlpha" type="matrix" values="0 0 0 0 0 0 0 0 0 0 0 0 0 0 0 0 0 0 127 0" result="hardAlpha"/>
<feOffset dy="4"/>
<feGaussianBlur stdDeviation="2"/>
<feComposite in2="hardAlpha" operator="arithmetic" k2="-1" k3="1"/>
<feColorMatrix type="matrix" values="0 0 0 0 0 0 0 0 0 0 0 0 0 0 0 0 0 0 0.11 0"/>
<feBlend mode="normal" in2="shape" result="effect2_innerShadow"/>
</filter>
</defs>
</svg>
