<svg width="1941" height="1091" viewBox="0 0 1941 1091" fill="none" xmlns="http://www.w3.org/2000/svg">
<g id="mainBg" clip-path="url(#clip0)">
<g id="g10" filter="url(#filter0_d)">
<g id="g12">
<path id="path14" d="M1937.43 10.9701V1099.6H-3.30029V10.9701H1937.43Z" fill="#EDF5FC"/>
<g id="g16">
<g id="g18">
<path id="path24" d="M1535.53 1292.32C1602.4 1266.83 1632.55 1189.9 1625.16 1122.39C1617.77 1054.88 1581.85 993.638 1550.76 932.396C1519.67 871.152 1492.26 804.001 1503.54 736.968C1509.65 700.67 1530.39 663.392 1566.88 650.253C1612.25 633.917 1660.88 659.629 1705.76 677.101C1776.16 704.505 1855.03 712.311 1929.97 699.289C1997.15 687.608 2062.16 659.569 2130.41 662.527C2214.76 666.183 2291.37 719.243 2332.67 788.517C2373.99 857.792 2383.25 940.915 2372.79 1019.73C2363.1 1092.77 2335.46 1166.37 2279.44 1217.76C2229.25 1263.78 2160.27 1288.22 2090.92 1297.75C2021.58 1307.28 1951.02 1303.08 1881.07 1298.85C1767.57 1292 1654.04 1285.14 1540.53 1278.28" fill="#7470FB"/>
<path id="path26" d="M2113.4 403.142C2045.45 441.523 1976.39 480.352 1899.89 499.889C1823.4 519.427 1737.14 517.516 1670.04 477.81C1619.82 448.085 1585.13 400.673 1546.02 358.692C1506.92 316.713 1457.48 277.239 1398.28 273.338C1356.37 270.578 1315.86 286.115 1274.52 293.167C1233.19 300.22 1184.06 295.853 1159.18 264.01C1135.16 233.262 1144.5 187.796 1170.02 158.138C1195.55 128.48 1233.47 111.122 1270.47 95.4736C1307.47 79.8268 1345.88 64.2899 1374.1 36.8829C1405.8 6.10642 1420.99 -35.9798 1441.58 -74.2024C1488.69 -161.652 1568.7 -233.03 1664.01 -272.664C1759.34 -312.29 1869.32 -319.903 1969.78 -293.807C2027.03 -278.934 2082.72 -252.224 2119.82 -208.587C2161.18 -159.923 2175.25 -95.8257 2182.43 -33.8859C2199.37 111.797 2185.1 260.625 2140.75 401.114" fill="black" fill-opacity="0.7"/>
<path id="path30" d="M-90.3985 1158.29C-9.98763 1139.29 50.1871 1078.1 104.394 1019.09C158.601 960.081 216.15 897.533 295.186 873.986C317.057 867.469 340.038 864.169 361.171 855.766C382.301 847.365 402.214 832.429 408.203 811.597C414.096 791.092 405.283 769.086 391.984 751.921C378.686 734.754 361.12 720.973 346.139 705.079C293.753 649.501 276.391 566.702 302.421 496.575C319.58 450.346 354.051 409.067 358.504 360.281C363.586 304.622 326.829 251.336 278.36 219.055C229.893 186.773 171.081 171.789 113.304 158.868C53.4534 145.484 -10.7456 133.892 -68.3591 154.18C-113.706 170.149 -149.858 204.888 -172.284 245.254C-194.711 285.622 -204.377 331.342 -207.441 376.798C-224.742 633.513 -41.3402 876.222 -67.9105 1132.24" fill="#7470FB"/>
</g>
</g>
</g>
</g>
</g>
<defs>
<filter id="filter0_d" x="-212.595" y="-309.059" width="2593.34" height="1620.58" filterUnits="userSpaceOnUse" color-interpolation-filters="sRGB">
<feFlood flood-opacity="0" result="BackgroundImageFix"/>
<feColorMatrix in="SourceAlpha" type="matrix" values="0 0 0 0 0 0 0 0 0 0 0 0 0 0 0 0 0 0 127 0"/>
<feOffset dy="4"/>
<feGaussianBlur stdDeviation="2"/>
<feColorMatrix type="matrix" values="0 0 0 0 0 0 0 0 0 0 0 0 0 0 0 0 0 0 0.25 0"/>
<feBlend mode="normal" in2="BackgroundImageFix" result="effect1_dropShadow"/>
<feBlend mode="normal" in="SourceGraphic" in2="effect1_dropShadow" result="shape"/>
</filter>
<clipPath id="clip0">
<rect width="1941" height="1091" fill="white"/>
</clipPath>
</defs>
</svg>
