<svg width="3109" height="1729" viewBox="0 0 3109 1729" fill="none" xmlns="http://www.w3.org/2000/svg">
<g id="MEMPHIS_BACKGROUND_Mesa_de_trabajo_1 2" clip-path="url(#clip0)">
<g id="g10" filter="url(#filter0_d)">
<g id="g12">
<path id="path14" d="M3103.27 17.3853V1742.63H-5.28589V17.3853H3103.27Z" fill="#EDF5FC"/>
<g id="g16">
<g id="g18">
<path id="path24" d="M2459.54 2048.05C2566.64 2007.66 2614.94 1885.74 2603.1 1778.75C2591.27 1671.76 2533.73 1574.7 2483.94 1477.65C2434.14 1380.59 2390.23 1274.17 2408.31 1167.94C2418.08 1110.41 2451.31 1051.33 2509.75 1030.51C2582.42 1004.62 2660.32 1045.37 2732.21 1073.06C2844.97 1116.49 2971.31 1128.86 3091.33 1108.22C3198.94 1089.71 3303.06 1045.27 3412.39 1049.96C3547.5 1055.76 3670.2 1139.84 3736.36 1249.63C3802.54 1359.42 3817.38 1491.15 3800.62 1616.06C3785.09 1731.81 3740.82 1848.45 3651.09 1929.88C3570.7 2002.82 3460.22 2041.55 3349.14 2056.65C3238.06 2071.76 3125.04 2065.1 3013.01 2058.4C2831.2 2047.54 2649.37 2036.67 2467.55 2025.8" fill="#7470FB"/>
<path id="path26" d="M3385.14 638.894C3276.31 699.718 3165.69 761.254 3043.15 792.217C2920.63 823.18 2782.47 820.151 2674.99 757.226C2594.55 710.119 2538.98 634.98 2476.34 568.45C2413.71 501.923 2334.52 439.365 2239.7 433.182C2172.58 428.807 2107.68 453.43 2041.47 464.607C1975.26 475.784 1896.56 468.863 1856.71 418.398C1818.24 369.669 1833.2 297.617 1874.08 250.615C1914.97 203.613 1975.72 176.104 2034.98 151.305C2094.24 126.508 2155.76 101.886 2200.97 58.4515C2251.74 9.67738 2276.07 -57.0202 2309.06 -117.595C2384.5 -256.184 2512.66 -369.303 2665.33 -432.114C2818.03 -494.912 2994.18 -506.977 3155.11 -465.621C3246.8 -442.05 3335.99 -399.721 3395.43 -330.565C3461.68 -253.444 3484.21 -151.863 3495.71 -53.7018C3522.84 177.175 3499.99 413.035 3428.96 635.679" fill="black" fill-opacity="0.7"/>
<path id="path30" d="M-144.796 1835.63C-15.9977 1805.54 80.3873 1708.55 167.213 1615.04C254.039 1521.52 346.218 1422.4 472.815 1385.08C507.846 1374.75 544.657 1369.52 578.506 1356.2C612.352 1342.89 644.247 1319.22 653.839 1286.21C663.279 1253.71 649.162 1218.84 627.862 1191.63C606.561 1164.43 578.425 1142.59 554.429 1117.4C470.52 1029.32 442.71 898.101 484.403 786.965C511.888 713.702 567.102 648.284 574.235 570.969C582.374 482.76 523.5 398.314 445.864 347.154C368.231 295.995 274.03 272.248 181.484 251.772C85.6192 230.56 -17.2118 212.189 -109.494 244.341C-182.129 269.65 -240.035 324.704 -275.956 388.675C-311.879 452.649 -327.362 525.106 -332.27 597.144C-359.981 1003.98 -66.2168 1388.62 -108.776 1794.35" fill="#7470FB"/>
</g>
</g>
</g>
</g>
</g>
<defs>
<filter id="filter0_d" x="-338.118" y="-489.791" width="4149.08" height="2563.59" filterUnits="userSpaceOnUse" color-interpolation-filters="sRGB">
<feFlood flood-opacity="0" result="BackgroundImageFix"/>
<feColorMatrix in="SourceAlpha" type="matrix" values="0 0 0 0 0 0 0 0 0 0 0 0 0 0 0 0 0 0 127 0"/>
<feOffset dy="4"/>
<feGaussianBlur stdDeviation="2"/>
<feColorMatrix type="matrix" values="0 0 0 0 0 0 0 0 0 0 0 0 0 0 0 0 0 0 0.25 0"/>
<feBlend mode="normal" in2="BackgroundImageFix" result="effect1_dropShadow"/>
<feBlend mode="normal" in="SourceGraphic" in2="effect1_dropShadow" result="shape"/>
</filter>
<clipPath id="clip0">
<rect width="3109" height="1729" fill="white"/>
</clipPath>
</defs>
</svg>
