<svg height="512pt" viewBox="0 0 512 512" width="512pt" xmlns="http://www.w3.org/2000/svg"><path d="m512 256c0 141.386719-114.613281 256-256 256s-256-114.613281-256-256 114.613281-256 256-256 256 114.613281 256 256zm0 0" fill="#fee3ac"/><path d="m508.878906 215.988281-102.757812-102.757812-138.445313 138.445312-76.449219-76.449219-85.34375 85.34375 37.867188 38.179688-10.949219 125.238281 85.195313 85.199219c12.402344 1.847656 25.089844 2.8125 38.003906 2.8125 141.386719 0 256-114.613281 256-256 0-13.613281-1.074219-26.972656-3.121094-40.011719zm0 0" fill="#fccc86"/><path d="m132.734375 262.371094h18.867187v161.628906h-18.867187zm0 0" fill="#d5cecb"/><path d="m360.398438 262.371094h18.867187v161.628906h-18.867187zm0 0" fill="#c0b5b1"/><path d="m379.265625 102h-123.265625l-37.734375 84.902344 37.734375 84.902344h123.265625c20.808594 0 37.734375-16.925782 37.734375-37.734376v-94.335937c0-20.804687-16.929688-37.734375-37.734375-37.734375zm0 0" fill="#4482d9"/><path d="m132.734375 102c-20.804687 0-37.734375 16.929688-37.734375 37.734375v94.335937c0 20.808594 16.929688 37.734376 37.734375 37.734376h123.265625v-169.804688zm0 0" fill="#69a8ff"/><path d="m360.398438 158.601562h-104.398438l-12.578125 9.433594 12.578125 9.433594h104.398438zm0 0" fill="#e6f1ff"/><path d="m313.230469 215.203125v-18.867187h-57.230469l-18.867188 9.433593 18.867188 9.433594zm0 0" fill="#e6f1ff"/><g fill="#fff"><path d="m198.769531 196.335938h57.230469v18.867187h-57.230469zm0 0"/><path d="m151.601562 158.601562h104.398438v18.867188h-104.398438zm0 0"/></g></svg>