<svg id="Layer_1" enable-background="new 0 0 512 512" height="512" viewBox="0 0 512 512" width="512" xmlns="http://www.w3.org/2000/svg"><g><g><path d="m331.533 48.01-51.484-32.246-14.817-14.269c-3.37-3.246-8.986-.857-8.986 3.822v9.282c-124.974.144-227.701 95.252-239.903 217.046l61.559-2.882c6.749-82.757 75.048-157.293 192.311-160.412 0 0 32.442-3.883 32.442-3.883l28.533-8.51c2.482-2.006 2.644-5.734.345-7.948zm-75.002-33.415c-.001 0-.002 0-.003 0l.003-.001z" fill="#ffe27a"/><path d="m264.886 94.984 19.038-15.382 17.793-7.104.937-8.029c-14.8-3.974-30.354-6.105-46.408-6.105-95.875 0-174.089 75.574-178.344 170.399l2.173-.102c13.281-85.482 87.251-151.197 176.456-151.197l-.285.1v13.294c0 4.46 5.17 6.929 8.64 4.126z" fill="#f9cf58"/><path d="m506.684 256.246h-9.036c0-.082.003-.164.003-.246 0-125.292-95.452-228.28-217.602-240.237l33.484 32.246c2.299 2.214 2.137 5.942-.346 7.949l-10.533 8.51 24.826 19.983c61.705 28.109 107.303 80.219 107.303 152.449 0 3.22-.09 6.419-.258 9.597.165 3.148.258 6.314.258 9.503 0 .082-.003.164-.003.246h-.342-13.294c-4.461 0-6.93 5.17-4.127 8.64l15.553 19.249 23.473 38.052c2.006 2.483 5.734 2.645 7.949.346l32.493-42.741 14.022-14.56c3.244-3.37.856-8.986-3.823-8.986z" fill="#ffba57"/><g><path d="m302.654 64.468-18.73 15.134c82.403 12.826 146.147 82.005 150.6 166.895.168-3.178.258-6.377.258-9.597.001-82.549-56.028-152-132.128-172.432z" fill="#ffac3e"/></g><g fill="#8bcaff"><path d="m14.844 255.754c0 .082-.003.164-.003.246.045-.069.003-.164.003-.246z"/><path d="m5.316 255.754h9.378.15.737c6.867 120.217 78.018 193.891 172.202 221.696l20.614-3.896 18.126-19.037 1.636-22.187c-85.257-13.473-150.449-87.284-150.449-176.33 0-.082.003-.164.003-.246h13.144c4.461 0 6.931-5.17 4.127-8.64l-39.026-48.301c-2.006-2.483-5.734-2.645-7.948-.346l-46.515 48.301c-3.246 3.37-.857 8.986 3.821 8.986z"/></g><path d="m208.398 473.554c-104.411-20.996-184.436-109.355-192.816-217.8h-.737c0 .082-.003.164-.003.246 0 125.107 95.169 227.982 217.06 240.188l-2.268-10.851z" fill="#6cc4ff"/><path d="m369.519 241.468-20.189-3.035c-2.455-13.091-7.601-25.232-14.846-35.827l12.133-16.426c2.124-2.875 1.825-6.872-.702-9.399l-10.45-10.449c-2.527-2.528-6.524-2.826-9.399-.702l-16.426 12.133c-10.595-7.245-22.736-12.391-35.827-14.846l-3.035-20.188c-.531-3.535-3.568-6.149-7.143-6.149h-14.778c-3.574 0-6.611 2.615-7.143 6.149l-3.035 20.188c-13.092 2.455-25.232 7.602-35.827 14.846l-16.427-12.133c-2.875-2.124-6.871-1.825-9.399.702l-10.45 10.449c-2.528 2.528-2.826 6.524-.703 9.399l12.134 16.426c-7.245 10.595-12.391 22.736-14.846 35.827l-20.188 3.035c-3.535.531-6.149 3.568-6.149 7.143v14.778c0 3.575 2.614 6.612 6.149 7.143l20.188 3.035c2.455 13.091 7.602 25.232 14.846 35.827l-12.134 16.426c-2.124 2.875-1.825 6.872.703 9.399l10.45 10.45c2.528 2.528 6.524 2.826 9.399.702l16.427-12.133c10.595 7.245 22.736 12.391 35.827 14.846l3.035 20.188c.531 3.535 3.568 6.149 7.143 6.149h14.778c3.575 0 6.612-2.615 7.143-6.149l3.035-20.188c13.091-2.456 25.232-7.602 35.827-14.846l16.427 12.133c2.875 2.124 6.872 1.825 9.399-.702l10.45-10.45c2.527-2.528 2.826-6.524.702-9.399l-12.133-16.426c7.245-10.595 12.391-22.736 14.846-35.827l20.189-3.035c3.535-.531 6.149-3.568 6.149-7.143v-14.778c-.001-3.575-2.615-6.611-6.15-7.143zm-66.873 33.632c-6.21 25.358-26.807 38.456-46.4 38.456-21.268 0-40.308-12.76-46.06-38.456l-.784-9.55c-.626-3.086-.956-6.279-.956-9.55 0-26.399 21.401-47.8 47.801-47.8 26.399 0 47.8 21.401 47.8 47.8 0 3.271-.33 6.464-.956 9.55z" fill="#ff4755"/><path d="m304.046 275.1c0-3.271-.33-6.464-.956-9.55-4.425 21.823-23.715 38.25-46.844 38.25s-42.419-16.427-46.844-38.25c-.626 3.086-.956 6.28-.956 9.55 0 26.399 21.401 47.8 47.8 47.8 26.399.001 47.8-21.4 47.8-47.8z" fill="#fc2b3a"/><path d="m256.246 478.305c-16.383 0-32.381-1.64-47.848-4.75l38.37 36.951c3.37 3.245 8.986.857 8.986-3.822v-9.285c.165 0 .328.006.492.006 125.295 0 228.286-95.457 240.238-217.613l-3.288 3.414c-21.601 111.168-119.466 195.099-236.95 195.099z" fill="#82d361"/><path d="m463.991 313.533c-2.214 2.299-5.943 2.137-7.949-.346l-23.473-29.052c-13.494 85.234-87.294 150.402-176.323 150.402-.164 0-.327-.006-.492-.006v-.093-13.294c0-4.461-5.17-6.93-8.64-4.127l-48.301 39.026c-2.483 2.006-2.645 5.734-.346 7.949l9.931 9.564c14.633 7.307 34.208 15.516 50.591 15.516 117.484 0 213.958-93.654 235.559-204.822l.335-2.794z" fill="#98db7c"/></g></g></svg>