<svg width="1237" height="714" viewBox="0 0 1237 714" fill="none" xmlns="http://www.w3.org/2000/svg">
<path d="M712.095 512.244C711.819 514.222 709.593 516.075 707.883 515.047C707.82 509.761 706.684 504.555 705.551 499.388C705.007 496.91 704.465 494.434 703.92 491.965C703.674 490.812 703.32 489.53 702.289 488.971C701.549 488.573 700.607 488.639 699.931 488.148C698.917 487.406 698.99 485.817 698.146 484.879C697.044 483.66 694.981 484.093 693.587 483.221C692.202 482.357 691.875 480.523 691.685 478.899L689.582 460.996C689.507 460.31 689.431 459.558 689.8 458.959C690.205 458.298 691.018 458.044 691.746 457.768C694.869 456.583 697.516 454.166 698.964 451.153C699.579 449.869 699.999 448.479 700.836 447.334C703.881 443.207 707.962 444.44 708.311 448.487C708.794 454.115 706.56 453.399 703.41 455.377C700.995 456.891 696.834 459.438 695.169 461.96C692.664 465.767 694.888 466.834 696.62 470.533C698.216 473.967 696.69 478.584 699.205 481.421C700.829 483.26 703.561 483.587 705.637 484.903C708.88 486.962 710.078 491.12 710.293 494.946C710.511 498.778 710.013 502.687 710.977 506.401C711.473 508.34 712.371 510.266 712.095 512.244ZM770.993 395.119C761.37 401.629 748.788 403.575 737.648 400.274C736.396 399.907 735.038 399.37 734.469 398.191C733.612 396.428 734.982 394.438 735.229 392.492C735.937 386.905 727.986 384.495 725.449 379.47C724.448 377.487 724.37 375.179 724.199 372.967C722.654 353.311 712.418 335.598 703.789 317.868C703.166 316.579 702.533 315.177 702.795 313.761C703.058 312.352 704.675 311.136 705.932 311.83C704.997 315.17 707.046 319.067 710.328 320.188C711.827 314.469 712.637 306.958 707.517 304.016C705.776 303.012 703.684 302.837 701.674 302.739C693.763 302.346 685.81 302.79 677.996 304.06C676.687 304.27 675.259 304.487 674.126 303.813C673.118 303.218 672.6 302.07 671.892 301.135C669.975 298.566 664.857 297.172 662.14 299.411C659.126 301.899 661.427 307.31 655.654 308.064C652.382 308.489 649.245 306.805 646.376 305.176C643.304 303.432 640.166 301.63 637.925 298.908C637.134 297.931 636.43 296.837 635.371 296.171C633.327 294.886 630.702 295.58 628.29 295.553C625.879 295.533 622.94 293.778 623.589 291.46C623.792 290.738 624.317 290.164 624.727 289.534C627.76 284.882 623.745 278.262 618.459 276.578C613.165 274.895 607.454 276.573 602.155 278.243C594.217 280.751 586.272 283.258 578.329 285.761C575.328 286.711 572.185 287.668 569.084 287.104C566.433 286.618 563.651 285.046 561.227 286.225C557.938 287.824 558.47 292.723 556.485 295.794C554.585 298.729 550.537 299.674 548.578 302.575C546.312 305.935 547.663 310.421 547.426 314.469C546.962 322.271 540.55 328.192 534.909 333.608C529.271 339.019 523.546 346.073 524.994 353.758C525.438 356.114 526.551 358.341 526.715 360.731C526.847 362.716 526.322 364.675 525.799 366.587C524.149 372.633 522.496 378.678 520.84 384.724C526.388 394.528 532.526 404.007 539.207 413.078C542.501 417.552 545.997 421.998 550.561 425.163C555.122 428.332 560.943 430.102 566.318 428.674C568.72 428.032 570.967 426.782 573.443 426.525C576.895 426.166 580.285 427.79 583.745 427.639C587.788 427.468 591.297 424.948 594.544 422.535C597.794 420.125 601.325 417.63 605.366 417.512C609.415 417.395 613.768 420.907 612.911 424.855C612.721 425.719 612.303 426.576 612.425 427.455C612.689 429.336 615.126 429.983 616.996 429.729C618.879 429.472 620.881 428.779 622.586 429.609C624.905 430.749 625.166 434.019 624.4 436.488C623.36 439.835 621.118 442.658 619.633 445.827C618.144 449.004 617.529 453.026 619.643 455.817C620.74 457.265 622.402 458.154 623.758 459.36C626.019 461.357 627.369 464.18 628.46 466.99C633.166 479.016 634.203 492.424 631.591 505.058C630.431 510.64 626.881 515.191 625.762 520.346C624.505 526.162 629.142 532.66 631.859 537.397C636.008 544.607 638.462 552.787 638.984 561.087C639.19 564.396 639.131 567.86 640.642 570.808C641.783 573.013 643.695 574.705 645.274 576.622C651.313 583.993 652.072 594.217 652.57 603.735C653.84 605.43 656.467 605.41 658.387 604.512C660.306 603.608 661.851 602.055 663.717 601.054C668.4 598.539 674.126 599.85 679.405 599.254C688.498 598.224 696.473 590.718 698.046 581.708C698.485 579.205 698.49 576.578 699.572 574.285C701.191 570.825 705.08 568.481 705.605 564.696C705.808 563.194 705.434 561.636 705.762 560.157C706.797 555.488 713.944 554.02 714.559 549.271C714.859 546.991 713.463 544.888 712.581 542.766C709.954 536.466 712.166 528.506 717.663 524.467C719.721 522.954 722.124 521.972 724.221 520.517C734.318 513.509 734.096 498.306 729.837 486.771C728.177 482.271 726.04 477.727 726.348 472.939C726.551 469.781 727.815 466.788 729.29 463.992C732.989 456.957 738.117 450.674 744.268 445.644C748.277 442.37 752.882 439.423 755.165 434.778C756.569 431.943 756.963 428.713 758.056 425.746C760.047 420.335 764.212 416.077 767.462 411.323C770.705 406.568 773.115 400.476 770.993 395.119Z" fill="#B7C7EA"/>
<path d="M743.519 520.412C741.46 524.177 745.67 528.55 745.325 532.828C744.976 537.213 740.066 539.968 739.062 544.251C738.652 546.014 738.953 547.862 739.36 549.625C740.144 553.007 741.321 556.296 742.862 559.404C743.357 560.405 743.907 561.409 744.725 562.171C747.24 564.525 751.586 563.734 754.03 561.307C756.477 558.877 757.419 555.334 757.932 551.928C758.445 548.519 758.648 545 760.005 541.833C761.978 537.228 766.359 533.336 766.11 528.33C765.985 525.83 764.676 523.554 764.098 521.12C763.521 518.683 764.01 515.587 766.293 514.561C766.539 516.158 766.788 517.757 767.038 519.354C773.523 517.328 765.568 495.891 758.521 506.738C755.652 511.155 758.494 514.131 752.797 516.414C749.728 517.645 745.372 517.022 743.519 520.412Z" fill="#D9E1F2"/>
<path d="M692.229 201.936C696.288 201.635 699.32 199.071 701.327 195.55C697.482 196.469 693.702 198.346 692.229 201.936ZM708.909 147.753C708.931 147.988 708.931 148.222 708.909 148.478C708.843 149.355 708.653 150.188 708.374 150.998C708.716 151.02 709.038 151.02 709.292 150.998C709.805 149.909 709.485 148.842 708.909 147.753ZM982 187.178C981.636 187.881 981.19 188.587 980.953 189.356C980.696 190.21 980.696 191.128 980.484 191.983C979.844 194.544 977.473 196.212 975.337 197.77C973.842 198.837 972.367 200.034 971.471 201.635C971.11 202.297 970.851 203.025 970.446 203.686C968.331 207.254 961.987 207.979 965.982 203.003C968.439 199.907 972.111 195.358 975.166 192.664C976.211 191.746 977.493 190.977 978.198 189.783C979.353 187.817 978.711 185.361 978.797 183.097C978.86 180.834 980.589 178.121 982.769 178.763C983.58 181.518 983.304 184.594 982 187.178ZM781.523 261.861C779.792 263.421 777.294 263.849 774.986 263.485C774.432 263.954 774.837 264.916 775.457 265.299C776.078 265.685 776.844 265.792 777.379 266.305C778.339 267.223 777.955 268.803 778.107 270.104C778.383 272.241 780.197 273.865 780.69 275.935C781.567 279.674 777.528 283.112 773.685 283.134C765.654 283.197 760.016 276.683 757.945 269.677C756.748 265.685 754.463 254.814 760.614 254.194C758.756 251.76 760.699 249.069 759.547 246.463C758.905 245.052 757.325 244.371 756.255 243.238C754.121 240.974 754.441 237.153 756.255 234.611C758.074 232.069 760.978 230.575 763.881 229.442C766.723 228.331 769.927 227.476 772.725 228.631C775.543 229.784 777.228 233.779 775.137 235.979C772.871 238.347 768.239 236.982 766.166 239.544C764.865 241.126 765.312 243.624 766.616 245.203C767.942 246.783 769.902 247.66 771.807 248.407C772.872 248.834 774.026 249.325 774.454 250.373C775.116 251.93 773.77 253.51 772.916 254.963C772.083 256.438 772.254 258.999 773.941 258.999C775.584 258.98 775.841 256.65 776.761 255.283C778.041 253.361 781.352 253.659 782.634 255.603C783.894 257.525 783.23 260.323 781.523 261.861ZM1236.94 138.272C1236.77 137.544 1236.19 136.968 1235.61 136.455C1231.7 132.868 1227.35 129.772 1222.67 127.294C1225.62 127.037 1228.67 126.759 1231.3 125.35C1233.93 123.961 1236.04 121.143 1235.65 118.196C1235 113.154 1227.86 110.228 1228.59 105.21C1228.93 102.947 1230.89 100.661 1229.83 98.6324C1229.08 97.243 1227.28 96.8817 1225.7 96.6668C1217.46 95.5558 1209.22 94.4473 1200.95 93.3582C1201.31 96.4984 1200.44 99.9998 1197.9 101.9C1195.34 103.78 1191.02 103.159 1189.8 100.234C1189.4 99.2087 1189.36 98.0122 1188.65 97.1381C1187.18 95.2579 1184.21 96.3469 1181.94 97.2235C1177.1 99.1037 1171.54 99.1037 1166.69 97.2016C1165.75 96.8158 1164.73 96.3055 1164.35 95.3654C1163.77 93.976 1164.73 92.4597 1164.82 90.9653C1164.94 88.4039 1162.3 86.4163 1159.73 86.1819C1157.19 85.9695 1154.71 86.9926 1152.26 87.7837C1145.15 90.0912 1136.71 90.389 1130.86 85.7326C1129.13 84.3652 1127.7 82.6145 1125.84 81.44C1123.21 79.7748 1119.99 79.4329 1116.89 79.113C1108.92 78.3 1100.98 77.4893 1093.01 76.6762C1092.24 76.5932 1091.37 76.5492 1090.73 76.9985C1089.7 77.7457 1089.87 79.3059 1089.53 80.5219C1088.89 82.8929 1086.2 84.1309 1083.76 84.3018C1081.31 84.4727 1078.83 83.8964 1076.4 84.1748C1074.58 84.3653 1072.81 85.0489 1070.99 84.9439C1069.16 84.8365 1067.17 83.5546 1067.21 81.7404C1064.93 83.1712 1063.41 85.7766 1063.33 88.4869C1058.69 88.9997 1052.86 85.6911 1053.86 81.1201C1054.15 79.9457 1054.83 78.8982 1054.93 77.7017C1055.55 70.2715 1037.19 68.6257 1033.04 71.8293C1031.91 72.7059 1031.04 73.8803 1029.97 74.8204C1025.46 78.7492 1017.39 77.189 1014.66 71.8513C1008.16 71.0382 1001.56 71.0821 995.049 71.9367C992.4 67.4512 985.524 69.5658 981.124 72.364C976.724 75.1623 970.316 77.9166 966.964 73.9243C978.069 71.402 988.6 66.3622 997.547 59.3153C998.446 58.6096 999.427 57.6476 999.212 56.4951C999.085 55.7064 998.402 55.1497 997.74 54.6808C993.618 51.8191 988.556 50.3028 983.536 50.4298C979.866 50.5153 975.508 51.1794 973.178 48.3592C971.728 46.628 971.579 43.9591 969.803 42.5283C968.119 41.1633 965.704 41.4807 963.57 41.8445C958.85 42.6992 954.108 43.5538 949.388 44.4084C948.66 44.5354 947.85 44.7063 947.337 45.2411C946.675 45.9663 946.717 47.0772 946.653 48.0808C946.248 54.317 938.41 58.7171 932.859 55.8139C931.128 54.8933 929.653 53.4405 927.776 52.8642C925.405 52.161 922.863 52.9716 920.536 53.7823C910.732 57.1788 900.95 60.5753 891.168 63.9693C893.796 65.764 897.234 66.3427 900.311 65.5295C901.229 67.1729 898.836 68.6257 896.999 69.0115C889.525 70.5693 882.07 72.1296 874.596 73.6679C878.867 76.913 883.013 80.351 886.983 83.9599C888.905 82.6145 890.722 86.1184 889.994 88.3599C889.291 90.6015 887.943 93.3778 889.652 94.982C887.369 94.2128 885.403 92.5256 884.292 90.3476C885.486 89.471 886.641 88.5749 887.838 87.6763C885.233 88.211 882.371 86.5018 881.58 83.9599C876.816 83.0418 872.267 80.9932 868.445 78.002C867.676 79.7967 868.724 82.1457 870.582 82.8074C868.829 83.0418 867.056 83.2567 865.308 83.4691C865.881 86.2039 868.338 88.4234 871.114 88.7433C867.613 89.6419 863.703 88.8092 860.842 86.5872C863.449 82.6584 859.623 76.4198 854.928 76.9765C857.616 77.3403 858.065 81.2056 856.891 83.6401C855.694 86.0965 853.604 88.2965 853.643 91.0092C853.687 94.3398 856.783 98.3345 854.2 100.447C857.34 103.074 863.191 98.2906 865.82 101.409C866.631 102.39 866.716 103.736 867.056 104.954C868.081 108.607 872.098 111.149 875.834 110.507C873.678 113.923 868.553 110.551 866.204 107.262C863.877 103.973 858.619 100.703 856.59 104.185C855.931 105.337 856.058 106.727 856.058 108.028C855.931 117.532 844.782 125.072 835.918 121.634C839.293 117.471 847.216 119.114 849.8 114.435C850.847 112.514 850.569 110.165 850.249 108.009C849.204 100.959 848.178 93.9125 847.131 86.8656C847.751 83.6181 847.986 80.2876 847.834 76.9985C844.12 78.3 838.14 78.129 838.267 74.2002C835.105 79.4329 831.945 84.6436 828.786 89.8763C826.862 93.0164 825.411 97.9707 828.698 99.614C830.9 98.7179 833.464 100.576 834.08 102.881C834.722 105.167 833.911 107.601 832.864 109.737C828.124 96.6253 804.141 102.669 797.902 90.1961C795.04 91.3071 797.648 95.7072 800.53 96.7523C803.435 97.7998 807.408 99.6579 806.339 102.542C805.528 104.805 802.41 104.805 800.017 104.634C793.097 104.141 786.03 105.745 779.962 109.161C779.43 106.727 778.873 104.314 778.339 101.9C773.301 105.467 768.239 109.032 763.197 112.621C760.741 114.35 758.138 116.145 755.147 116.465C752.158 116.765 748.72 114.97 748.334 112.001C747.948 109.012 752.285 106.407 754.209 108.712C755.039 103.245 747.565 98.6764 743.079 101.921C746.048 106.961 746.134 113.583 743.25 118.687C742.183 120.586 740.537 122.381 738.403 122.723C736.245 123.043 733.766 121.184 734.216 119.048C731.483 121.463 729.945 125.157 730.138 128.788C725.696 130.241 720.4 128.51 717.643 124.708C717.988 126.825 718.327 128.915 718.669 131.03C715.465 134.468 708.46 131.992 708.14 127.294C708.054 125.904 708.418 124.539 708.418 123.15C708.418 118.408 704.233 114.885 700.429 112.045C706.111 114.201 711.834 116.357 717.516 118.516C720.72 119.732 724.136 120.972 727.489 120.33C732.401 119.392 735.564 112.792 731.207 109.376C723.369 103.245 714.332 98.6324 704.768 95.8781C702.011 95.087 699.064 94.4472 696.351 95.3214C694.129 96.027 691.16 97.4359 689.966 95.4508C692.185 95.7707 694.578 94.9161 696.095 93.2288C691.46 92.2033 686.76 91.5416 682.02 91.3072C676.553 96.154 672.837 103.032 674.419 109.95C676.853 120.608 690.691 129.535 685.632 139.209C690.393 138.142 695.369 137.097 700.087 138.291C702.631 138.912 705.085 140.406 706.751 142.413C706.731 142.306 706.751 142.201 706.773 142.093C708.184 141.624 709.7 141.131 711.153 141.539C712.584 141.922 713.756 143.609 713.031 144.933C712.54 145.853 711.258 146.62 711.705 147.56C712.005 148.159 712.796 148.244 713.414 148.437C715.165 148.969 716.149 151.235 715.338 152.878C712.816 152.729 710.296 152.6 707.776 152.495C706.921 154.331 705.771 156.082 704.958 157.918C701.562 165.585 704.04 174.385 704.319 182.756C704.445 187.051 703.461 191.834 701.327 195.55C701.84 195.443 702.353 195.336 702.863 195.25C712.369 193.626 723.218 196.041 729.049 203.728C734.858 211.417 732.914 224.637 723.987 228.246C720.591 229.613 716.64 229.571 713.544 231.515C712.284 232.282 711.344 233.649 710.916 235.08C716.681 231.813 722.62 228.673 729.134 227.457C727.703 230.531 724.864 232.88 721.594 233.693C722.683 234.396 722.322 236.232 721.233 236.938C720.141 237.644 718.71 237.514 717.453 237.258C716.168 237.002 714.845 236.66 713.588 236.982C712.476 237.258 711.6 238.113 711.175 239.16C710.96 239.629 710.853 240.142 710.853 240.655C710.853 241.018 710.916 241.338 711.024 241.68C714.332 238.904 719.628 238.818 723.003 241.531C724.307 242.576 725.332 243.944 726.722 244.884C728.26 245.909 730.265 246.378 731.439 247.831C732.594 249.303 731.781 252.25 729.967 251.867C729.901 252.785 730.863 253.447 731.759 253.618C732.658 253.789 733.642 253.725 734.453 254.131C736.33 255.112 735.991 258.145 734.345 259.471C732.702 260.794 730.414 260.902 728.299 260.924C722.749 261.007 717.004 261.05 711.92 258.787C709.529 257.739 707.371 256.182 704.892 255.305C702.436 254.428 699.447 254.343 697.442 256.033C696.5 256.821 695.882 257.932 694.986 258.787C692.828 260.858 689.175 261.136 686.74 259.405C684.731 257.954 683.751 255.263 684.22 252.829C681.913 255.156 679.947 257.847 678.538 260.772C679.757 264.232 680.973 267.736 682.191 271.196C682.596 272.326 682.982 273.437 683.388 274.548C684.562 277.942 686.484 281.915 690.051 282.15C694.578 282.45 699.105 276.299 702.695 281.852C703.376 282.919 703.591 284.201 703.591 285.483C703.569 288.003 707.029 291.162 708.887 289.199C708.675 287.382 708.482 285.441 709.314 283.795C710.149 282.172 712.433 281.168 713.885 282.299C714.867 283.068 715.06 284.457 715.123 285.676C715.209 287.49 715.123 289.326 714.889 291.121C714.332 295.413 712.625 299.877 708.995 302.182C706.155 303.976 702.096 305.258 704.402 309.06C704.936 309.893 707.095 308.933 707.693 309.744C709.038 311.622 708.098 313.609 708.289 315.829C708.653 320.549 714.015 322.92 716.94 326.636C720.996 331.761 720.141 339.108 722.151 345.345C726.231 358.095 742.291 366.273 741.394 379.622C741.028 384.813 738.489 391.325 742.76 394.316C745.621 396.302 749.531 394.893 752.69 393.418C758.607 390.686 764.545 387.931 770.481 385.174C772.893 384.066 775.457 382.806 776.698 380.435C777.335 379.195 777.55 377.742 778.446 376.675C779.77 375.117 782.058 374.902 784.001 374.262C788.379 372.787 791.304 368.666 793.502 364.588C795.873 360.166 797.734 355.468 799.057 350.619C799.397 349.337 799.719 347.994 799.397 346.69C798.246 341.97 789.981 341.521 789.551 336.674C789.383 334.645 790.792 332.853 791.453 330.929C792.115 329.007 791.39 326.167 789.361 326.189C788.142 329.776 786.819 333.514 784.106 336.139C781.374 338.789 776.761 339.9 773.77 337.573C771.548 335.861 770.823 332.894 769.306 330.545C766.999 326.914 762.814 324.714 760.807 320.912C758.797 317.111 761.744 310.703 765.717 312.349C767.661 319.545 772.596 325.867 779.132 329.498C783.166 328.13 787.056 326.294 790.684 324.031C792.499 322.578 794.894 325.291 795.084 327.598C795.277 329.925 794.911 332.745 796.794 334.091C797.756 334.794 799.035 334.838 800.232 334.838C810.013 334.838 819.773 333.705 829.277 331.463C827.333 337.143 832.566 343.977 838.565 343.55C837.842 345.877 835.513 347.608 833.078 347.63C834.253 349.916 835.493 352.306 837.584 353.844C839.676 355.361 842.86 355.703 844.696 353.888C846.425 352.201 846.662 349.061 848.904 348.121C851.509 347.032 854.095 350.301 853.88 353.119C853.665 355.937 851.892 358.352 850.955 361.021C849.053 366.466 850.825 372.446 852.579 377.935C855.973 388.527 859.496 399.398 866.436 408.112C868.936 405.763 871.434 403.436 873.934 401.085C877.309 401.664 877.416 406.511 876.347 409.736C875.258 413.003 874.254 417.381 877.18 419.154C879.807 420.734 883.33 418.192 883.909 415.203C884.483 412.192 883.118 409.223 881.794 406.467C880.066 402.943 878.354 399.398 876.647 395.852C876.049 394.636 875.429 393.335 875.536 391.965C875.622 390.791 876.198 389.745 876.689 388.678C878.227 385.24 878.718 381.309 878.034 377.593C887.196 372.939 894.863 365.377 899.585 356.237C900.31 354.87 900.994 353.417 902.252 352.499C906.01 349.767 912.334 353.61 915.667 350.343C920.299 352.072 924.208 355.617 926.408 360.061C928.01 363.306 929.504 367.621 933.113 367.899C927.58 370.16 923.822 376.184 924.25 382.144C929.824 383.553 935.975 378.277 935.418 372.575C937.599 371.337 940.483 372.851 941.635 375.073C942.788 377.295 942.661 379.942 942.512 382.42C942.084 389.958 941.635 397.476 941.21 404.994C941.081 407.236 940.995 409.651 942.233 411.506C943.408 413.26 945.63 414.241 946.441 416.207C947.657 419.088 945.222 422.721 946.804 425.434C947.657 426.863 949.346 427.505 950.648 428.508C953.424 430.642 954.364 434.381 956.371 437.264C958.378 440.146 963.013 442.026 965.193 439.272C960.557 435.641 957.59 429.961 957.289 424.064C957.226 422.721 957.27 421.31 956.713 420.092C956.029 418.556 954.555 417.552 953.319 416.419C946.057 409.778 946.953 398.309 948.428 388.571C951.8 393.503 957.204 396.985 963.098 398.011C961.199 401.92 962.842 407.15 966.624 409.287C966.878 405.463 969.74 401.962 973.437 400.958C975.039 400.509 976.746 400.487 978.262 399.825C982.813 397.862 983.304 391.709 983.067 386.776C982.982 384.833 982.874 382.806 981.829 381.18C980.079 378.511 976.531 377.893 973.757 376.311C968.781 373.493 966.344 366.852 968.353 361.47C970.338 356.108 976.514 352.648 982.127 353.781C983.985 354.592 983.153 357.539 981.529 358.757C979.908 359.973 977.686 360.701 976.938 362.601C975.871 365.206 979.031 368.112 981.788 367.513C984.542 366.937 986.312 364.012 986.505 361.192C986.679 358.371 985.653 355.639 984.628 352.99C990.564 354.294 997.098 352.201 1001.18 347.716C1002.33 346.456 1003.36 344.981 1004.83 344.129C1007.71 342.441 1011.83 343.359 1014.21 340.989C1016.02 339.172 1015.89 336.269 1016.45 333.768C1017.5 329.114 1021.08 325.547 1023.22 321.298C1025.31 317.047 1027.41 310.513 1026.27 305.813C1025.46 302.397 1023.69 299.301 1022.47 296.011C1021.59 293.682 1021 291.27 1020.68 288.794C1020.55 287.788 1020.47 286.677 1020.93 285.781C1021.77 284.179 1023.82 283.795 1025.35 282.855C1027.64 281.446 1028.84 278.477 1028.15 275.891C1021.81 278.008 1014.38 276.404 1009.48 271.836C1010.9 269.101 1014.04 267.819 1016.75 266.366C1019.48 264.938 1022.32 262.589 1022.19 259.493C1023.93 259.493 1025.63 259.493 1027.34 259.471C1027.47 262.288 1026.15 265.128 1023.93 266.859C1026.27 268.888 1029.8 266.967 1032.57 265.514C1035.33 264.061 1039.94 264.061 1040.28 267.157C1040.61 270.126 1036.1 272.134 1036.72 275.061C1039.88 273.992 1043.25 278.199 1041.54 281.061C1041.07 281.83 1040.32 282.577 1040.45 283.476C1040.61 284.565 1041.88 284.989 1042.85 285.524C1045.52 286.933 1046.67 290.608 1045.3 293.299C1047.16 291.846 1049.02 290.415 1050.88 288.962C1051.3 290.671 1053.23 291.824 1054.96 291.441C1056.66 291.035 1057.86 289.114 1057.48 287.404C1057.11 285.717 1055.55 284.543 1055.04 282.919C1054.27 280.462 1056.02 277.73 1055.17 275.296C1054.51 273.394 1052.48 272.39 1050.83 271.196C1049.19 269.999 1047.72 267.841 1048.7 266.068C1049.3 264.979 1050.58 264.532 1051.62 263.89C1056.86 260.645 1057.97 251.398 1064.12 251.183C1065.36 251.142 1066.57 251.525 1067.79 251.354C1071.29 250.863 1072.51 246.612 1074.16 243.475C1077.79 236.489 1086.24 233.095 1090.07 226.197C1092.99 220.898 1092.65 214.428 1094.38 208.597C1095.64 204.37 1098.03 199.97 1096.56 195.807C1094.72 190.616 1086.33 189.59 1083.3 194.203C1083.79 191.597 1084.28 188.992 1084.79 186.365C1082.95 192.281 1070.76 186.943 1081.37 181.156C1088.46 177.311 1094.81 172.036 1099.91 165.798C1101.64 163.686 1103.29 161.4 1105.55 159.862C1113.9 154.224 1125.39 161.207 1135.17 158.751C1135.52 159.713 1135.83 160.672 1136.17 161.634C1133.55 162.724 1130.94 163.835 1128.34 164.924C1133.85 167.507 1139.79 161.378 1145.87 161.634C1147.65 161.698 1150.21 161.72 1150.31 159.969C1148.67 159.713 1146.55 158.817 1146.85 157.193C1146.96 156.595 1147.39 156.126 1147.82 155.696C1149.39 154.011 1151 152.344 1152.6 150.656C1155.27 147.839 1159.58 144.847 1162.64 147.282C1164.94 149.14 1163.88 153.604 1160.97 154.224C1162.87 156.126 1166.1 154.395 1168 152.473C1169.9 150.573 1172.35 148.266 1174.87 149.247C1175.58 147.839 1175.58 146.11 1174.92 144.698C1176.95 143.566 1179.45 143.312 1181.64 143.993C1180.3 145.126 1179.38 146.772 1179.1 148.522C1178.91 149.653 1179 150.808 1178.66 151.897C1177.44 155.955 1172.01 156.424 1168.19 158.282C1161.44 161.549 1159.09 170.198 1153.03 174.576C1151.53 175.665 1149.84 176.478 1148.61 177.845C1145.93 180.792 1146.28 185.383 1147.52 189.163C1148.8 192.943 1150.82 196.574 1151.06 200.546C1151.1 201.293 1151.08 202.041 1151.02 202.768C1150.74 205.415 1153.99 206.89 1155.85 205.01C1156.29 204.541 1156.74 204.092 1157.19 203.642C1159.35 201.423 1161.59 199.137 1162.68 196.232C1163.43 194.181 1163.77 191.683 1165.67 190.616C1167.06 189.825 1168.79 190.166 1170.37 189.89C1171.95 189.634 1173.64 188.032 1172.84 186.621C1170.26 184.785 1170.71 180.15 1173.57 178.805C1174.77 179.362 1175.96 179.938 1177.16 180.514C1180 179.213 1175.71 174.556 1177.26 171.843C1177.86 170.796 1179.29 170.156 1179.25 168.96C1179.21 167.465 1177.1 167.209 1175.62 167.443C1174.64 162.594 1177.99 157.278 1182.78 156.082C1182.69 157.086 1182.6 158.111 1182.52 159.115C1184.89 157.62 1187.26 156.126 1189.63 154.607C1190.06 155.762 1190.46 156.915 1190.87 158.089C1193.71 159.564 1195.93 153.091 1198.88 154.287C1199.52 154.566 1199.95 155.142 1200.48 155.569C1202.6 157.3 1206.4 155.974 1206.97 153.306C1209.17 143.182 1221.48 142.713 1231.79 141.859C1234.18 141.666 1237.49 140.618 1236.94 138.272Z" fill="#D9E1F2"/>
<path d="M723.993 228.246C720.597 229.614 716.646 229.572 713.55 231.516C712.29 232.283 711.35 233.65 710.922 235.081C710.41 235.359 709.897 235.657 709.384 235.936C700.374 241.061 703.748 229.785 695.312 229.848C687.088 229.912 689.459 243.688 685.784 242.47C684.844 244.562 686.382 247.063 685.723 249.263C685.486 250.032 685.018 250.693 684.676 251.419C684.461 251.868 684.312 252.337 684.226 252.83C681.919 255.157 679.953 257.848 678.544 260.773C678.437 260.453 678.332 260.155 678.224 259.833C676.217 257.848 672.542 259.96 671.905 262.695C671.263 265.429 672.459 268.228 673.27 270.918C674.081 273.609 674.359 276.896 672.352 278.883C671.305 279.931 669.595 280.656 671.112 283.049C671.646 283.923 672.716 284.265 673.741 284.116C675.917 283.796 677.778 287.832 675.641 287.959C671.71 288.431 668.829 284.309 667.591 280.529C666.372 276.769 665.518 272.391 662.206 270.213C660.585 269.146 658.383 268.633 657.594 266.86C656.27 263.891 660.114 260.412 658.705 257.484C657.318 254.622 652.662 255.67 650.247 253.555C648.218 251.739 648.498 248.257 646.533 246.401C645.529 245.439 644.14 245.075 642.858 244.584C638.8 243.026 635.447 239.779 633.76 235.787C631.43 236.214 631.775 239.671 632.883 241.766C637.156 249.753 643.947 256.373 652.041 260.453C649.416 261.777 648.11 264.768 647.045 267.522C645.4 271.622 643.776 275.743 642.152 279.865C639.676 279.567 637.093 279.203 635.105 277.709C633.12 276.215 632.051 273.16 633.525 271.175C636.238 273.8 641.49 272.862 643.117 269.466C644.738 266.028 642.174 261.371 638.416 260.944C639.996 256.458 634.956 252.53 630.512 250.842C626.071 249.155 620.625 247.019 620.093 242.301C618.064 240.485 614.794 241.403 612.597 242.982C610.394 244.584 608.558 246.784 605.975 247.661C603.413 248.535 599.76 247.063 599.909 244.35C598.586 245.505 597.26 246.635 595.937 247.788C598.95 248.642 597.238 253.47 594.464 254.901C591.688 256.309 587.906 257.208 587.224 260.26C586.946 261.479 587.31 262.758 587.288 264.04C587.266 265.962 586.367 267.778 585.493 269.51C583.315 273.758 580.517 278.5 575.819 279.374C573.065 279.887 568.855 280.187 569.241 282.942C565.268 279.482 559.715 277.88 554.505 278.713C554.824 276.278 555.144 273.844 555.445 271.431C553.65 271.153 551.836 270.896 550.041 270.64C552.817 266.797 553.821 261.691 552.71 257.079C552.09 254.495 551.345 250.864 553.843 249.946C552.497 248.75 551.516 247.148 551.025 245.397C554.761 243.752 559.117 243.581 563.004 244.885C564.692 245.439 566.293 246.274 568.003 246.784C572.828 248.237 578.637 246.613 581.415 242.428C584.192 238.221 583.037 231.684 578.615 229.272C576.288 228.012 573.47 227.907 571.184 226.537C568.943 225.172 567.766 221.412 570.032 220.069C571.89 222.909 576.161 223.783 578.981 221.925C577.655 219.661 577.079 216.992 577.335 214.387C579.408 213.532 582.075 215.496 581.821 217.74C585.493 217.825 589.083 215.305 590.255 211.823C590.684 210.627 590.853 209.303 591.688 208.322C592.797 207.018 594.718 206.827 596.32 206.229C600.293 204.732 602.642 199.885 601.34 195.869C606.466 193.5 612.189 192.433 617.805 192.753C615.82 189.078 613.771 185.172 613.962 180.984C614.155 176.821 617.551 172.506 621.692 172.89C622.335 175.324 622.291 177.932 621.607 180.366C622.825 180.644 624.022 180.901 625.238 181.177C622.611 183.355 619.942 187.562 622.674 189.613C624.855 191.234 627.973 189.144 630.642 189.698C631.86 189.955 632.905 190.766 634.102 191.044C639.505 192.389 644.738 183.504 649.309 186.688C650.847 187.755 651.465 189.933 654.092 189.613C655.543 189.42 656.805 188.502 657.508 187.22C659.025 184.595 658.534 181.563 658.832 178.657C659.091 176.137 660.307 173.339 662.761 172.677C665.454 171.952 668.04 174.171 670.814 174.472C675.49 175.004 679.165 168.577 676.325 164.817C672.779 167.53 668.23 168.875 663.767 168.511C662.443 166.206 665.195 163.709 667.613 162.617C675.917 158.923 685.337 157.792 694.286 159.416C695.888 157.919 693.581 155.57 691.615 154.63C689.652 153.712 687.474 151.192 689.161 149.825C683.264 147.454 678.098 155.719 671.732 156.019C665.217 156.339 661.437 147.627 663.852 141.559C666.287 135.516 672.33 131.822 677.99 128.574C674.252 122.702 664.472 122.233 660.202 127.722C660.734 132.205 658.917 136.903 655.501 139.853C651.975 142.885 646.232 145.662 647.429 150.167C648.476 154.117 654.776 156.019 653.919 160.034C653.152 163.728 647.107 163.772 645.676 167.251C644.65 169.793 646.638 172.911 645.422 175.368C644.181 177.846 640.66 177.932 638.438 179.597C636.919 180.728 636.067 182.522 634.678 183.804C633.269 185.064 630.727 185.555 629.702 183.953C628.698 182.373 630.021 180.43 630.749 178.701C632.969 173.595 629.767 167.916 626.669 163.281C620.391 162.768 617.146 174.643 611.313 172.228C609.669 171.544 608.71 169.879 607.875 168.299C605.569 164.028 603.24 159.67 602.366 154.886C601.511 150.103 602.344 144.763 605.696 141.262C610.16 136.605 617.659 136.329 622.611 132.227C628.163 127.637 629.509 119.115 635.469 115.079C639.036 112.666 644.504 111.362 644.931 107.07C641 107.39 637.071 107.709 633.142 108.029C634.934 104.743 639.185 103.033 642.728 104.164C641.256 101.004 644.909 97.6079 648.391 97.1171C651.87 96.6483 655.523 97.6519 658.876 96.6483C661.611 95.8132 663.786 93.7865 666.416 92.6536C668.677 91.672 671.2 91.4351 673.675 91.3082C676.452 91.1787 679.25 91.1787 682.026 91.3082C676.559 96.155 672.843 103.033 674.425 109.951C676.86 120.609 690.697 129.536 685.638 139.21C690.399 138.143 695.376 137.098 700.093 138.292C702.637 138.913 705.091 140.407 706.757 142.414C706.522 144.272 708.039 146.023 708.915 147.754C708.937 147.988 708.937 148.223 708.915 148.479C708.849 149.356 708.659 150.189 708.38 150.999C704.281 150.85 694.648 148.865 699.263 155.592C701.314 153.158 702.274 154.716 704.645 154.459C705.626 154.352 706.544 153.329 706.183 152.411C706.715 152.43 707.25 152.452 707.782 152.496C706.928 154.332 705.777 156.083 704.964 157.919C701.568 165.586 704.046 174.386 704.325 182.757C704.452 187.052 703.468 191.835 701.333 195.551C701.846 195.444 702.359 195.336 702.869 195.251C712.375 193.627 723.224 196.042 729.055 203.729C734.864 211.418 732.92 224.638 723.993 228.246Z" fill="#D9E1F2"/>
<path d="M546.479 191.555C546.465 193.921 548.748 196.06 548.115 198.338C547.49 200.592 544.301 201.615 544.164 203.949C544.013 206.557 547.644 207.499 550.203 206.977C554.933 206.015 559.245 203.134 561.945 199.131C563.269 197.176 563.784 193.816 561.555 193.034C564.609 191.962 567.661 190.89 570.716 189.818C573.111 191.862 575.692 195.308 573.715 197.759C572.438 199.341 569.434 200.435 570.34 202.257C570.709 202.999 571.69 203.37 571.864 204.183C572.047 205.041 571.229 205.741 570.56 206.305C567.666 208.73 565.967 212.515 566.072 216.287C570.413 212.28 576.383 210.09 582.288 210.347C583.67 210.405 585.213 210.542 586.268 209.651C587.325 208.759 586.858 206.462 585.494 206.684C587.149 205.497 588.8 204.308 590.453 203.124C590.824 202.855 591.217 202.567 591.398 202.145C591.825 201.156 590.863 200.079 589.845 199.732C588.824 199.388 587.686 199.437 586.712 198.98C584.558 197.969 584.195 195.149 583.452 192.888C582.708 190.624 580.056 188.334 578.229 189.86C578.688 187.689 579.133 185.355 578.278 183.306C577.421 181.258 574.686 179.866 572.901 181.184C571.869 179.653 574.262 178.237 575.517 176.882C576.882 175.407 576.86 172.843 575.434 171.422C574.01 170.003 571.407 170.006 570.015 171.456C570.206 167.271 571.092 162.121 575.082 160.844C576.178 160.495 577.372 160.517 578.461 160.143C579.55 159.77 580.591 158.771 580.412 157.636C580.603 158.966 582.751 159.037 583.55 157.956C584.348 156.871 584.182 155.382 583.977 154.051C580.869 153.162 579.526 158.395 576.452 159.384C575.036 159.841 573.417 159.299 572.044 159.872C568.794 161.232 569.669 167.281 566.272 168.223C565.471 168.446 564.58 168.294 563.818 168.624C562.27 169.288 562.102 171.425 562.478 173.065C562.851 174.706 563.518 176.474 562.805 177.998C562.417 178.835 561.616 179.668 561.938 180.535C562.363 181.675 564.048 181.367 565.195 181.775C568.094 182.803 566.511 186.207 565.01 187.552C563.132 189.232 559.963 188.793 557.748 188.483C554.42 188.021 546.523 185.113 546.479 191.555Z" fill="#D9E1F2"/>
<path d="M619.086 259.489C618.693 259.162 618.299 258.834 617.906 258.507C619.132 258.214 619.948 256.94 620.019 255.682C620.092 254.422 619.552 253.201 618.846 252.159C617.999 250.901 616.534 249.727 615.101 250.22C613.282 250.845 613.252 253.426 613.863 255.252C614.471 257.076 615.333 259.206 614.227 260.781C614.908 260.619 615.662 260.837 616.153 261.335C613.506 263.034 612.881 268.435 616.795 268.753C620.697 269.065 621.464 264.055 617.518 263.144C617.591 262.898 619.13 259.523 619.086 259.489Z" fill="#D9E1F2"/>
<path d="M1061.82 301.787C1062.04 299.68 1062.26 297.224 1064.04 296.076C1064.61 297.534 1065.68 298.794 1067.03 299.594C1068.25 298.894 1068.91 297.551 1069.61 296.337C1070.32 295.126 1071.29 293.881 1072.68 293.656C1074.06 293.431 1075.62 294.975 1074.89 296.174C1078.51 297.602 1080.91 292.333 1084.26 290.37C1086.03 289.332 1088.18 289.256 1090.17 288.748C1092.16 288.24 1094.26 286.973 1094.53 284.942C1094.7 283.755 1094.2 282.578 1094.16 281.379C1094.07 278.822 1096.03 276.732 1097.29 274.505C1099.49 270.618 1099.59 265.622 1097.55 261.65C1096.45 259.496 1094.75 257.599 1094.2 255.24C1093.66 252.884 1095.02 249.807 1097.44 249.841C1098.11 251.9 1099.01 254.207 1101.03 254.976C1103.06 255.746 1105.77 253.174 1104.3 251.58C1106.57 250.955 1108.96 250.747 1111.31 250.969C1112.3 249.509 1112.06 247.346 1110.78 246.135C1118.2 243.547 1124.59 238.441 1129.48 232.29C1122.72 236.492 1115.96 240.695 1109.19 244.897C1108.39 245.395 1107.44 245.91 1106.56 245.573C1105.76 245.268 1105.37 244.387 1104.97 243.63C1103.14 240.211 1099.31 237.965 1095.44 238.04C1095.76 241.273 1096.07 244.506 1096.38 247.739C1094.08 247.319 1091.99 249.485 1091.46 251.765C1090.93 254.046 1091.46 256.419 1091.65 258.751C1092.33 266.953 1088.45 275.387 1081.78 280.205C1081.75 278.881 1081.72 277.555 1081.7 276.232C1078.17 276.747 1079.79 283.323 1076.61 284.942C1075.72 285.396 1074.66 285.31 1073.67 285.415C1068.7 285.938 1068.78 291.048 1063.4 289.009C1062.87 295.536 1054.57 294.386 1055.17 300.955C1055.68 306.505 1060.91 310.739 1061.82 301.787Z" fill="#B7C7EA"/>
<path d="M1105.42 198.549C1105.51 199.021 1105.59 199.504 1105.52 199.98C1105.38 200.891 1104.68 201.616 1104.42 202.503C1103.98 204.043 1104.97 205.63 1106.13 206.741C1107.28 207.852 1108.68 208.783 1109.42 210.206C1110.66 212.584 1109.78 215.842 1111.55 217.851C1111 219.221 1108.92 218.804 1107.72 217.947C1106.52 217.09 1105.04 215.966 1103.74 216.669C1102.22 218.872 1103.07 221.902 1104.27 224.293C1105.48 226.683 1107.04 229.127 1106.8 231.794C1106.69 233.049 1105.74 234.499 1104.51 234.206C1104.04 234.094 1103.67 233.745 1103.32 233.408C1101.67 231.816 1099.92 230.045 1099.61 227.775C1099.39 226.122 1099.97 224.478 1100.38 222.862C1101.24 219.529 1101.4 216.02 1100.87 212.624C1100.64 211.166 1100.28 209.711 1100.33 208.236C1100.43 205.501 1101.87 202.461 1100.28 200.234C1099.78 199.541 1098.98 198.764 1099.35 197.997C1100.03 196.601 1103.06 193.976 1104.13 192.877C1104.83 194.655 1105.07 196.63 1105.42 198.549Z" fill="#B7C7EA"/>
<path d="M932.881 429.768C935.115 431.414 937.899 432.593 939.205 435.04C940.216 436.932 940.213 439.391 941.769 440.868C942.601 441.657 943.759 442.026 944.604 442.805C946.579 444.624 946.139 447.818 947.092 450.328C948.44 453.885 952.588 455.998 953.374 459.721C953.643 460.991 953.489 462.368 954.039 463.543C955.096 465.789 958.124 466.265 959.816 468.082C960.646 468.976 961.11 470.15 961.825 471.141C963.845 473.94 968.04 474.89 971.067 473.234C969.993 471.583 969.385 469.627 969.339 467.657C969.312 466.495 969.475 465.318 969.253 464.177C968.716 461.418 966.084 459.479 965.356 456.764C966.592 455.858 968.208 457.189 969.131 458.412C970.052 459.633 971.597 461.013 972.884 460.183C970.538 457.118 967.859 454.305 964.909 451.812C965.141 452.928 963.64 453.754 962.573 453.363C961.501 452.972 960.856 451.908 960.299 450.916C959.877 450.169 959.442 449.361 959.523 448.509C959.586 447.796 960.006 447.158 960.133 446.453C960.397 444.975 959.335 443.571 958.124 442.685C956.913 441.799 955.482 441.198 954.427 440.131C952.32 438.002 951.963 434.305 949.331 432.879C948.073 432.2 946.535 432.205 945.26 431.555C941.295 429.531 940.533 423.661 936.004 421.854C929.57 419.286 928.212 426.325 932.881 429.768Z" fill="#B7C7EA"/>
<path d="M972.531 474.183C971.586 475.499 970.643 476.815 969.698 478.134C969.493 478.417 969.281 478.729 969.283 479.078C969.291 480.058 970.692 480.202 971.661 480.07C974.728 479.647 977.873 479.804 980.882 480.524C985.961 481.742 990.795 484.568 996.008 484.24C996.8 484.192 997.596 484.069 998.377 484.187C999.222 484.311 1000 484.709 1000.82 484.953C1002.71 485.515 1004.85 485.2 1006.5 484.113C1005.1 482.758 1002.9 482.858 1000.96 482.714C999.012 482.568 996.699 481.681 996.465 479.745C996.404 479.218 996.511 478.676 996.377 478.165C996.096 477.076 994.846 476.532 993.725 476.466C992.602 476.402 991.462 476.651 990.358 476.441C988.495 476.085 987.069 474.358 985.221 474.102C983.35 473.843 982.525 475.264 981.016 475.338C977.9 475.487 975.441 470.12 972.531 474.183Z" fill="#B7C7EA"/>
<path d="M1016.66 485.233C1018.3 485.264 1019.9 486.556 1021.43 485.99C1021.82 485.846 1022.18 485.587 1022.59 485.553C1023.1 485.509 1023.56 485.811 1024.03 486.024C1028.52 488.099 1033.68 482.18 1038.29 483.98C1037.22 488.351 1031.44 489.73 1029.16 493.615C1033.08 493.042 1036.77 491.044 1039.4 488.08C1040.11 487.274 1040.77 486.383 1041.68 485.807C1042.2 485.474 1042.79 485.26 1043.31 484.923C1044.52 484.131 1045.25 482.659 1045.15 481.214C1043.81 481.182 1042.47 481.511 1041.3 482.159C1040.43 482.637 1039.63 483.296 1038.67 483.519C1037.06 483.885 1035.46 482.957 1033.82 482.725C1030.37 482.237 1027.05 485.833 1023.9 485.24C1022.66 485.006 1022.02 483.606 1020.44 483.211C1019.17 482.891 1017.14 483.436 1015.69 483.233C1014.08 483.003 1010.76 481.37 1009.55 483.084C1005.96 488.143 1015.78 485.213 1016.66 485.233Z" fill="#B7C7EA"/>
<path d="M1015.79 490.027C1016.48 489.253 1017.81 489.739 1018.5 490.521C1019.18 491.302 1019.61 492.337 1020.49 492.887C1021.38 493.434 1022.62 493.317 1023.39 492.611C1023.84 492.196 1024.13 491.524 1023.9 490.955C1023.66 490.379 1023.01 490.113 1022.42 489.908C1021.85 489.705 1021.28 489.505 1020.7 489.302C1019.7 488.951 1018.65 488.592 1017.6 488.736C1016.55 488.877 1015.5 489.695 1015.49 490.758" fill="#B7C7EA"/>
<path d="M987.739 459.701C985.852 459.902 983.378 460.068 982.646 458.314C982.216 457.282 982.704 456.119 982.729 455.001C982.778 453.167 981.598 451.568 980.751 449.939C979.269 447.092 978.736 443.759 979.254 440.592C979.383 439.789 979.601 438.959 980.162 438.368C980.516 437.994 980.985 437.747 981.442 437.506C983.2 436.583 984.958 435.66 986.714 434.739C989.016 433.53 991.321 432.317 993.485 430.874C998.876 427.267 1003.29 422.21 1006.13 416.379C1007.11 415.334 1008.93 416.318 1009.59 417.593C1010.25 418.87 1010.41 420.438 1011.42 421.456C1012.98 423.019 1016.37 423.365 1016.11 425.551C1016.01 426.415 1015.28 427.043 1014.67 427.673C1012.57 429.887 1011.7 433.206 1012.45 436.165C1013.2 439.127 1015.54 441.635 1018.44 442.587C1015.78 442.841 1012.35 443.881 1012.34 446.55C1012.34 448.232 1013.83 450.005 1012.91 451.412C1011.95 452.877 1009.38 452.19 1008.25 453.521C1007.33 454.591 1007.9 456.197 1008.1 457.592C1008.58 461.074 1005.88 464.685 1002.4 465.21C1000.94 465.43 999.225 465.034 998.488 463.75C998.099 463.078 998.038 462.263 997.721 461.555C996.444 458.698 994.532 460.414 992.654 460.388C991.341 460.37 989.495 459.516 987.739 459.701Z" fill="#B7C7EA"/>
<path d="M1039.56 439.25C1039.87 439.145 1040.18 439.04 1040.49 438.937C1039.83 438.498 1038.93 438.635 1038.28 439.096C1037.63 439.558 1037.17 440.229 1036.64 440.822C1034.81 442.871 1031.98 443.989 1029.23 443.745C1027.51 443.591 1025.79 442.935 1024.09 443.262C1022.01 443.665 1020.43 445.525 1019.81 447.557C1019.5 448.58 1019.8 450.138 1020.87 450.055C1021.46 448.226 1023.12 446.883 1024.95 446.302C1026.78 445.723 1028.76 445.818 1030.65 446.158C1032.13 446.424 1033.63 446.841 1035.13 446.646C1036.62 446.451 1038.14 445.428 1038.32 443.931C1038.45 442.847 1037.87 441.682 1038.34 440.693C1038.74 439.834 1039.88 439.069 1039.43 438.234C1038.95 438.327 1040.05 439.155 1039.56 439.25Z" fill="#D9E1F2"/>
<path d="M1016.58 463.382C1017.27 466.471 1018.72 469.699 1017.59 472.658C1018.84 473.22 1020.32 472.17 1020.75 470.873C1021.17 469.574 1020.83 468.168 1020.52 466.842C1020.19 465.519 1019.89 464.1 1020.35 462.816C1020.45 462.518 1020.64 462.205 1020.94 462.137C1021.1 462.105 1021.25 462.137 1021.4 462.181C1023.09 462.662 1024.24 464.263 1024.77 465.931C1025.3 467.601 1025.34 469.379 1025.57 471.113C1025.72 472.192 1026.02 473.374 1026.93 473.982C1028.42 474.98 1030.55 473.642 1031.11 471.933C1031.67 470.226 1031.22 468.378 1030.98 466.595C1030.64 464.122 1030.46 461.138 1028.27 459.939C1027.37 459.448 1026.11 459.226 1025.82 458.242C1025.47 457.06 1026.87 456.147 1028.06 455.8C1029.13 455.483 1030.23 455.256 1031.34 455.119C1032.67 454.956 1034.39 454.58 1034.52 453.251C1034.66 451.869 1032.91 451.181 1031.54 450.949C1029.9 450.668 1028.22 450.387 1026.56 450.602C1024.91 450.817 1023.24 451.603 1022.36 453.027C1022.18 453.327 1022 453.674 1021.68 453.808C1021.22 453.996 1020.71 453.654 1020.43 453.239C1020.16 452.824 1020.03 452.326 1019.71 451.94C1016.14 447.518 1016.32 462.178 1016.58 463.382Z" fill="#B7C7EA"/>
<path d="M1046.39 460.287C1044.57 459.858 1042.64 459.902 1040.84 460.414C1040.51 460.507 1040.13 460.688 1040.11 461.025C1040.1 461.386 1040.51 461.601 1040.85 461.694C1042.58 462.165 1044.49 461.967 1046.08 461.149C1045.84 460.439 1044.9 460.07 1044.24 460.427" fill="#B7C7EA"/>
<path d="M1054.21 459.331C1053.29 458.862 1052.1 458.996 1051.31 459.661C1050.53 460.322 1050.2 461.47 1050.5 462.451C1052.32 462.911 1054.17 460.762 1055.9 461.472C1057.05 461.939 1057.62 463.506 1058.85 463.572C1059.9 463.628 1060.64 462.156 1059.98 461.348C1059.41 460.664 1058.34 460.671 1057.66 460.105C1056.42 459.079 1057.18 457.087 1058.03 455.717C1056.65 455.417 1055.61 457.041 1055.43 458.447C1055.35 459.065 1055.34 459.714 1055.06 460.269C1054.77 460.82 1054.08 461.238 1053.52 460.974" fill="#B7C7EA"/>
<path d="M1046.47 450.772C1046.45 451.278 1046.44 451.81 1046.67 452.259C1046.9 452.711 1047.46 453.036 1047.92 452.833C1048.27 452.677 1048.45 452.294 1048.59 451.94C1049.06 450.807 1049.53 449.5 1049.01 448.392C1048.77 447.894 1048.35 447.491 1048.16 446.968C1047.62 445.415 1049.5 444.568 1050.71 444.69C1050.43 442.722 1048.75 444.114 1048.75 441.977C1048.75 441.655 1052.44 440.241 1049.37 439.726C1045.36 439.052 1046.57 448.167 1046.47 450.772Z" fill="#D9E1F2"/>
<path d="M1063.07 448.329C1061.22 448.471 1059.19 448.419 1057.74 447.262C1056.37 448.405 1057.27 450.778 1058.78 451.728C1060.29 452.675 1062.17 452.844 1063.74 453.696C1065.31 454.551 1066.48 456.714 1065.35 458.089C1066.6 458.413 1067.86 458.738 1069.11 459.063C1069.4 460.242 1068.06 461.094 1067.05 461.761C1066.04 462.433 1065.21 464.083 1066.27 464.686C1066.76 465.734 1068.32 465.563 1069.33 465.011C1070.35 464.457 1071.44 463.658 1072.54 463.995C1073.26 464.218 1073.75 464.862 1074.27 465.399C1076.49 467.658 1079.87 468.203 1082.72 469.594C1085.56 470.989 1088.13 474.361 1086.59 477.127C1086.01 478.175 1084.96 478.866 1084.17 479.764C1083.38 480.663 1082.85 482.05 1083.54 483.036C1086.04 483.205 1088.59 482.409 1090.55 480.844C1092.56 483 1094.94 485.012 1097.82 485.637C1100.71 486.264 1104.15 485.08 1105.28 482.353C1105.5 481.813 1105.65 481.2 1106.1 480.829C1106.74 480.306 1107.67 480.48 1108.46 480.702C1110.89 481.386 1113.26 482.265 1115.54 483.332C1115.98 483.534 1116.44 483.776 1116.65 484.211C1116.94 484.841 1116.58 485.564 1116.48 486.252C1116.12 488.809 1119.28 490.283 1121.82 490.733C1125.27 491.343 1128.76 491.658 1132.27 491.675C1132.39 489.92 1130.49 488.721 1128.77 488.335C1127.05 487.949 1125.13 487.895 1123.82 486.716C1122.29 485.329 1122.14 482.814 1120.53 481.515C1119.32 480.541 1117.18 479.896 1117.51 478.377C1117.86 476.749 1120.72 476.964 1121.27 475.391C1121.61 474.419 1120.76 473.389 1119.8 473.025C1118.84 472.661 1117.77 472.727 1116.76 472.537C1114.23 472.056 1112.15 469.79 1111.89 467.228C1111.79 466.259 1111.92 465.233 1111.53 464.342C1110.93 462.994 1109.37 462.408 1107.97 461.956C1100.5 459.549 1093.03 457.139 1085.57 454.734C1084.49 454.387 1083.33 454.04 1082.26 454.414C1079.4 455.417 1079.6 460.57 1076.61 461.114C1075.06 461.395 1073.69 460.157 1072.6 459.017C1071.53 457.901 1070 456.294 1069.86 454.66C1069.77 453.537 1070.91 452.556 1070.8 451.567C1070.39 447.755 1066.02 448.104 1063.07 448.329Z" fill="#B7C7EA"/>
<path d="M1121.14 471.881C1121.35 472.211 1121.75 472.353 1122.13 472.458C1125.24 473.315 1128.67 472.961 1131.54 471.488C1132.47 471.015 1133.37 470.416 1134.4 470.306C1135.08 470.236 1135.77 470.38 1136.44 470.309C1137.12 470.238 1137.85 469.85 1137.98 469.183C1138.1 468.526 1137.62 467.767 1138.01 467.225C1138.41 466.654 1139.41 466.876 1139.86 466.341C1140.36 465.743 1139.76 464.874 1139.2 464.339C1136.89 462.166 1134.65 459.814 1132.19 457.841C1131.97 460.95 1134.24 464.534 1131.8 467.198C1130.39 468.746 1120.4 470.734 1121.14 471.881Z" fill="#B7C7EA"/>
<path d="M1151.74 481.586C1152.88 481.96 1154.07 482.131 1155.18 482.575C1156.29 483.02 1157.35 483.821 1157.68 484.968C1157.67 484.914 1157.67 484.863 1157.66 484.812C1157.27 481.755 1154.16 479.845 1151.41 478.405C1151.04 478.214 1150.66 478.007 1150.47 477.645C1150.35 477.418 1146.66 479.904 1151.74 481.586Z" fill="#D9E1F2"/>
<path d="M1184.11 540.74C1183.83 539.47 1183.39 538.203 1182.54 537.214C1181.7 536.225 1180.41 535.556 1179.12 535.729C1178.02 538.154 1179.93 540.916 1182.13 542.42C1183.68 543.477 1185.44 544.153 1187.18 544.752C1184.98 545.123 1184.48 542.417 1184.11 540.74Z" fill="#D9E1F2"/>
<path d="M1191.38 518.63C1192.4 521.111 1193.13 523.707 1193.57 526.356C1194.79 525.655 1195.14 523.782 1194.24 522.691C1195.12 523.472 1195.13 524.808 1195.33 525.965C1195.86 529.003 1198.27 531.63 1201.25 532.414C1201.71 531.523 1201.33 530.402 1200.69 529.63C1200.04 528.859 1199.18 528.314 1198.45 527.623C1197.08 526.322 1196.24 524.473 1196.17 522.583C1196.1 520.881 1196.41 518.723 1194.92 517.9C1194.66 518.635 1194.4 519.372 1194.15 520.107C1193.72 520.063 1193.44 519.643 1193.27 519.245C1192.24 516.777 1193.28 513.239 1190.95 511.449C1190.59 512.54 1189.89 513.678 1188.69 513.825C1188.67 515.595 1190.68 516.94 1191.38 518.63Z" fill="#D9E1F2"/>
<path d="M1161.51 482.373C1163.22 483.1 1165.41 482.829 1166.7 484.163C1167.97 485.474 1167.7 487.701 1168.78 489.175C1169.29 489.871 1170.06 490.335 1170.61 490.995C1171.16 491.651 1171.46 492.692 1170.91 493.348C1170.21 494.169 1168.76 493.661 1168.22 492.728C1167.69 491.793 1167.74 490.653 1167.6 489.586C1167.47 488.516 1167.02 487.329 1165.99 486.985C1165.02 486.653 1163.71 487.171 1163.03 486.394C1162.8 486.135 1162.71 485.786 1162.59 485.462C1161.59 482.834 1158.23 481.535 1157.65 478.874C1158.98 479.902 1159.8 481.648 1161.51 482.373Z" fill="#D9E1F2"/>
<path d="M1061.54 477.985C1059.83 479.44 1058.27 481.088 1056.92 482.888C1057.95 483.393 1059.3 483.125 1060.06 482.268C1060.82 481.41 1060.92 480.038 1060.29 479.079" fill="#B7C7EA"/>
<path d="M1072.86 470.831C1073.87 471.59 1074.78 472.664 1074.82 473.929C1074.85 475.192 1073.61 476.481 1072.41 476.085C1072.64 474.274 1072.87 472.467 1073.11 470.657" fill="#B7C7EA"/>
<path d="M1062.02 498.285C1061.13 496.424 1058.52 495.65 1056.76 496.73C1058.29 498.009 1058.44 500.619 1057.06 502.062C1056.35 502.8 1055.37 503.21 1054.57 503.833C1051.9 505.894 1051.78 510.472 1054.35 512.665C1053.1 513.307 1051.87 513.951 1050.63 514.594C1049.76 511.336 1047.27 508.555 1044.13 507.332C1039.85 510.01 1036.66 514.381 1035.42 519.274C1034.92 519.36 1034.43 519.445 1033.93 519.533C1033.7 520.979 1033.48 522.427 1033.25 523.872C1032.15 522.405 1031.7 520.463 1032.05 518.661C1029.47 519.172 1028.02 521.921 1027.31 524.456C1026.6 526.99 1026.17 529.793 1024.31 531.652C1022.94 533.012 1021.02 533.622 1019.17 534.186C1016.34 535.055 1013.52 535.922 1010.69 536.791C1008.35 537.504 1005.81 538.376 1004.55 540.469C1003.53 542.163 1002.88 544.871 1000.91 544.632C1000.09 544.532 999.439 543.85 998.631 543.648C996.964 543.228 995.472 545.066 995.398 546.785C995.328 548.504 996.138 550.118 996.585 551.781C997.032 553.442 996.993 555.49 995.643 556.555C997.21 556.65 998.829 557.265 999.757 558.535C1000.68 559.807 1000.68 561.797 999.486 562.82C998.289 563.844 996.026 563.257 995.752 561.709C999.198 571.088 1001.63 580.84 1002.99 590.739C1003.55 594.783 1003.88 599.144 1001.92 602.723C1005.33 605.292 1010.3 605.563 1013.97 603.378C1016.02 602.152 1017.65 600.262 1019.8 599.212C1023.54 597.381 1028.09 598.443 1032.08 597.234C1035.73 596.128 1038.71 593.186 1042.47 592.522C1045.31 592.021 1048.47 592.847 1050.95 591.386C1052.12 590.698 1052.99 589.575 1054.12 588.818C1055.38 587.97 1056.92 587.626 1058.44 587.538C1064.47 587.196 1070.65 591.347 1072.01 597.237C1072.36 598.709 1072.42 600.257 1073 601.652C1073.58 603.048 1074.89 604.308 1076.4 604.171C1076.78 599.559 1081.16 595.647 1085.78 595.791C1086 597.276 1084.94 598.636 1083.81 599.625C1082.68 600.611 1081.36 601.51 1080.78 602.889C1080.19 604.271 1080.84 606.298 1082.34 606.408C1083.1 604.972 1084.15 603.693 1085.4 602.665C1087.75 604.757 1086.65 609.375 1083.6 610.171C1086.52 609.306 1090.67 609.016 1091.64 611.904C1091.92 612.72 1091.83 613.609 1091.91 614.471C1092.34 618.932 1097.02 621.542 1101.1 623.381C1101.93 623.757 1102.82 624.138 1103.72 623.986C1105.27 623.727 1106.09 622.091 1107 620.807C1107.89 619.523 1109.73 618.399 1110.92 619.435C1111.93 620.328 1111.51 622.091 1112.32 623.18C1113.42 624.655 1115.86 623.867 1117.06 622.475C1118.25 621.083 1118.96 619.217 1120.52 618.236C1123.41 616.414 1128.65 617.838 1129.51 614.527C1129.97 612.73 1128.46 611.072 1127.97 609.282C1127.19 606.479 1129 603.622 1131.08 601.59C1133.16 599.561 1135.66 597.808 1136.89 595.178C1138.95 590.781 1136.79 585.553 1137.62 580.77C1138.45 575.967 1142.25 571.193 1140.26 566.747C1139.48 565.003 1137.89 563.692 1137.24 561.895C1136.6 560.161 1136.87 558.057 1135.69 556.635C1134.94 555.737 1133.77 555.324 1132.82 554.641C1129.67 552.37 1129.58 547.833 1128.38 544.141C1126.19 537.414 1119.88 533.041 1115.51 527.474C1114.71 526.446 1113.95 525.34 1113.61 524.08C1113.2 522.615 1113.39 521.062 1113.27 519.548C1112.98 515.861 1110.76 512.379 1107.53 510.565C1106.83 510.167 1106.06 509.825 1105.56 509.185C1104.86 508.277 1104.9 507.027 1104.87 505.881C1104.73 501.567 1103.02 497.318 1100.12 494.112C1098.21 503.584 1096.3 513.053 1094.38 522.524C1093.27 523.369 1091.92 523.894 1090.53 524.019C1089.98 521.599 1089.42 519.182 1088.87 516.762C1086.14 516.901 1083.27 517.016 1080.82 515.807C1078.37 514.601 1076.57 511.593 1077.67 509.09C1078.27 507.722 1079.63 506.201 1078.73 505.005C1081.18 505.92 1083.31 501.955 1081.52 500.055C1078.7 497.062 1075.62 501.398 1072.72 501.242C1069.12 501.049 1065.9 496.004 1062.02 498.285Z" fill="#B7C7EA"/>
<path d="M1107.37 531.94L1108.35 531.282L1107.37 531.94Z" fill="#D9E1F2"/>
<path d="M1219.22 638.92C1219.22 639.162 1219.22 639.418 1219.35 639.621C1219.67 640.126 1220.47 639.924 1220.94 639.545C1223.61 637.357 1221.99 632.686 1224.04 629.91C1224.72 628.992 1225.73 628.389 1226.62 627.678C1229.48 625.403 1231.25 621.796 1231.29 618.136C1229.97 618.854 1228.61 619.586 1227.12 619.794C1225.64 620.002 1223.96 619.582 1223.07 618.37C1221.98 616.881 1222.35 614.693 1221.31 613.162C1220.12 611.399 1217.54 611.15 1216.1 609.575C1214.79 608.132 1214.76 605.986 1214.45 604.057C1214.16 602.128 1213.16 599.928 1211.23 599.664C1207.4 604.052 1214.92 609.553 1215.9 613.301C1216.83 616.893 1214.98 617.899 1213.54 620.915C1212.04 624.052 1211.05 626.528 1214.02 628.968C1215.93 630.535 1217.51 628.145 1219.18 631.048C1220.14 632.718 1219.24 637.062 1219.22 638.92Z" fill="#D9E1F2"/>
<path d="M1019.09 376.033C1018.87 376.646 1018.66 377.274 1018.67 377.923C1018.71 380.145 1021.28 381.652 1021.46 383.869C1021.54 384.75 1021.22 385.619 1021.22 386.506C1021.23 387.39 1021.76 388.413 1022.65 388.423C1023.42 388.43 1023.95 387.707 1024.49 387.172C1025.04 386.635 1026.05 386.293 1026.48 386.928C1026.67 387.209 1026.65 387.575 1026.62 387.912C1026.38 390.283 1025.74 392.61 1024.72 394.761C1025.99 395.272 1027.49 394.444 1028.2 393.267C1028.91 392.09 1029.02 390.662 1029.12 389.292C1029.17 388.608 1029.21 387.895 1028.94 387.27C1028.52 386.325 1027.51 385.82 1026.83 385.041C1025.58 383.586 1025.71 381.371 1026.41 379.586C1027.11 377.799 1028.28 376.231 1028.99 374.449C1029.18 373.985 1029.33 373.489 1029.26 372.993C1029.18 372.483 1028.88 372.041 1028.65 371.575C1028.09 370.422 1028.03 369.101 1027.78 367.844C1025.64 356.841 1019.75 374.102 1019.09 376.033Z" fill="#D9E1F2"/>
<path d="M1040.11 393.164C1040.34 395.203 1039.49 397.337 1037.9 398.648C1037.55 398.941 1037.15 399.21 1036.93 399.617C1036.18 401.007 1037.93 402.335 1039.19 403.287C1043.15 406.286 1043.64 412.884 1040.15 416.427C1039.82 416.759 1039.46 417.076 1039.26 417.499C1039.05 417.909 1039.03 418.382 1039.02 418.842C1038.99 420.924 1039.37 423.01 1040.11 424.953C1038.05 425.986 1035.47 424.282 1034.68 422.116C1033.9 419.945 1034.35 417.552 1034.73 415.276C1034.87 414.432 1034.98 413.489 1034.5 412.779C1033.72 411.631 1031.84 411.865 1030.86 412.857C1029.89 413.843 1029.56 415.274 1029.18 416.607C1028.79 417.94 1028.22 419.354 1027 420.026C1026.08 415.394 1029.87 410.398 1034.58 410.046C1035.61 409.968 1036.7 410.071 1037.62 409.602C1038.54 409.133 1039.09 407.761 1038.33 407.062C1037.44 407.092 1037.08 405.898 1037.16 405.001C1037.24 404.108 1037.39 403.016 1036.66 402.487C1035.92 401.944 1034.83 402.506 1034.34 403.282C1033.85 404.059 1033.69 405.011 1033.21 405.795C1032.48 406.972 1031 407.631 1029.64 407.38C1029.57 405.331 1030.79 403.29 1032.63 402.384C1030.99 401.805 1029.31 400.872 1028.67 399.261C1028.03 397.649 1029.15 395.374 1030.88 395.515C1031.49 397.097 1032.11 398.682 1032.73 400.267C1034.07 401.104 1035.96 400.26 1036.74 398.887C1037.51 397.513 1037.46 395.825 1037.24 394.26C1038.98 395.154 1040.98 392.697 1040.27 390.871C1039.86 389.823 1038.89 389.098 1037.92 388.959C1039.02 390.077 1039.93 391.584 1040.11 393.164Z" fill="#D9E1F2"/>
<path d="M778.306 90.1915C779.495 89.3442 778.592 87.2883 777.205 86.8219C775.82 86.358 774.319 86.8121 772.858 86.8561C771.398 86.9 769.638 86.209 769.479 84.7561C769.433 84.3288 769.542 83.8942 769.708 83.4962C770.727 81.0764 773.601 80.112 775.476 78.2758C778.399 75.4189 778.653 70.7185 781.217 67.5369C784.762 63.1344 791.46 62.9416 796.001 59.5744C797.427 58.5171 798.619 57.1571 800.101 56.1755C803.942 53.6336 808.923 54.0585 813.526 53.9339C819.557 53.7728 825.556 52.4958 831.131 50.1883C829.952 55.7775 823.261 57.8701 817.723 59.2692C813.997 60.2093 810.308 61.2983 806.667 62.5265C802.035 64.0941 797.398 65.9376 793.606 69.0264C789.819 72.1128 786.94 76.6398 786.872 81.5282C786.835 84.0944 789.904 89.6397 788.202 91.6297C786.203 93.9665 780.494 91.1682 778.306 90.1915Z" fill="#D9E1F2"/>
<path d="M919.344 24.928C917.95 25.3773 916.553 25.8242 915.159 26.2686C916.443 28.2537 919.109 29.2231 921.368 28.5296C923.734 27.802 926.042 25.4872 928.264 26.5787C928.837 27.6457 927.526 28.7055 926.464 29.2866C925.402 29.8678 924.269 31.2474 925.133 32.0971C925.343 32.3022 925.629 32.4072 925.907 32.4975C930.781 34.0578 936.336 32.7295 940.997 34.8417C942.465 35.5083 943.886 36.5192 945.495 36.4484C947.107 36.3776 948.613 34.3435 947.502 33.1739C946.779 32.4145 945.297 32.4024 945.009 31.3939C944.479 29.5406 948.847 28.7909 947.993 27.0646C944.836 27.1598 941.676 27.2575 938.516 27.3552C937.444 27.3869 936.131 27.2844 935.665 26.3174C935.403 25.768 935.503 25.0721 935.139 24.5862C934.697 23.988 933.814 24.005 933.076 24.0807C931.406 24.2492 929.736 24.4177 928.068 24.5862C931.723 24.2175 936.507 22.2738 940.172 21.385C935.308 15.8812 921.248 16.5454 919.344 24.928Z" fill="#D9E1F2"/>
<path d="M963.445 32.954C963.367 30.9005 960.53 29.9995 958.674 30.8809C956.818 31.7624 955.698 33.6475 954.438 35.2713C952.929 37.2174 951.097 38.8876 949.276 40.548C954.062 39.9302 958.845 39.3124 963.631 38.6971C965.482 38.4578 967.699 37.9255 968.251 36.1454C966.395 34.883 964.224 34.0821 961.99 33.8355" fill="#D9E1F2"/>
<path d="M1088.97 61.9772C1089.58 61.6134 1090.14 61.1324 1090.82 60.9346C1093.55 60.1435 1095.88 64.165 1098.64 63.5131C1099.81 63.2371 1100.64 62.1774 1101.76 61.7501C1104.38 60.7514 1107.31 63.496 1109.8 61.8038C1113.04 59.5989 1111.64 57.709 1109.09 56.7128C1106.75 55.7971 1103.12 56.7616 1100.48 56.0022C1098.52 55.4431 1096.83 54.3613 1094.97 53.5702C1090.62 51.7095 1083.73 48.5939 1080.76 54.2075C1078.1 59.2546 1084 64.9587 1088.97 61.9772Z" fill="#D9E1F2"/>
<path d="M1127.62 60.5996C1125.68 59.0149 1123.44 57.8136 1121.05 57.081C1120.71 56.9785 1120.36 56.8808 1120.01 56.8979C1118.73 56.954 1117.93 58.5387 1118.34 59.745C1118.75 60.9512 1119.99 61.7106 1121.24 61.9524C1122.5 62.1917 1123.78 62.0158 1125.06 61.9279C1127.73 61.7448 1130.43 61.9621 1133.04 62.5652C1133.53 60.8926 1131.89 59.2078 1130.16 58.9758C1128.43 58.7439 1126.74 59.5057 1125.16 60.248" fill="#D9E1F2"/>
<path d="M1103.03 70.3309C1101.54 69.6203 1099.95 69.1295 1098.33 68.8756C1097.47 68.7413 1096.2 69.0929 1096.41 69.9402C1096.5 70.304 1096.86 70.5262 1097.19 70.7045C1099.41 71.9132 1101.78 72.863 1104.22 73.5271C1105.36 73.8324 1106.92 73.8641 1107.3 72.758C1107.57 71.9815 1107.01 71.166 1106.37 70.6459C1104.83 69.3786 1102.65 68.9342 1100.73 69.4934" fill="#D9E1F2"/>
<path d="M627.385 35.3007C629.463 36.5216 631.993 36.7536 634.142 37.8524C636.654 39.1416 638.508 41.6493 639.001 44.4305C639.301 46.1349 639.15 48.0077 640.097 49.4582C641.472 51.5581 644.773 51.707 646.775 50.1931C648.78 48.6768 649.61 46.0103 649.601 43.4977C649.593 41.5223 649.247 39.2344 650.66 37.8573C651.268 37.2664 652.099 36.9758 652.899 36.7048C654.472 36.1798 656.125 35.6694 657.759 35.9478C659.392 36.2286 660.969 37.5618 660.935 39.2197C660.899 41.2171 658.66 43.0705 659.541 44.8627C662.703 44.8188 665.863 44.7748 669.022 44.7309C670.116 43.6247 669.347 41.6347 668.053 40.7679C666.764 39.8986 665.145 39.7057 663.721 39.0757C662.3 38.4457 660.962 37.0075 661.36 35.5058C661.958 33.2374 665.177 33.5231 667.521 33.6085C673.764 33.8356 679.527 27.9485 679.168 21.7122C673.62 20.8649 670.881 26.9279 666.28 28.5126C662.479 29.8238 660.396 27.6116 656.914 27.9387C653.205 28.2855 652.323 30.654 649.459 31.3402C645.005 32.4072 641.799 30.1998 637.187 29.5869C633.595 29.1084 617.963 29.7579 627.385 35.3007Z" fill="#B7C7EA"/>
<path d="M571.502 8.81284C567.976 14.9246 562.003 19.5762 555.213 21.4955C552.012 22.399 548.452 22.8214 546.037 25.1069C544.54 26.5231 543.697 28.4765 542.892 30.3713C541.305 34.0999 539.695 37.9458 539.608 41.9967C539.522 46.0476 541.317 50.4135 544.965 52.1789C539.881 54.6964 539.383 63.101 544.132 66.1996C542.193 71.0392 534.072 68.3362 530.241 71.8719C527.262 74.6164 528.417 79.5391 530.212 83.17C532.006 86.8009 534.282 90.8641 532.834 94.6488C527.384 92.5245 521.937 90.4001 516.484 88.2734C514.426 92.7174 520.342 98.2261 524.627 95.8575C520.503 103.278 509.503 101.815 501.772 105.327C493.522 109.072 489.083 118.713 480.742 122.256C476.637 124.002 471.971 124.077 467.878 125.857C463.788 127.635 460.255 132.357 462.182 136.379C462.56 137.175 463.149 137.959 463.044 138.833C462.936 139.756 462.113 140.391 461.405 140.994C454.705 146.705 454.629 156.843 455.098 165.636C452.713 167.424 449.341 164.994 448.024 162.318C446.708 159.642 446.032 156.358 443.51 154.761C441 153.174 437.632 153.933 434.888 152.8C432.383 151.767 430.778 149.342 429.328 147.052C426.61 142.757 423.893 138.464 421.177 134.169C418.887 130.555 416.548 126.802 415.91 122.571C415.271 118.339 416.797 113.47 420.596 111.502C423.277 110.11 427.638 108.005 425.695 105.691C425.262 105.173 424.593 104.926 423.959 104.699C419.031 102.951 414.106 101.198 409.181 99.4494C411.098 93.511 417.976 89.6749 424.037 91.1619C426.266 87.5969 421.109 83.6877 416.904 83.7561C412.7 83.8269 408.014 85.353 404.603 82.8941C407.779 78.472 407.608 72.204 405.052 67.3961C402.495 62.5882 397.89 59.1258 392.909 56.9306C390.689 55.9539 388.326 55.1872 385.899 55.1505C382.063 55.0968 378.385 56.8549 374.549 56.8793C369.121 56.916 364.162 53.3925 361.049 48.9435C357.933 44.4946 356.341 39.1862 354.796 33.9803C359.169 36.3977 364.939 36.5344 369.007 33.6311C373.075 30.7254 374.745 24.6112 372.088 20.3796C377.616 19.1416 383.147 17.9036 388.675 16.6656C390.074 16.3531 391.503 16.0283 392.714 15.2616C394.259 14.2825 395.3 12.6831 396.704 11.5061C399.392 9.25725 403.101 8.77621 406.585 8.39041C415.918 7.35265 425.248 6.3149 434.578 5.27713C436.372 5.0769 438.213 4.88158 439.957 5.3455C444.545 6.56885 448.703 12.1239 452.82 9.76273C452.984 7.95335 452.444 6.09274 451.335 4.65453C456.583 2.24449 462.646 2.9819 468.42 3.06737C480.058 3.2383 491.573 0.544998 503.211 0.374069C514.626 0.205597 526.075 2.50574 536.541 7.07187C533.037 9.48923 529.042 11.1887 524.869 12.0238C527.592 11.8553 530.356 12.3242 532.868 13.3839C530.866 12.539 521.8 19.6934 520.357 20.9827C525.289 24.8187 536.128 16.8829 541.226 14.4509C550.874 9.85062 560.731 7.22079 571.502 8.81284Z" fill="#D9E1F2"/>
<path d="M554.032 133.207C551.422 134.277 548.978 135.759 546.822 137.58C544.827 139.27 542.595 141.402 540.029 140.889C537.426 140.366 536.2 137.466 535.058 135.07C533.912 132.672 531.598 130.089 529.085 130.951C530.45 129.308 531.817 127.664 533.182 126.019C529.928 125.545 526.673 125.071 523.42 124.597C522.624 124.483 521.76 124.326 521.237 123.716C520.016 122.29 521.836 120.178 523.635 119.646C527.686 118.447 532.147 120.268 535.192 123.198C536.464 124.424 538.081 125.975 539.709 125.286C540.788 124.829 541.245 123.587 541.965 122.666C543.692 120.459 546.917 120.168 549.701 120.493C554.406 121.042 563.792 117.594 565.628 123.22C567.687 129.532 557.815 131.659 554.032 133.207Z" fill="#B7C7EA"/>
<path d="M148.802 89.8773C136.498 94.9977 123.733 100.096 110.408 99.9349C104.634 99.8641 98.9199 98.7995 93.2404 97.7373C80.8925 95.4299 68.4152 93.0833 56.9268 88.002C53.8575 86.6469 50.7736 85.0695 47.4235 84.8669C43.6803 84.6374 40.0641 86.1488 36.7042 87.8165C26.5222 92.8685 17.1947 99.6444 9.23947 107.763C17.5146 109.067 25.2085 113.748 30.1652 120.499C26.256 122.397 20.9843 120.651 18.9796 116.795C13.7298 115.269 7.61326 119.423 7.09317 124.863C6.57307 130.305 11.7935 135.541 17.2362 135.04C19.1652 132.479 22.1539 130.738 25.3354 130.32C26.8347 132.845 28.3315 135.367 29.8283 137.892C27.2156 141.047 22.6153 141.374 18.6206 142.28C14.6235 143.186 10.1185 146.003 10.58 150.076C11.3491 156.859 24.3783 157.433 23.8069 164.238C24.0023 161.929 50.9347 160.129 37.908 175.59C35.8667 178.012 32.7974 179.768 29.6427 179.49C30.5193 181.97 30.3215 185.057 28.3706 186.82C26.4172 188.585 22.5885 187.95 21.9756 185.391C19.8855 189.852 14.1327 190.91 9.23214 191.393C8.651 193.366 8.06986 195.337 7.48873 197.307C7.09561 194.848 3.84565 193.393 1.72377 194.697C-0.39811 196.003 -0.59833 199.505 1.33065 201.08C3.12289 202.545 5.73556 202.191 8.01371 201.758C8.86344 201.597 9.8328 201.346 10.1991 200.562C10.4237 200.083 10.3554 199.524 10.3724 198.994C10.4579 196.404 12.7238 194.353 15.146 193.434C17.5683 192.516 20.2127 192.411 22.735 191.825C26.9055 190.851 30.6633 188.568 33.9988 185.882C37.6321 182.959 40.8967 179.499 45.0135 177.314C46.5909 176.476 48.2732 175.837 49.7896 174.897C60.9581 167.974 53.8355 155.983 70.3613 153.922C70.5957 156.215 69.0207 158.561 66.811 159.216C72.1047 163.127 77.8989 150.811 84.0985 153.019C85.8468 153.639 86.9773 155.302 88.4815 156.388C91.2675 158.403 94.9887 158.264 98.4145 158.554C112.054 159.714 124.495 169.828 128.416 182.942C134.384 181.182 139.35 187.552 142.32 193.017C147.223 202.042 152.123 211.066 157.024 220.089C160.139 225.817 163.28 231.621 164.896 237.935C167.208 246.972 166.278 256.581 168.439 265.652C170.6 274.723 177.586 283.953 186.908 283.706C188.42 297.919 192.58 311.847 199.117 324.561C195.931 327.794 201.056 332.585 205.419 333.855C209.778 335.122 215.516 338.35 213.614 342.472C218.756 336.751 212.21 328.122 205.947 323.651C199.686 319.18 192.336 311.776 196.255 305.154C198.392 302.998 202.13 305.513 203.139 308.375C204.145 311.237 204.052 314.626 206.074 316.887C207.844 318.87 210.71 319.368 212.993 320.725C221.276 325.643 219.537 339.615 227.554 344.955C230.479 346.903 234.329 347.358 236.866 349.795C238.69 351.548 239.538 354.046 240.729 356.275C244.939 364.145 253.409 368.601 261.389 372.596C263.718 373.76 266.045 374.927 268.372 376.092C281.702 382.766 295.031 389.439 308.361 396.112C309.64 396.752 311.122 397.409 312.453 396.881C317.932 394.713 306.742 384.968 311.396 381.357C304.847 378.199 298.303 375.042 291.757 371.888C295.842 368.24 296.382 361.29 292.912 357.051C295.324 356.482 297.324 354.436 297.842 352.012C294.958 349.013 289.681 351.494 287.44 354.998C285.201 358.504 284.3 362.914 281.282 365.773C274.45 372.251 262.361 365.38 259.721 356.343C257.079 347.306 260.1 337.727 261.108 328.366C261.516 324.583 261.836 320.274 264.832 317.927C271.676 312.565 281.758 323.873 289.703 320.337C292.743 318.982 294.538 315.744 297.402 314.05C302.342 311.129 309.062 313.837 312.48 318.445C315.903 323.052 316.863 328.979 317.722 334.653C319.336 337.305 323.832 334.375 323.578 331.279C323.329 328.185 320.777 325.868 319.092 323.258C314.795 316.592 316.746 306.68 323.243 302.136C329.023 298.1 338.538 296.52 338.912 289.481C339.156 284.932 334.837 281.203 334.653 276.649C334.497 272.642 337.53 269.31 340.36 266.467C348.359 258.436 356.358 250.405 364.355 242.377C366.233 240.492 368.506 238.458 371.15 238.756C373.792 239.051 375.265 243.424 372.752 244.291C382.18 244.655 394.818 242.377 395.575 232.971C391.766 236.312 387.244 238.839 382.404 240.328C381.899 235.85 383.215 231.194 385.986 227.639C382.473 221.585 374.068 219.92 367.39 222.005C360.707 224.088 355.352 229.011 350.239 233.789C357.918 224.728 368.196 217.137 379.994 215.757C384.438 215.239 389.2 215.547 393.067 213.296C398.444 210.16 403.208 202.261 408.626 205.323C404.668 212.265 400.71 219.212 396.754 226.154C401.02 225.837 405.288 225.519 409.557 225.202C411.288 228.161 412.135 231.631 411.957 235.054C417.177 234.69 424.363 231.25 422.029 226.564C420.845 224.183 417.756 223.588 415.698 221.9C410.045 217.271 414.445 207.758 411.615 201.023C410.201 197.654 407.11 195.354 404.282 193.036C392.276 183.196 382.861 170.216 377.24 155.744C375.865 159.179 374.359 162.793 371.39 164.998C368.42 167.208 363.517 167.242 361.564 164.102C360.49 162.378 360.553 160.205 359.994 158.256C358.732 153.837 354.507 151.038 350.593 148.631C345.839 145.708 340.24 142.675 334.968 144.497C329.694 146.318 328.473 155.81 333.984 156.684C328.849 156.869 329.02 164.844 331.946 169.066C334.871 173.285 338.988 178.545 336.18 182.847C333.694 186.659 327.389 186.287 324.882 190.089C322.469 193.754 325.094 198.477 326.928 202.464C328.764 206.451 328.718 212.722 324.413 213.574C320.733 214.302 318.067 210.041 317.381 206.354C316.299 200.555 317.061 194.265 314.353 189.022C311.642 183.782 302.938 181.314 300.21 186.544C298.713 181.214 294.392 176.762 289.105 175.112C284.805 173.769 280.022 174.174 275.942 172.272C269.837 169.422 267.098 162.402 264.92 156.029C272.885 151.473 281.379 146.343 284.93 137.88C285.887 135.602 286.512 133.048 288.316 131.363C289.94 129.844 292.248 129.302 294.055 128.005C295.862 126.709 297.014 123.857 295.39 122.338C297.729 120.907 300.594 120.355 303.299 120.809C307.926 127.087 293.737 137.782 300.418 141.804C304.019 143.972 307.911 139.521 309.775 135.753C312.685 136.925 315.596 138.099 318.506 139.274C322.259 136.224 317.849 130.393 313.552 128.179C309.254 125.964 303.807 121.977 305.963 117.647C309.811 117.579 313.659 117.511 317.508 117.44C317.747 113.765 315.308 110.076 311.833 108.857C313.813 105.802 315.796 102.745 317.776 99.6907C315.977 97.708 313.059 96.8192 310.456 97.459C318.25 96.3113 325.856 93.9307 332.91 90.4316C338.685 97.0219 344.118 103.91 349.182 111.062C349.995 112.21 350.83 113.47 350.801 114.874C350.732 117.943 347.023 119.254 344.345 120.753C341.664 122.25 340.045 127.007 343.019 127.764C342.614 130.034 339.205 130.015 337.283 128.733C335.366 127.451 333.606 125.439 331.303 125.571C326.95 125.822 327.665 133.499 331.831 134.798C335.994 136.092 340.252 133.404 343.791 130.852C351.929 138.192 361.628 143.791 372.059 147.166C367.849 146.289 364.782 141.725 365.561 137.499C370.445 138.905 375.096 141.113 379.276 144.006C382.824 139.692 378.278 133.419 373.626 130.323C368.975 127.226 363.151 123.393 363.881 117.852C369.983 117.704 376.039 121.183 378.979 126.53C381.291 123.244 383.603 119.955 385.916 116.668C383.3 108.02 366.616 110.666 364.88 101.8C364.545 100.086 364.882 98.1256 363.81 96.7509C362.143 94.6119 358.81 95.6594 356.099 95.5739C346.616 95.2809 340.873 79.3949 332.121 83.0599C335.779 76.2084 325.377 67.5353 319.292 72.3651C322.633 73.6079 326.269 75.3343 327.487 78.6844C328.705 82.0344 325.155 86.6152 322.044 84.8693C318.902 83.1039 320.401 78.1276 318.667 74.9656C316.558 71.1174 310.202 71.8841 307.645 75.4515C305.086 79.0189 305.406 83.8828 306.429 88.151C304.317 88.0973 302.205 88.046 300.095 87.9923C299.632 82.0197 300.794 75.93 303.421 70.546C300.948 66.854 295.324 70.3995 292.599 73.9131C289.738 77.6051 286.79 81.4801 285.897 86.0658C285.003 90.6489 286.873 96.138 291.244 97.7886C294.045 98.8483 297.285 98.172 300.071 99.2683C306.451 101.783 303.936 113.687 297.087 113.406C294.97 109.929 293.732 105.92 293.517 101.854C290.216 102.821 287.137 104.54 284.583 106.84C281.235 98.5773 276.577 90.8443 270.836 84.022C272.201 81.3825 273.566 78.7429 274.928 76.1034C280.422 78.5061 287.467 72.6239 286.077 66.7881C281.511 65.5087 276.713 64.2194 272.086 65.2645C267.461 66.3071 263.181 70.5338 263.826 75.2341C264.216 78.0495 266.214 80.3887 266.954 83.1357C267.691 85.8826 266.043 89.7211 263.235 89.2596C261.77 95.9353 275.915 96.0965 276.547 102.902C276.994 107.675 270.516 109.553 265.723 109.487C267.122 114.087 266.905 119.164 265.12 123.627C261.521 116.876 263.489 107.668 269.527 102.975C265.904 97.4028 257.521 95.6472 251.964 99.2976C254.044 102.472 257.331 104.833 261.006 105.785C259.067 108.034 257.128 110.281 255.189 112.53C250.992 109.509 245.237 111.878 240.072 112.175C234.908 112.471 228.63 106.767 232.281 103.097C229.172 101.219 224.96 100.58 222.008 102.694C219.059 104.809 218.815 110.181 222.106 111.711C215.245 113.474 203.871 100.855 198.909 110.525C195.799 100.687 190.8 97.7545 180.953 97.2514C174.419 96.9194 155.041 92.0774 151.703 97.5738C151.408 96.8632 148.671 89.9335 148.802 89.8773Z" fill="#B7C7EA"/>
<path d="M166.957 64.068C163.238 64.466 161.165 68.6341 160.689 72.3456C160.213 76.0546 160.574 80.0396 158.745 83.3018C158.296 84.1076 157.71 84.8743 157.566 85.7851C157.151 88.3954 160.535 90.0631 163.14 89.6455C170.739 88.432 175.51 78.0471 183.1 79.3388C183.173 81.3752 183.248 83.4117 183.327 85.4481C188.322 85.4921 193.321 84.7693 198.102 83.3116C199.557 84.2541 198.742 86.7276 197.189 87.4967C195.636 88.2659 193.799 88.0071 192.073 88.1658C190.347 88.3246 188.381 89.2597 188.198 90.9836C191.531 90.0142 195.02 89.04 198.431 89.692C201.843 90.3439 205.107 93.1812 204.997 96.651C200.158 96.4361 195.301 96.6119 190.491 97.1784C193.138 100.323 197.943 99.9498 202.031 100.392C206.116 100.831 210.965 104.108 209.522 107.956C215.057 102.123 224.292 100.167 231.718 103.254C233.573 104.025 235.334 105.082 237.304 105.478C239.275 105.874 241.604 105.419 242.706 103.739C243.804 102.057 242.711 99.2051 240.703 99.2686C243.306 98.9121 245.589 96.839 246.197 94.2824C241.722 95.7377 236.33 93.2569 234.521 88.9105C232.885 84.9671 233.857 79.898 230.919 76.7994C233.483 77.571 236.032 74.5212 235.415 71.9183C234.794 69.3154 231.989 67.6867 229.315 67.6207C227.552 67.5768 225.667 68.1628 224.624 69.5864C223.584 71.0099 223.777 73.3443 225.306 74.2233C223.242 73.2173 221.181 72.2137 219.118 71.2101C218.295 76.2597 228.219 79.2729 225.892 83.8293C224.409 86.7325 219.36 84.9012 218.759 81.6927C218.368 79.583 218.852 76.7749 216.921 75.8422C213.238 74.0646 210.547 83.0992 207.029 81.0163C207.251 78.9897 207.471 76.9654 207.693 74.9387C203.154 74.5773 198.49 76.2133 195.174 79.3364C195.587 77.3732 195.999 75.41 196.412 73.4468C191.487 70.7145 186.603 80.3937 181.288 78.555C186.403 80.3228 197.858 70.3287 188.85 66.0946C186.691 65.0813 182.184 66.6636 179.786 66.4951C175.572 66.1997 171.189 63.6162 166.957 64.068Z" fill="#D9E1F2"/>
<path d="M189.346 43.1227C185.851 41.3768 181.6 43.2716 178.636 45.816C175.672 48.3579 173.206 51.6201 169.667 53.2732C167.992 54.0546 166.012 54.5356 164.974 56.0666C170.854 55.986 176.731 55.588 182.567 54.875C182.238 56.8578 181.244 58.7257 179.781 60.1053C182.516 61.104 184.792 57.6611 185.168 54.7749C185.285 53.8764 185.392 52.8605 186.105 52.3063C186.682 51.857 187.468 51.8545 188.186 51.7397C190.664 51.3417 192.84 48.9927 192.537 46.5021C192.237 44.0115 188.967 42.2607 186.945 43.7478" fill="#D9E1F2"/>
<path d="M207.696 59.484C208.417 59.1006 208.812 58.1899 208.602 57.3988C204.949 57.5209 201.47 54.4857 201.091 50.85C199.014 49.5217 195.832 50.557 194.931 52.8522C194.027 55.1499 195.658 58.0702 198.088 58.5097C194.545 60.0236 191.004 61.5375 187.464 63.0514C194.228 66.6969 202.254 58.7588 209.77 60.3508C209.765 61.2591 209.762 62.1675 209.76 63.0758C206.517 63.1174 203.318 64.6117 201.211 67.0754C206.808 67.5735 212.553 66.1744 217.293 63.1588C218.636 62.3067 219.964 61.3031 221.537 61.0784C222.919 60.8855 224.298 61.3202 225.68 61.5155C228.947 61.977 233.093 60.1262 232.976 56.8274C230.769 56.09 228.415 55.8043 226.098 55.9874C225.387 51.6997 220.035 48.9209 216.118 50.8084C216.184 53.7605 217.561 56.6613 219.808 58.5757C217.588 60.5217 214.113 60.8709 211.547 59.4108C210.331 58.7149 209.21 57.6307 207.809 57.6234C206.305 57.6136 204.349 58.7026 203.587 57.406" fill="#D9E1F2"/>
<path d="M211.914 38.0917C206.403 37.4348 200.709 38.3822 195.706 40.7874C198.409 42.0082 201.112 43.2267 203.815 44.4475C204.43 44.7235 205.073 45.0091 205.747 44.9969C206.345 44.9872 206.911 44.7479 207.461 44.5135C210.066 43.3927 212.671 42.2744 215.279 41.1536C214.825 40.4919 214.376 39.8326 213.924 39.1709C215.086 39.9596 216.839 38.812 216.918 37.408C216.991 36.0064 215.807 34.7733 214.466 34.3582C213.123 33.9407 211.67 34.1678 210.305 34.495C208.713 34.871 207.155 35.3789 205.644 36.0088C206.44 37.6717 208.005 38.9463 209.797 39.3858C209.824 40.0426 209.854 40.7019 209.883 41.3587" fill="#D9E1F2"/>
<path d="M250.459 38.915C249.263 38.9761 248.547 37.5525 248.494 36.3536C248.44 35.1547 248.699 33.8631 248.108 32.818C246.65 30.2492 242.711 32.1514 239.796 31.6826C238.065 31.4042 236.636 30.1931 234.991 29.5802C233.347 28.9698 231.01 29.3116 230.539 31.0013C230.007 32.8937 232.322 34.4149 234.285 34.4539C236.25 34.493 238.275 33.7947 240.135 34.4149C240.485 34.5321 240.834 34.703 241.051 34.9985C242.438 36.8493 237.457 38.2021 237.916 40.468C238.143 41.5815 239.535 41.9306 240.665 42.0503C242.345 42.231 244.02 42.4117 245.698 42.5899C247.446 42.7779 249.38 42.9171 250.784 41.8623C252.185 40.8074 252.222 38.0775 250.515 37.6551" fill="#D9E1F2"/>
<path d="M259.342 56.6279C260.321 55.4827 259.721 53.5782 258.497 52.7016C257.272 51.8274 255.672 51.7151 254.168 51.7053C249.773 51.676 245.375 52.2425 241.134 53.3803C239.823 53.7344 238.455 54.1446 237.124 53.8638C235.794 53.5806 234.558 52.3109 234.856 50.985C233.039 53.0263 235.227 56.4252 237.869 57.1309C240.511 57.8341 243.307 57.021 246.037 57.1675C248.772 57.314 251.9 59.1918 251.612 61.9119C251.541 62.5589 251.282 63.2426 251.548 63.8384C251.868 64.5489 252.781 64.7639 253.558 64.7248C257.196 64.5563 259.975 60.271 258.651 56.8818C257.779 57.0161 256.844 56.5107 256.483 55.7049C258.075 55.0749 259.323 53.6319 259.711 51.9617C256.744 50.8385 253.284 51.1095 250.527 52.6747" fill="#D9E1F2"/>
<path d="M257.79 71.6699C259.302 70.5711 258.303 67.8705 256.511 67.3431C254.719 66.8132 252.829 67.7606 251.346 68.9033C251.254 70.4392 251.161 71.9751 251.066 73.5134C249.293 73.1349 247.374 73.5109 245.872 74.5243C248.492 75.2226 250.641 77.4568 251.241 80.1013C248.748 81.8129 244.8 80.6115 243.679 77.8035C243.159 76.4972 242.971 74.7416 241.633 74.307C239.741 73.6965 238.639 76.6876 239.511 78.475C241.819 83.1949 248.846 82.8849 252.763 86.3839C254.172 87.6414 256.311 89.4361 257.507 87.9735C258.457 86.8112 257.219 85.1655 256.074 84.1985C257.461 84.3719 258.938 84.5013 260.198 83.8933C261.458 83.2853 262.332 81.6615 261.648 80.4406C261.294 79.8033 260.625 79.4249 260.059 78.9682C257.981 77.2932 257.226 74.1702 258.313 71.7309C257.563 71.4135 256.814 71.0985 256.066 70.781" fill="#D9E1F2"/>
<path d="M326.606 59.1449C321.857 56.2929 315.968 55.4139 310.596 56.7544C306.714 57.7213 303.085 59.7944 299.093 60.0752C293.257 60.483 287.673 56.8227 284.491 51.9148C288.916 48.8845 295.384 54.8278 300.045 52.1761C301.383 51.4142 302.318 50.0249 303.73 49.3998C305.17 48.76 306.833 49.0262 308.384 49.3021C315.846 50.6402 323.31 51.9758 330.775 53.3139C331.651 50.1201 328.924 46.4721 325.613 46.4111C329.524 44.8385 333.431 43.2636 337.343 41.6886C339.318 40.8951 341.43 39.9818 342.502 38.1481C343.579 36.3118 342.817 33.3329 340.705 33.0691C349.708 29.9363 358.432 26.0002 366.737 21.3193C365.899 19.8738 365.064 18.4283 364.229 16.9827C370.004 17.5761 375.988 15.8106 380.515 12.1724C374.033 11.6401 367.457 12.2554 361.187 13.9818C371.972 15.3394 383.138 13.5276 392.939 8.82228C389.416 5.7554 383.008 9.75015 379.539 6.61979C378.501 5.68214 377.983 4.26594 376.924 3.35027C375.622 2.22462 373.769 2.06831 372.05 1.97552C354.45 1.03056 336.774 1.53114 319.254 3.46503C316.363 3.78246 312.718 4.9008 312.552 7.80163C308.357 7.63071 304.162 7.45493 299.967 7.28156C296.951 11.3496 291.006 12.9269 286.371 10.8929C285.321 12.5582 284.274 14.2211 283.226 15.8839C286.154 17.9033 289.817 18.8311 293.355 18.4551C295.518 22.9089 302.526 23.8856 305.827 20.1912C307.292 25.2408 314.845 24.2934 319.323 21.5391C323.801 18.7848 329.556 15.2662 333.749 18.438C328.179 22.7502 321.034 24.9845 314 24.6182C315.763 26.7376 317.526 28.8595 319.286 30.979C314.964 31.2476 311.131 28.4982 307.351 26.386C303.569 24.2739 298.614 22.7893 295.12 25.3483C298.28 27.9268 301.437 30.5028 304.597 33.0789C295.892 28.4933 287.187 23.91 278.482 19.3268C275.933 17.9814 272.986 16.6042 270.28 17.6078C267.577 18.6114 266.764 23.3338 269.543 24.0907C267.389 24.4863 265.531 26.2053 264.972 28.3272C270.129 28.7423 275.203 30.1756 279.81 32.5222C277.642 33.2181 275.471 33.9165 273.301 34.6124C278.26 36.2264 283.217 37.8404 288.173 39.4544C289.184 39.7865 290.337 40.1039 291.267 39.5887C292.202 39.071 292.539 37.9259 293.059 36.9907C294.617 34.1997 298.619 33.1253 301.364 34.7613C300.734 36.2581 300.104 37.7549 299.474 39.2517C301.818 39.264 304.159 39.2786 306.501 39.2908C306.54 40.5776 306.579 41.862 306.618 43.1464C310.017 43.6714 313.506 43.5737 316.869 42.8607C315.638 47.4171 309.028 47.8175 304.907 45.5247C300.783 43.2318 297.535 39.303 292.996 38.0186C294.446 41.4054 296.766 44.4161 299.672 46.6796C293.618 45.7029 287.314 46.306 281.551 48.4109C280.99 47.1973 280.426 45.9812 279.864 44.7677C275.125 46.7333 275.838 53.5899 277.383 58.4832C277.837 59.919 278.311 61.3938 279.263 62.5609C281.422 65.2054 285.28 65.5106 288.689 65.6107C293.826 65.7572 298.959 65.9038 304.096 66.0527C311.241 66.2578 326.88 69.6177 326.606 59.1449Z" fill="#D9E1F2"/>
<path d="M270.276 53.624C271.682 52.6522 274.229 53.4702 274.879 51.8904C275.367 50.6988 274.097 49.5658 272.974 48.9358C271.851 48.3034 270.515 47.3242 270.823 46.074C269.824 46.2157 268.774 46.0008 267.912 45.4734C270.059 44.9093 272.205 44.3428 274.351 43.7788C275.169 43.5639 276.209 42.8241 275.726 42.1306C275.557 41.8937 275.26 41.7911 274.979 41.7203C273.648 41.376 272.2 41.3346 271.035 40.6118C269.866 39.889 269.214 38.0748 270.232 37.1518C269.495 37.0858 268.76 37.0199 268.022 36.9515C267.993 36.3679 267.959 35.7819 267.927 35.1983C264.123 35.0958 260.323 34.7857 256.551 34.2704C255.999 36.8148 258.448 39.5276 261.036 39.2371C261.454 39.1907 261.918 39.0906 262.262 39.3299C262.57 39.5423 262.663 39.9452 262.824 40.2846C263.312 41.293 264.658 41.7765 265.673 41.3126C265.375 42.0451 264.87 42.6922 264.235 43.1635C265.461 43.8154 266.811 44.2402 268.193 44.4063C267.104 45.2707 265.817 45.8811 264.457 46.1741C265.019 46.6283 265.578 47.0825 266.14 47.5367C264.704 47.566 263.266 47.5953 261.83 47.6222C261.393 48.9749 262.711 50.2691 264.032 50.794C265.49 51.3752 272.593 55.8998 268.332 57.9143C265.913 59.0619 264.899 55.0672 265.756 53.541C267.107 56.6714 266.694 61.03 269.065 63.7672C270.796 65.7621 273.426 66.1333 275.108 63.5011C278.014 58.9545 270.979 57.587 270.276 53.624Z" fill="#D9E1F2"/>
<path d="M312.811 405.884C311.123 410.406 316.564 415.688 321.035 413.864C322.324 413.339 323.45 412.382 324.819 412.142C328.658 411.471 330.868 416.303 331.681 420.117C332.611 424.478 333.52 429.142 331.893 433.295C329.945 438.274 324.612 441.751 323.987 447.059C323.474 451.398 326.338 455.876 324.871 459.991C324.202 461.856 322.72 463.338 322.021 465.194C320.769 468.517 322.263 472.185 323.735 475.418C328.629 486.164 333.524 496.908 338.415 507.654C339.517 510.071 340.696 512.589 342.806 514.2C344.488 515.482 346.598 516.061 348.38 517.199C351.291 519.052 353.066 522.202 354.731 525.225C357.805 530.816 360.916 536.51 362.232 542.754C364.027 551.273 362.337 560.09 360.65 568.632C358.181 581.116 355.715 593.601 353.249 606.086C350.534 619.82 347.819 633.558 345.106 647.293C348.007 645.532 350.163 642.58 350.956 639.279C352.343 648.208 350.58 657.597 346.051 665.418C345.658 662.046 345.264 658.674 344.871 655.302C341.553 662.468 339.836 670.374 339.89 678.274C339.9 679.695 340.022 681.255 341.008 682.278C341.946 683.247 343.399 683.462 344.595 684.09C347.191 685.447 348.307 689.061 346.925 691.647C348.297 691.967 349.674 692.284 351.047 692.602C353.176 694.284 348.153 696.648 348.173 699.363C348.18 700.467 349.076 701.333 349.904 702.064C353.789 705.489 357.678 708.913 361.566 712.338C364.271 713.139 367.089 713.948 369.878 713.513C372.669 713.081 375.42 711.02 375.677 708.209C376.033 704.349 372.017 701.771 369.423 698.892C365.392 694.423 364.413 687.848 365.426 681.919C366.442 675.991 369.204 670.526 371.931 665.161C370.168 664.5 368.405 663.835 366.642 663.171C366.772 659.211 370.813 656.754 373.367 653.724C378.009 648.218 377.498 639.101 372.271 634.149C374.204 632.784 376.138 631.421 378.075 630.059C379.659 632.593 381.247 635.13 382.836 637.667C386.802 634.481 388.286 628.559 386.294 623.881C395.284 626.186 405.445 618.819 406.048 609.56C403.823 609.485 402.063 606.928 402.79 604.823C403.516 602.718 406.475 601.788 408.275 603.099C407.283 605.671 410.218 608.474 412.953 608.137C415.688 607.802 417.734 605.343 418.655 602.745C419.575 600.147 419.653 597.339 420.164 594.631C420.984 590.288 422.95 586.166 425.809 582.794C428.187 579.991 431.23 577.603 432.617 574.199C433.633 571.708 433.64 568.939 434.07 566.285C435.476 557.614 441.869 549.938 450.134 546.981C450.478 550.853 456.597 550.055 459.467 547.427C463.754 543.506 466.648 538.085 467.522 532.34C468.291 527.298 467.612 521.857 469.998 517.352C471.006 515.443 472.537 513.783 473.116 511.705C473.612 509.922 473.351 508.03 473.448 506.181C473.971 496.268 484.595 488.44 483.357 478.59C482.554 472.19 476.989 467.609 471.844 463.719C463.989 457.783 455.638 451.635 445.866 450.417C439.664 449.645 432.985 450.868 427.408 448.043C429.889 447.892 431.65 445.301 431.774 442.82C431.901 440.337 430.827 437.969 429.774 435.715C429.066 434.194 428.356 432.673 427.648 431.149C424.769 424.969 420.042 417.714 413.292 418.686C411.283 418.974 409.08 419.983 407.371 418.891C405.801 417.89 405.63 415.715 404.778 414.059C401.45 407.581 388.836 410.225 386.926 403.198C386.428 401.367 386.841 399.147 385.525 397.782C384.457 396.674 382.721 396.654 381.183 396.71C374.207 396.969 367.228 397.226 360.252 397.482C360.018 400.219 358.23 402.771 355.735 403.923C356.101 405.53 356.465 407.134 356.829 408.741C356.257 411.595 351.462 411.244 350.209 408.619C348.954 405.994 350.165 402.878 351.637 400.368C353.112 397.86 354.919 395.306 354.883 392.396C351.716 390.884 348.51 394.176 346.227 396.84C343.939 399.499 339.46 401.809 337.368 398.993C337.636 401.889 337.905 404.788 338.176 407.684C333.678 411.61 325.574 409.893 323.052 404.48C321.315 406.631 319.401 408.897 316.74 409.647C314.08 410.394 310.599 408.726 310.608 405.96C311.966 411.937 317.877 416.54 324.006 416.393" fill="#D9E1F2"/>
<path d="M306.458 348.607C308.589 350.753 311.886 347.523 314.889 347.149C317.785 346.788 320.163 349.225 322.336 351.173C324.51 353.124 327.906 354.765 330.165 352.914C331.249 357.434 337.532 359.69 341.243 356.894C340.906 358.489 343.006 359.578 344.61 359.297C346.219 359.016 347.653 358.003 349.276 357.886C351.625 357.715 353.894 359.798 353.925 362.154C353.977 363.016 352.766 363.333 351.93 363.118C351.098 362.899 350.168 362.467 349.43 362.918C348.912 363.236 348.712 363.878 348.353 364.366C347.047 366.149 344.293 365.47 342.203 364.75C340.115 364.027 337.141 363.822 336.345 365.883C342.906 367.179 349.743 367.079 356.265 365.587C355.725 366.1 356.121 367.091 356.802 367.394C357.478 367.694 358.262 367.526 358.985 367.352C361.768 366.683 364.552 366.014 367.335 365.345C369.013 366.361 371.252 366.368 372.932 365.36C372.815 366.124 372.7 366.891 372.583 367.655C375.855 369.071 380.074 367.716 381.908 364.662C377.276 363.895 372.646 363.128 368.012 362.362C364.691 361.812 361.282 361.231 358.379 359.522C355.517 357.839 353.244 355.112 350.087 354.084C345.677 352.653 340.613 354.9 336.325 353.134C332.172 351.425 329.559 346.258 325.071 346.175C323.616 346.148 322.073 346.69 320.747 346.08C317.387 344.539 317.829 341.35 313.475 343.013C312.657 343.323 307.19 349.345 306.458 348.607Z" fill="#D9E1F2"/>
<path d="M678.53 260.776C676.418 265.132 675.456 269.981 676.289 274.743C677.72 282.944 684.085 290.526 682.291 298.662C679.514 297.937 676.738 297.209 673.959 296.506" fill="#D9E1F2"/>
<path d="M708.369 150.994C708.201 151.507 707.986 152 707.771 152.491L708.369 150.994Z" fill="#D9E1F2"/>
<path d="M708.913 147.75C708.869 145.784 708.037 143.948 706.755 142.41L708.913 147.75Z" fill="#D9E1F2"/>
<path d="M394.778 512.662C318.59 503 244.976 473.701 182.985 428.368C158.118 410.182 133.783 387.295 127.488 357.137C122.595 333.701 129.63 308.929 142.415 288.685C155.197 268.44 173.328 252.153 192.156 237.366C323.197 134.441 644.425 90.9707 679.193 135.286C713.961 179.602 643.709 307.061 645.831 377.406C646.161 388.401 647.34 399.912 653.469 409.049C659.237 417.646 668.801 423.096 678.727 426.038C715.011 436.787 752.665 417.321 785.5 398.51C836.081 369.531 889.811 287.508 948.094 286.463C1104.66 283.662 1018.43 442.589 1048.52 544.783C1057.87 576.519 1109.3 560.926 1105.4 558.289" stroke="#7B95D3" stroke-width="1.33333" stroke-miterlimit="10" stroke-linecap="round" stroke-dasharray="2.67 2.67"/>
<path d="M254.677 201.938C254.677 206.173 251.243 209.603 247.009 209.603C242.775 209.603 239.342 206.173 239.342 201.938C239.342 197.704 242.775 194.271 247.009 194.271C251.243 194.271 254.677 197.704 254.677 201.938Z" fill="url(#paint0_linear)"/>
<path d="M404.693 515.341C404.693 519.575 401.262 523.008 397.026 523.008C392.794 523.008 389.361 519.575 389.361 515.341C389.361 511.107 392.794 507.676 397.026 507.676C401.262 507.676 404.693 511.107 404.693 515.341Z" fill="url(#paint1_linear)"/>
<path d="M686.854 135.29C686.854 139.524 683.424 142.957 679.19 142.957C674.956 142.957 671.522 139.524 671.522 135.29C671.522 131.056 674.956 127.623 679.19 127.623C683.424 127.623 686.854 131.056 686.854 135.29Z" fill="url(#paint2_linear)"/>
<path d="M697.153 428.969C697.153 433.203 693.72 436.636 689.488 436.636C685.252 436.636 681.821 433.203 681.821 428.969C681.821 424.735 685.252 421.304 689.488 421.304C693.72 421.304 697.153 424.735 697.153 428.969Z" fill="url(#paint3_linear)"/>
<path d="M955.765 287.996C955.765 292.23 952.334 295.663 948.1 295.663C943.863 295.663 940.433 292.23 940.433 287.996C940.433 283.764 943.863 280.331 948.1 280.331C952.334 280.331 955.765 283.764 955.765 287.996Z" fill="url(#paint4_linear)"/>
<path d="M1109.5 559.069C1109.5 563.303 1106.07 566.736 1101.84 566.736C1097.6 566.736 1094.17 563.303 1094.17 559.069C1094.17 554.835 1097.6 551.401 1101.84 551.401C1106.07 551.401 1109.5 554.835 1109.5 559.069Z" fill="url(#paint5_linear)"/>
<defs>
<linearGradient id="paint0_linear" x1="246.585" y1="209.603" x2="246.585" y2="194.271" gradientUnits="userSpaceOnUse">
<stop stop-color="#384E83"/>
<stop offset="1" stop-color="#463B67"/>
</linearGradient>
<linearGradient id="paint1_linear" x1="396.602" y1="523.008" x2="396.602" y2="507.676" gradientUnits="userSpaceOnUse">
<stop stop-color="#384E83"/>
<stop offset="1" stop-color="#463B67"/>
</linearGradient>
<linearGradient id="paint2_linear" x1="678.764" y1="142.957" x2="678.764" y2="127.623" gradientUnits="userSpaceOnUse">
<stop stop-color="#384E83"/>
<stop offset="1" stop-color="#463B67"/>
</linearGradient>
<linearGradient id="paint3_linear" x1="689.062" y1="436.636" x2="689.062" y2="421.304" gradientUnits="userSpaceOnUse">
<stop stop-color="#384E83"/>
<stop offset="1" stop-color="#463B67"/>
</linearGradient>
<linearGradient id="paint4_linear" x1="947.674" y1="295.663" x2="947.674" y2="280.331" gradientUnits="userSpaceOnUse">
<stop stop-color="#384E83"/>
<stop offset="1" stop-color="#463B67"/>
</linearGradient>
<linearGradient id="paint5_linear" x1="1101.41" y1="566.736" x2="1101.41" y2="551.401" gradientUnits="userSpaceOnUse">
<stop stop-color="#384E83"/>
<stop offset="1" stop-color="#463B67"/>
</linearGradient>
</defs>
</svg>
