<svg id="Capa_1" enable-background="new 0 0 512 512" height="512" viewBox="0 0 512 512" width="512" xmlns="http://www.w3.org/2000/svg"><g><g><path d="m81.029 442.85h349.942c49.862-46.711 81.029-113.136 81.029-186.85 0-141.385-114.615-256-256-256s-256 114.615-256 256c0 73.714 31.167 140.139 81.029 186.85z" fill="#383c6b"/></g><g><g><path d="m415.977 455.85c5.172-4.145 10.19-8.474 15.023-13v-86.85c0-55.23-44.77-100-100-100 55.23 0 100-44.77 100-100v-141h-350v141c0 55.23 44.77 100 100 100-55.23 0-100 44.77-100 100v86.85c4.832 4.526 9.85 8.855 15.023 13z" fill="#e8f8fc"/></g><g><path d="m416 356c0-46.94-38.06-85-85-85h-37.5c-8.28 0-15-6.72-15-15s6.72-15 15-15h37.5c46.94 0 85-38.06 85-85v-141h-320v141c0 46.94 38.06 85 85 85h37.5c8.28 0 15 6.72 15 15s-6.72 15-15 15h-37.5c-46.94 0-85 38.06-85 85v99.85h320z" fill="#cce6ed"/></g><g><path d="m416 356c0-46.94-38.06-85-85-85h-37.5c-8.28 0-15-6.72-15-15s6.72-15 15-15c-46.87 0-85-38.13-85-85v-126h207.5v-15h-320v141c0 46.94 38.06 85 85 85h37.5c8.28 0 15 6.72 15 15s-6.72 15-15 15h-37.5c-46.94 0-85 38.06-85 85v99.85h320z" fill="#a6d6eb"/></g><g><g><path d="m96 79c160 0 160 60 320 60v17c0 46.944-38.056 85-85 85h-37.5c-7.35 0-13.465 5.287-14.751 12.265v192.402h-45.249v-189.667c0-8.284-6.716-15-15-15h-37.5c-46.944 0-85-38.056-85-85v-17z" fill="#ffcd38"/></g></g><g><path d="m208.5 156v-63.193c-28.439-8-62.727-13.807-112.5-13.807v60 17c0 46.944 38.056 85 85 85h37.5c8.284 0 15 6.716 15 15v189.667h45.249v-192.402c1.285-6.978 7.401-12.265 14.751-12.265-46.869 0-85-38.131-85-85z" fill="#ffac00"/></g><g><path d="m416 436v-60c-160 0-160 60-320 60v19.829c43.829 35.139 99.454 56.171 160 56.171s116.171-21.032 160-56.171z" fill="#ffcd38"/></g><g><path d="m441 30h-370c-8.284 0-15-6.716-15-15 0-8.284 6.716-15 15-15h370c8.284 0 15 6.716 15 15 0 8.284-6.716 15-15 15z" fill="#aa5821"/></g><g><path d="m136 15c0-8.284 6.716-15 15-15h-80c-8.284 0-15 6.716-15 15s6.716 15 15 15h80c-8.284 0-15-6.716-15-15z" fill="#874417"/></g></g></g></svg>