<svg id="Capa_1" enable-background="new 0 0 512 512" height="512" viewBox="0 0 512 512" width="512" xmlns="http://www.w3.org/2000/svg" xmlns:xlink="http://www.w3.org/1999/xlink"><linearGradient id="SVGID_1_" gradientUnits="userSpaceOnUse" x1="74.981" x2="437.019" y1="74.981" y2="437.019"><stop offset="0" stop-color="#58ab65"/><stop offset="1" stop-color="#1e8078"/></linearGradient><linearGradient id="SVGID_2_" gradientUnits="userSpaceOnUse" x1="111.839" x2="357.104" y1="376.241" y2="376.241"><stop offset="0" stop-color="#aaeffd"/><stop offset="1" stop-color="#5ce3ff"/></linearGradient><linearGradient id="SVGID_3_" gradientUnits="userSpaceOnUse" x1="188.385" x2="400.161" y1="256" y2="256"><stop offset="0" stop-color="#eff7f9"/><stop offset="1" stop-color="#aaeffd"/></linearGradient><linearGradient id="lg1"><stop offset="0" stop-color="#1e3e45"/><stop offset="1" stop-color="#00232b"/></linearGradient><linearGradient id="SVGID_4_" gradientUnits="userSpaceOnUse" x1="241.329" x2="347.217" xlink:href="#lg1" y1="294.911" y2="294.911"/><linearGradient id="SVGID_5_" gradientUnits="userSpaceOnUse" x1="241.329" x2="308.944" xlink:href="#lg1" y1="218.365" y2="218.365"/><linearGradient id="SVGID_6_" gradientUnits="userSpaceOnUse" x1="241.329" x2="308.944" xlink:href="#lg1" y1="256.638" y2="256.638"/><linearGradient id="SVGID_7_" gradientUnits="userSpaceOnUse" x1="241.329" x2="347.217" xlink:href="#lg1" y1="180.092" y2="180.092"/><g><circle cx="256" cy="256" fill="url(#SVGID_1_)" r="256"/><g><path d="m188.385 361.888h-76.546v14.352c0 23.78 19.277 43.057 43.057 43.057h202.208v-86.114z" fill="url(#SVGID_2_)"/><path d="m367.274 112.444-24.841-19.742-24.08 19.137-24.08-19.137-24.08 19.137-24.08-19.137-24.841 19.742-32.887-19.741v269.185h125.663v14.352c0 23.681 19.376 43.057 43.057 43.057s43.057-19.376 43.057-43.057v-283.537z" fill="url(#SVGID_3_)"/><g fill="#00232b"><path d="m328.081 323.615h19.136v19.136h-19.136z"/><path d="m328.081 247.07h19.136v19.136h-19.136z"/><path d="m328.081 208.797h19.136v19.136h-19.136z"/></g><path d="m241.329 285.342h105.888v19.136h-105.888z" fill="url(#SVGID_4_)"/><path d="m241.329 208.797h67.616v19.136h-67.616z" fill="url(#SVGID_5_)"/><path d="m241.329 247.07h67.616v19.136h-67.616z" fill="url(#SVGID_6_)"/><path d="m241.329 170.524h105.888v19.136h-105.888z" fill="url(#SVGID_7_)"/></g></g></svg>